{"glyphs":{"0":{"ha":916,"x_min":56,"x_max":861,"o":"m 458 -14 q 294 27 369 -14 q 167 140 220 67 q 85 310 114 213 q 56 521 56 408 q 86 732 56 635 q 172 902 117 829 q 300 1015 227 974 q 458 1056 374 1056 q 617 1015 544 1056 q 745 902 690 974 q 831 732 800 829 q 861 521 861 635 q 832 310 861 408 q 750 140 803 213 q 623 27 697 67 q 458 -14 549 -14 m 458 20 q 545 58 513 20 q 592 163 576 95 q 613 322 608 231 q 618 521 618 413 q 612 720 618 628 q 590 879 606 811 q 542 984 574 947 q 458 1022 510 1022 q 378 984 410 1022 q 330 879 347 947 q 306 720 313 811 q 299 521 299 628 q 304 322 299 413 q 325 163 309 231 q 373 58 340 95 q 458 20 405 20 z "},"1":{"ha":687,"x_min":69,"x_max":618,"o":"m 250 10 l 250 1006 l 93 1006 l 93 1042 l 465 1042 l 465 10 l 250 10 m 69 0 l 69 36 l 618 36 l 618 0 l 69 0 z "},"2":{"ha":833,"x_min":56,"x_max":784,"o":"m 56 0 l 56 139 l 351 377 q 486 535 440 447 q 533 736 533 623 q 508 875 533 816 q 438 966 483 933 q 333 998 393 998 q 220 969 273 998 q 136 885 167 941 q 106 750 104 830 l 72 750 q 92 798 72 775 q 142 835 112 821 q 206 850 173 850 q 266 835 238 850 q 312 792 294 819 q 330 731 330 765 q 313 664 330 692 q 266 619 295 635 q 201 603 236 603 q 137 621 167 603 q 90 672 108 639 q 71 750 72 705 q 110 907 69 838 q 230 1016 151 976 q 417 1056 308 1056 q 599 1020 524 1056 q 715 925 675 985 q 756 792 756 865 q 737 688 756 734 q 688 605 719 642 q 620 536 658 567 q 544 476 583 504 l 217 208 l 748 208 l 748 313 l 784 313 l 784 0 l 56 0 z "},"3":{"ha":792,"x_min":35,"x_max":738,"o":"m 356 -14 q 177 21 249 -14 q 70 110 106 56 q 35 221 35 164 q 69 311 35 277 q 153 344 103 344 q 230 314 198 344 q 262 233 262 283 q 246 178 262 202 q 204 139 230 153 q 149 125 178 125 q 94 138 120 125 q 52 173 69 151 q 36 221 36 195 l 72 221 q 105 125 72 169 q 192 53 138 80 q 314 26 247 26 q 429 58 385 26 q 493 149 473 91 q 514 285 514 208 q 505 369 514 324 q 470 455 495 415 q 397 520 444 494 q 275 545 350 545 l 275 568 q 489 544 401 568 q 632 480 577 521 q 712 388 687 440 q 738 278 738 335 q 706 156 738 210 q 620 64 674 102 q 498 6 566 26 q 356 -14 429 -14 m 275 558 l 275 581 q 385 605 345 581 q 444 664 425 628 q 467 741 463 701 q 472 817 472 782 q 464 894 472 858 q 438 957 456 929 q 394 999 421 984 q 330 1015 367 1015 q 259 1003 297 1015 q 188 969 221 992 q 134 917 155 947 q 113 847 113 886 l 77 847 q 95 899 77 877 q 139 934 113 922 q 191 947 165 947 q 247 933 221 947 q 288 896 272 920 q 304 838 304 872 q 287 777 304 802 q 243 739 269 752 q 191 726 217 726 q 135 741 162 726 q 92 783 109 756 q 76 847 76 810 q 101 928 76 890 q 170 994 127 965 q 265 1038 213 1022 q 369 1054 317 1054 q 485 1039 428 1054 q 591 995 543 1024 q 667 922 638 966 q 696 821 696 878 q 675 722 696 769 q 606 638 654 674 q 476 580 558 601 q 275 558 395 558 z "},"4":{"ha":888,"x_min":46,"x_max":875,"o":"m 375 0 l 375 36 l 507 36 l 507 895 l 113 317 l 875 317 l 875 281 l 46 281 l 563 1042 l 722 1042 l 722 36 l 826 36 l 826 0 l 375 0 z "},"5":{"ha":742,"x_min":15,"x_max":701,"o":"m 300 -14 q 156 14 221 -14 q 53 88 92 41 q 15 193 15 135 q 48 286 15 252 q 135 321 82 321 q 219 290 182 321 q 256 201 256 259 q 239 140 256 167 q 194 99 222 114 q 135 83 166 83 q 93 94 114 83 q 54 123 72 106 q 26 159 37 140 q 16 193 16 178 l 52 193 q 70 126 52 157 q 120 71 89 94 q 191 35 151 48 q 274 22 231 22 q 372 48 333 22 q 433 115 411 73 q 463 208 454 158 q 472 309 472 259 q 451 451 472 391 q 390 545 430 512 q 292 579 349 579 q 214 566 247 579 q 161 533 182 553 q 131 496 141 514 l 96 496 q 136 553 107 522 q 219 608 165 585 q 357 631 273 631 q 535 594 457 631 q 657 485 613 557 q 701 309 701 413 q 670 183 701 242 q 586 80 640 124 q 458 11 531 36 q 300 -14 385 -14 m 79 496 l 79 1042 l 616 1042 l 616 1117 l 653 1117 l 653 833 l 116 833 l 116 496 l 79 496 z "},"6":{"ha":847,"x_min":69,"x_max":806,"o":"m 443 -14 q 247 36 331 -14 q 116 186 163 87 q 69 431 69 285 q 116 670 69 557 q 249 869 163 783 q 449 1006 334 956 q 701 1056 565 1056 l 701 1022 q 533 977 608 1022 q 407 857 459 933 q 327 689 355 782 q 299 499 299 596 l 299 390 q 307 243 299 310 q 332 126 315 176 q 377 50 349 77 q 447 22 406 22 q 514 47 488 22 q 552 116 539 72 q 571 219 566 160 q 576 347 576 278 q 560 516 576 453 q 513 605 544 578 q 437 632 481 632 q 362 607 393 632 q 315 529 331 583 q 299 390 299 476 l 269 390 q 288 542 269 476 q 352 647 306 609 q 481 684 398 684 q 596 665 539 684 q 701 605 653 645 q 777 500 749 564 q 806 347 806 436 q 762 161 806 243 q 636 33 718 80 q 443 -14 555 -14 z "},"7":{"ha":749,"x_min":56,"x_max":736,"o":"m 339 -14 q 244 18 283 -14 q 206 126 206 51 q 223 213 206 167 q 268 307 240 258 q 331 409 297 356 q 401 518 366 462 q 452 607 426 558 q 509 711 479 656 q 571 827 539 767 l 92 827 l 92 722 l 56 722 l 56 1042 l 736 1042 q 717 1006 736 1042 q 668 913 699 971 q 599 785 637 854 q 524 648 562 716 q 453 524 485 579 q 401 432 419 466 q 376 374 383 397 q 370 324 370 350 q 385 269 370 292 q 420 225 400 246 q 455 178 440 204 q 469 115 469 153 q 435 24 469 62 q 339 -14 401 -14 z "},"8":{"ha":833,"x_min":56,"x_max":778,"o":"m 417 -14 q 145 63 234 -14 q 56 264 56 139 q 125 447 56 375 q 340 535 195 519 q 149 614 215 550 q 83 778 83 678 q 122 918 83 855 q 234 1018 160 981 q 417 1056 308 1056 q 600 1018 525 1056 q 712 918 674 981 q 750 778 750 855 q 684 614 750 678 q 494 535 619 550 q 708 447 638 519 q 778 264 778 375 q 689 63 778 139 q 417 -14 601 -14 m 417 22 q 499 53 468 22 q 542 138 529 83 q 556 264 556 192 q 542 392 556 336 q 499 480 529 448 q 417 512 468 512 q 335 480 365 512 q 291 392 304 448 q 278 264 278 336 q 291 138 278 192 q 335 53 304 83 q 417 22 365 22 m 417 558 q 483 581 458 558 q 517 653 507 605 q 528 778 528 702 q 522 876 528 832 q 503 952 516 920 q 469 1002 490 985 q 417 1019 448 1019 q 365 1002 386 1019 q 330 952 343 985 q 311 876 317 920 q 306 778 306 832 q 316 653 306 702 q 351 581 327 605 q 417 558 376 558 z "},"9":{"ha":847,"x_min":42,"x_max":778,"o":"m 147 -14 l 147 20 q 314 65 240 20 q 441 184 388 109 q 521 353 493 260 q 549 543 549 446 l 549 653 q 541 799 549 733 q 516 915 533 866 q 470 992 499 965 q 401 1019 442 1019 q 334 995 359 1019 q 295 926 308 970 q 276 823 281 882 q 272 694 272 764 q 288 526 272 588 q 335 437 303 464 q 410 410 366 410 q 486 434 455 410 q 533 513 517 459 q 549 653 549 567 l 578 653 q 559 499 578 566 q 495 395 541 433 q 367 358 450 358 q 251 377 309 358 q 146 438 194 397 q 70 542 99 478 q 42 694 42 606 q 86 880 42 799 q 211 1009 130 962 q 404 1056 292 1056 q 600 1005 516 1056 q 731 856 684 955 q 778 611 778 757 q 731 372 778 485 q 599 172 684 259 q 399 36 514 85 q 147 -14 283 -14 z "},"A":{"ha":1121,"x_min":35,"x_max":1087,"o":"m 285 317 l 285 354 l 725 354 l 725 317 l 285 317 m 620 1062 l 976 36 l 1087 36 l 1087 0 l 606 0 l 606 36 l 726 36 l 474 815 l 202 36 l 342 36 l 342 0 l 35 0 l 35 36 l 160 36 l 522 1062 l 620 1062 z "},"Á":{"ha":1121,"x_min":35,"x_max":1087,"o":"m 285 317 l 285 354 l 725 354 l 725 317 l 285 317 m 620 1062 l 976 36 l 1087 36 l 1087 0 l 606 0 l 606 36 l 726 36 l 474 815 l 202 36 l 342 36 l 342 0 l 35 0 l 35 36 l 160 36 l 522 1062 l 620 1062 m 513 1160 l 493 1185 l 615 1348 q 666 1389 637 1381 q 722 1388 695 1397 q 760 1360 748 1379 q 772 1310 775 1338 q 751 1259 769 1282 q 699 1228 732 1236 l 513 1160 z "},"Ă":{"ha":1121,"x_min":35,"x_max":1087,"o":"m 285 317 l 285 354 l 725 354 l 725 317 l 285 317 m 620 1062 l 976 36 l 1087 36 l 1087 0 l 606 0 l 606 36 l 726 36 l 474 815 l 202 36 l 342 36 l 342 0 l 35 0 l 35 36 l 160 36 l 522 1062 l 620 1062 m 570 1167 q 474 1194 511 1167 q 421 1271 438 1222 q 404 1388 404 1321 l 432 1388 q 451 1336 432 1356 q 501 1307 470 1316 q 570 1299 533 1299 q 639 1307 608 1299 q 690 1336 671 1316 q 708 1388 708 1356 l 737 1388 q 720 1271 737 1321 q 666 1194 703 1222 q 570 1167 629 1167 z "},"Â":{"ha":1121,"x_min":35,"x_max":1087,"o":"m 285 317 l 285 354 l 725 354 l 725 317 l 285 317 m 620 1062 l 976 36 l 1087 36 l 1087 0 l 606 0 l 606 36 l 726 36 l 474 815 l 202 36 l 342 36 l 342 0 l 35 0 l 35 36 l 160 36 l 522 1062 l 620 1062 m 363 1174 l 345 1192 l 512 1380 l 630 1380 l 797 1192 l 778 1174 l 570 1283 l 363 1174 z "},"Ä":{"ha":1121,"x_min":35,"x_max":1087,"o":"m 285 317 l 285 354 l 725 354 l 725 317 l 285 317 m 620 1062 l 976 36 l 1087 36 l 1087 0 l 606 0 l 606 36 l 726 36 l 474 815 l 202 36 l 342 36 l 342 0 l 35 0 l 35 36 l 160 36 l 522 1062 l 620 1062 m 699 1170 q 643 1194 667 1170 q 619 1250 619 1217 q 643 1307 619 1283 q 699 1331 667 1331 q 756 1307 733 1331 q 780 1250 780 1283 q 756 1194 780 1217 q 699 1170 733 1170 m 440 1170 q 383 1194 407 1170 q 360 1250 360 1217 q 383 1307 360 1283 q 440 1331 407 1331 q 497 1307 473 1331 q 520 1250 520 1283 q 497 1194 520 1217 q 440 1170 473 1170 z "},"À":{"ha":1121,"x_min":35,"x_max":1087,"o":"m 285 317 l 285 354 l 725 354 l 725 317 l 285 317 m 620 1062 l 976 36 l 1087 36 l 1087 0 l 606 0 l 606 36 l 726 36 l 474 815 l 202 36 l 342 36 l 342 0 l 35 0 l 35 36 l 160 36 l 522 1062 l 620 1062 m 626 1160 l 440 1228 q 388 1259 407 1236 q 366 1310 369 1282 q 378 1360 364 1338 q 417 1388 391 1379 q 473 1389 443 1397 q 523 1348 502 1381 l 645 1185 l 626 1160 z "},"Ā":{"ha":1121,"x_min":35,"x_max":1087,"o":"m 285 317 l 285 354 l 725 354 l 725 317 l 285 317 m 620 1062 l 976 36 l 1087 36 l 1087 0 l 606 0 l 606 36 l 726 36 l 474 815 l 202 36 l 342 36 l 342 0 l 35 0 l 35 36 l 160 36 l 522 1062 l 620 1062 m 403 1181 l 403 1217 l 737 1217 l 737 1181 l 403 1181 z "},"Ą":{"ha":1121,"x_min":35,"x_max":1087,"o":"m 285 317 l 285 354 l 725 354 l 725 317 l 285 317 m 620 1062 l 976 36 l 1087 36 l 1087 0 l 606 0 l 606 36 l 726 36 l 474 815 l 202 36 l 342 36 l 342 0 l 35 0 l 35 36 l 160 36 l 522 1062 l 620 1062 m 818 -310 q 733 -297 772 -310 q 671 -258 694 -285 q 647 -190 647 -232 q 669 -114 647 -149 q 727 -51 691 -79 q 805 -3 763 -23 q 887 29 847 17 l 897 6 q 868 -24 883 -2 q 842 -79 853 -47 q 832 -152 832 -112 q 848 -224 832 -199 q 893 -249 865 -249 q 935 -233 919 -249 q 964 -194 951 -217 l 991 -209 q 964 -252 981 -228 q 912 -293 946 -276 q 818 -310 878 -310 z "},"Å":{"ha":1121,"x_min":35,"x_max":1087,"o":"m 285 317 l 285 354 l 725 354 l 725 317 l 285 317 m 620 1062 l 976 36 l 1087 36 l 1087 0 l 606 0 l 606 36 l 726 36 l 474 815 l 202 36 l 342 36 l 342 0 l 35 0 l 35 36 l 160 36 l 522 1062 l 620 1062 m 570 1167 q 469 1203 506 1167 q 432 1292 432 1239 q 469 1381 432 1345 q 570 1417 506 1417 q 672 1381 634 1417 q 709 1292 709 1345 q 672 1203 709 1239 q 570 1167 634 1167 m 570 1204 q 599 1214 588 1204 q 617 1243 611 1224 q 624 1292 624 1263 q 617 1340 624 1320 q 599 1370 611 1360 q 570 1381 588 1381 q 541 1370 553 1381 q 523 1340 529 1360 q 517 1292 517 1320 q 523 1243 517 1263 q 541 1214 529 1224 q 570 1204 553 1204 z "},"Ã":{"ha":1121,"x_min":35,"x_max":1087,"o":"m 285 317 l 285 354 l 725 354 l 725 317 l 285 317 m 620 1062 l 976 36 l 1087 36 l 1087 0 l 606 0 l 606 36 l 726 36 l 474 815 l 202 36 l 342 36 l 342 0 l 35 0 l 35 36 l 160 36 l 522 1062 l 620 1062 m 682 1153 q 607 1169 638 1153 q 550 1208 576 1186 q 497 1245 524 1229 q 438 1262 471 1262 q 385 1241 406 1262 q 365 1181 365 1219 l 328 1181 q 345 1286 328 1240 q 394 1358 363 1332 q 471 1385 426 1385 q 547 1368 516 1385 q 601 1330 577 1351 q 648 1292 625 1308 q 701 1275 672 1275 q 755 1297 735 1275 q 775 1357 775 1319 l 811 1357 q 800 1246 811 1292 q 761 1176 789 1200 q 682 1153 733 1153 z "},"Æ":{"ha":1467,"x_min":20,"x_max":1426,"o":"m 119 0 l 721 1042 l 759 1042 l 163 0 l 119 0 m 20 0 l 20 36 l 327 36 l 327 0 l 20 0 m 333 322 l 341 358 l 743 358 l 743 322 l 333 322 m 604 0 l 604 36 l 1098 36 q 1250 69 1190 36 q 1345 163 1311 101 q 1390 313 1379 224 l 1426 313 l 1426 0 l 604 0 m 729 0 l 729 1042 l 944 1042 l 944 0 l 729 0 m 1160 366 q 1125 447 1150 413 q 1066 501 1101 482 q 993 521 1032 521 l 910 521 l 910 557 l 993 557 q 1066 575 1032 557 q 1125 626 1101 592 q 1160 706 1150 659 l 1197 706 l 1197 366 l 1160 366 m 1376 757 q 1332 887 1365 831 q 1244 974 1299 943 q 1111 1006 1189 1006 l 729 1006 l 729 1042 l 1412 1042 l 1412 757 l 1376 757 z "},"B":{"ha":993,"x_min":35,"x_max":924,"o":"m 35 0 l 35 36 l 494 36 q 594 66 550 36 q 663 152 638 95 q 688 292 688 209 q 663 424 688 374 q 594 494 638 473 q 494 516 550 516 l 341 516 l 341 540 l 535 540 q 732 515 644 540 q 872 432 820 490 q 924 278 924 375 q 822 64 924 127 q 535 0 719 0 l 35 0 m 160 17 l 160 1025 l 376 1025 l 376 17 l 160 17 m 341 529 l 341 553 l 480 553 q 570 573 529 553 q 636 640 611 593 q 660 770 660 688 q 636 905 660 853 q 570 981 611 956 q 480 1006 529 1006 l 35 1006 l 35 1042 l 508 1042 q 782 981 681 1042 q 883 785 883 920 q 788 592 883 655 q 508 529 692 529 l 341 529 z "},"C":{"ha":1019,"x_min":70,"x_max":940,"o":"m 569 -14 q 303 56 415 -14 q 131 246 191 125 q 70 521 70 367 q 131 796 70 676 q 303 986 191 917 q 569 1056 415 1056 q 689 1034 633 1056 q 789 973 744 1012 l 893 1042 l 925 1042 l 925 735 l 888 735 q 817 882 860 820 q 714 977 773 944 q 583 1010 656 1010 q 454 970 506 1010 q 370 860 401 930 q 326 703 340 791 q 313 521 313 616 q 326 339 313 426 q 370 181 340 251 q 454 72 401 112 q 583 31 506 31 q 702 52 651 31 q 790 110 753 73 q 855 198 828 147 q 902 306 883 248 l 940 306 l 940 0 l 907 0 l 810 72 q 703 9 764 32 q 569 -14 642 -14 z "},"Ć":{"ha":1019,"x_min":70,"x_max":940,"o":"m 569 -14 q 303 56 415 -14 q 131 246 191 125 q 70 521 70 367 q 131 796 70 676 q 303 986 191 917 q 569 1056 415 1056 q 689 1034 633 1056 q 789 973 744 1012 l 893 1042 l 925 1042 l 925 735 l 888 735 q 817 882 860 820 q 714 977 773 944 q 583 1010 656 1010 q 454 970 506 1010 q 370 860 401 930 q 326 703 340 791 q 313 521 313 616 q 326 339 313 426 q 370 181 340 251 q 454 72 401 112 q 583 31 506 31 q 702 52 651 31 q 790 110 753 73 q 855 198 828 147 q 902 306 883 248 l 940 306 l 940 0 l 907 0 l 810 72 q 703 9 764 32 q 569 -14 642 -14 m 513 1160 l 493 1185 l 615 1348 q 666 1389 637 1381 q 722 1388 695 1397 q 760 1360 748 1379 q 772 1310 775 1338 q 751 1259 769 1282 q 699 1228 732 1236 l 513 1160 z "},"Č":{"ha":1019,"x_min":70,"x_max":940,"o":"m 569 -14 q 303 56 415 -14 q 131 246 191 125 q 70 521 70 367 q 131 796 70 676 q 303 986 191 917 q 569 1056 415 1056 q 689 1034 633 1056 q 789 973 744 1012 l 893 1042 l 925 1042 l 925 735 l 888 735 q 817 882 860 820 q 714 977 773 944 q 583 1010 656 1010 q 454 970 506 1010 q 370 860 401 930 q 326 703 340 791 q 313 521 313 616 q 326 339 313 426 q 370 181 340 251 q 454 72 401 112 q 583 31 506 31 q 702 52 651 31 q 790 110 753 73 q 855 198 828 147 q 902 306 883 248 l 940 306 l 940 0 l 907 0 l 810 72 q 703 9 764 32 q 569 -14 642 -14 m 512 1181 l 345 1369 l 364 1386 l 571 1278 l 778 1386 l 797 1369 l 630 1181 l 512 1181 z "},"Ç":{"ha":1019,"x_min":70,"x_max":940,"o":"m 569 -14 q 303 56 415 -14 q 131 246 191 125 q 70 521 70 367 q 131 796 70 676 q 303 986 191 917 q 569 1056 415 1056 q 689 1034 633 1056 q 789 973 744 1012 l 893 1042 l 925 1042 l 925 735 l 888 735 q 817 882 860 820 q 714 977 773 944 q 583 1010 656 1010 q 454 970 506 1010 q 370 860 401 930 q 326 703 340 791 q 313 521 313 616 q 326 339 313 426 q 370 181 340 251 q 454 72 401 112 q 583 31 506 31 q 702 52 651 31 q 790 110 753 73 q 855 198 828 147 q 902 306 883 248 l 940 306 l 940 0 l 907 0 l 810 72 q 703 9 764 32 q 569 -14 642 -14 m 451 -353 l 451 -317 q 543 -297 513 -317 q 574 -242 574 -278 q 555 -191 574 -208 q 506 -167 536 -174 q 442 -161 476 -161 l 564 3 l 610 3 l 528 -106 q 636 -119 591 -108 q 704 -155 681 -131 q 728 -218 728 -179 q 702 -284 728 -253 q 617 -334 677 -315 q 451 -353 556 -353 z "},"Ĉ":{"ha":1019,"x_min":70,"x_max":940,"o":"m 569 -14 q 303 56 415 -14 q 131 246 191 125 q 70 521 70 367 q 131 796 70 676 q 303 986 191 917 q 569 1056 415 1056 q 689 1034 633 1056 q 789 973 744 1012 l 893 1042 l 925 1042 l 925 735 l 888 735 q 817 882 860 820 q 714 977 773 944 q 583 1010 656 1010 q 454 970 506 1010 q 370 860 401 930 q 326 703 340 791 q 313 521 313 616 q 326 339 313 426 q 370 181 340 251 q 454 72 401 112 q 583 31 506 31 q 702 52 651 31 q 790 110 753 73 q 855 198 828 147 q 902 306 883 248 l 940 306 l 940 0 l 907 0 l 810 72 q 703 9 764 32 q 569 -14 642 -14 m 363 1174 l 345 1192 l 512 1380 l 630 1380 l 797 1192 l 778 1174 l 570 1283 l 363 1174 z "},"Ċ":{"ha":1019,"x_min":70,"x_max":940,"o":"m 569 -14 q 303 56 415 -14 q 131 246 191 125 q 70 521 70 367 q 131 796 70 676 q 303 986 191 917 q 569 1056 415 1056 q 689 1034 633 1056 q 789 973 744 1012 l 893 1042 l 925 1042 l 925 735 l 888 735 q 817 882 860 820 q 714 977 773 944 q 583 1010 656 1010 q 454 970 506 1010 q 370 860 401 930 q 326 703 340 791 q 313 521 313 616 q 326 339 313 426 q 370 181 340 251 q 454 72 401 112 q 583 31 506 31 q 702 52 651 31 q 790 110 753 73 q 855 198 828 147 q 902 306 883 248 l 940 306 l 940 0 l 907 0 l 810 72 q 703 9 764 32 q 569 -14 642 -14 m 570 1219 q 487 1254 521 1219 q 453 1338 453 1288 q 487 1422 453 1388 q 570 1456 521 1456 q 655 1422 621 1456 q 689 1338 689 1388 q 655 1254 689 1288 q 570 1219 621 1219 z "},"D":{"ha":1076,"x_min":35,"x_max":1008,"o":"m 480 1042 q 763 976 645 1042 q 944 793 881 910 q 1008 521 1008 676 q 970 309 1008 405 q 862 144 932 214 q 695 38 792 75 q 480 0 599 0 l 35 0 l 35 36 l 160 36 l 160 1006 l 35 1006 l 35 1042 l 480 1042 m 376 36 l 480 36 q 615 73 560 36 q 702 176 669 110 q 750 330 735 242 q 765 521 765 418 q 748 711 765 624 q 697 866 732 799 q 609 969 663 932 q 480 1006 555 1006 l 376 1006 l 376 36 z "},"Ď":{"ha":1076,"x_min":35,"x_max":1008,"o":"m 480 1042 q 763 976 645 1042 q 944 793 881 910 q 1008 521 1008 676 q 970 309 1008 405 q 862 144 932 214 q 695 38 792 75 q 480 0 599 0 l 35 0 l 35 36 l 160 36 l 160 1006 l 35 1006 l 35 1042 l 480 1042 m 376 36 l 480 36 q 615 73 560 36 q 702 176 669 110 q 750 330 735 242 q 765 521 765 418 q 748 711 765 624 q 697 866 732 799 q 609 969 663 932 q 480 1006 555 1006 l 376 1006 l 376 36 m 415 1181 l 249 1369 l 267 1386 l 474 1278 l 681 1386 l 700 1369 l 533 1181 l 415 1181 z "},"Đ":{"ha":1076,"x_min":35,"x_max":1008,"o":"m 42 503 l 42 539 l 550 539 l 550 503 l 42 503 m 480 1042 q 763 976 645 1042 q 944 793 881 910 q 1008 521 1008 676 q 970 309 1008 405 q 862 144 932 214 q 695 38 792 75 q 480 0 599 0 l 35 0 l 35 36 l 160 36 l 160 1006 l 35 1006 l 35 1042 l 480 1042 m 376 36 l 480 36 q 615 73 560 36 q 702 176 669 110 q 750 330 735 242 q 765 521 765 418 q 748 711 765 624 q 697 866 732 799 q 609 969 663 932 q 480 1006 555 1006 l 376 1006 l 376 36 z "},"Ð":{"ha":1076,"x_min":35,"x_max":1008,"o":"m 42 503 l 42 539 l 550 539 l 550 503 l 42 503 m 480 1042 q 763 976 645 1042 q 944 793 881 910 q 1008 521 1008 676 q 970 309 1008 405 q 862 144 932 214 q 695 38 792 75 q 480 0 599 0 l 35 0 l 35 36 l 160 36 l 160 1006 l 35 1006 l 35 1042 l 480 1042 m 376 36 l 480 36 q 615 73 560 36 q 702 176 669 110 q 750 330 735 242 q 765 521 765 418 q 748 711 765 624 q 697 866 732 799 q 609 969 663 932 q 480 1006 555 1006 l 376 1006 l 376 36 z "},"E":{"ha":903,"x_min":35,"x_max":849,"o":"m 35 0 l 35 36 l 160 36 l 160 1006 l 35 1006 l 35 1042 l 835 1042 l 835 757 l 799 757 q 755 887 788 831 q 666 974 722 943 q 528 1006 609 1006 l 376 1006 l 376 36 l 514 36 q 671 69 608 36 q 768 163 733 101 q 813 313 802 224 l 849 313 l 849 0 l 35 0 m 583 366 q 548 447 572 413 q 490 501 524 482 q 416 521 456 521 l 350 521 l 350 557 l 416 557 q 490 575 456 557 q 548 626 524 592 q 583 706 572 659 l 620 706 l 620 366 l 583 366 z "},"É":{"ha":903,"x_min":35,"x_max":849,"o":"m 35 0 l 35 36 l 160 36 l 160 1006 l 35 1006 l 35 1042 l 835 1042 l 835 757 l 799 757 q 755 887 788 831 q 666 974 722 943 q 528 1006 609 1006 l 376 1006 l 376 36 l 514 36 q 671 69 608 36 q 768 163 733 101 q 813 313 802 224 l 849 313 l 849 0 l 35 0 m 583 366 q 548 447 572 413 q 490 501 524 482 q 416 521 456 521 l 350 521 l 350 557 l 416 557 q 490 575 456 557 q 548 626 524 592 q 583 706 572 659 l 620 706 l 620 366 l 583 366 m 416 1160 l 397 1185 l 519 1348 q 569 1389 540 1381 q 625 1388 599 1397 q 664 1360 651 1379 q 676 1310 678 1338 q 654 1259 673 1282 q 602 1228 635 1236 l 416 1160 z "},"Ĕ":{"ha":903,"x_min":35,"x_max":849,"o":"m 35 0 l 35 36 l 160 36 l 160 1006 l 35 1006 l 35 1042 l 835 1042 l 835 757 l 799 757 q 755 887 788 831 q 666 974 722 943 q 528 1006 609 1006 l 376 1006 l 376 36 l 514 36 q 671 69 608 36 q 768 163 733 101 q 813 313 802 224 l 849 313 l 849 0 l 35 0 m 583 366 q 548 447 572 413 q 490 501 524 482 q 416 521 456 521 l 350 521 l 350 557 l 416 557 q 490 575 456 557 q 548 626 524 592 q 583 706 572 659 l 620 706 l 620 366 l 583 366 m 474 1167 q 378 1194 415 1167 q 324 1271 341 1222 q 308 1388 308 1321 l 335 1388 q 355 1336 335 1356 q 405 1307 374 1316 q 474 1299 436 1299 q 543 1307 511 1299 q 593 1336 574 1316 q 612 1388 612 1356 l 640 1388 q 623 1271 640 1321 q 569 1194 606 1222 q 474 1167 533 1167 z "},"Ě":{"ha":903,"x_min":35,"x_max":849,"o":"m 35 0 l 35 36 l 160 36 l 160 1006 l 35 1006 l 35 1042 l 835 1042 l 835 757 l 799 757 q 755 887 788 831 q 666 974 722 943 q 528 1006 609 1006 l 376 1006 l 376 36 l 514 36 q 671 69 608 36 q 768 163 733 101 q 813 313 802 224 l 849 313 l 849 0 l 35 0 m 583 366 q 548 447 572 413 q 490 501 524 482 q 416 521 456 521 l 350 521 l 350 557 l 416 557 q 490 575 456 557 q 548 626 524 592 q 583 706 572 659 l 620 706 l 620 366 l 583 366 m 415 1181 l 249 1369 l 267 1386 l 474 1278 l 681 1386 l 700 1369 l 533 1181 l 415 1181 z "},"Ê":{"ha":903,"x_min":35,"x_max":849,"o":"m 35 0 l 35 36 l 160 36 l 160 1006 l 35 1006 l 35 1042 l 835 1042 l 835 757 l 799 757 q 755 887 788 831 q 666 974 722 943 q 528 1006 609 1006 l 376 1006 l 376 36 l 514 36 q 671 69 608 36 q 768 163 733 101 q 813 313 802 224 l 849 313 l 849 0 l 35 0 m 583 366 q 548 447 572 413 q 490 501 524 482 q 416 521 456 521 l 350 521 l 350 557 l 416 557 q 490 575 456 557 q 548 626 524 592 q 583 706 572 659 l 620 706 l 620 366 l 583 366 m 267 1174 l 249 1192 l 415 1380 l 533 1380 l 700 1192 l 681 1174 l 474 1283 l 267 1174 z "},"Ë":{"ha":903,"x_min":35,"x_max":849,"o":"m 35 0 l 35 36 l 160 36 l 160 1006 l 35 1006 l 35 1042 l 835 1042 l 835 757 l 799 757 q 755 887 788 831 q 666 974 722 943 q 528 1006 609 1006 l 376 1006 l 376 36 l 514 36 q 671 69 608 36 q 768 163 733 101 q 813 313 802 224 l 849 313 l 849 0 l 35 0 m 583 366 q 548 447 572 413 q 490 501 524 482 q 416 521 456 521 l 350 521 l 350 557 l 416 557 q 490 575 456 557 q 548 626 524 592 q 583 706 572 659 l 620 706 l 620 366 l 583 366 m 603 1170 q 547 1194 570 1170 q 523 1250 523 1217 q 547 1307 523 1283 q 603 1331 570 1331 q 660 1307 636 1331 q 683 1250 683 1283 q 660 1194 683 1217 q 603 1170 636 1170 m 343 1170 q 287 1194 310 1170 q 263 1250 263 1217 q 287 1307 263 1283 q 343 1331 310 1331 q 400 1307 376 1331 q 424 1250 424 1283 q 400 1194 424 1217 q 343 1170 376 1170 z "},"Ė":{"ha":903,"x_min":35,"x_max":849,"o":"m 35 0 l 35 36 l 160 36 l 160 1006 l 35 1006 l 35 1042 l 835 1042 l 835 757 l 799 757 q 755 887 788 831 q 666 974 722 943 q 528 1006 609 1006 l 376 1006 l 376 36 l 514 36 q 671 69 608 36 q 768 163 733 101 q 813 313 802 224 l 849 313 l 849 0 l 35 0 m 583 366 q 548 447 572 413 q 490 501 524 482 q 416 521 456 521 l 350 521 l 350 557 l 416 557 q 490 575 456 557 q 548 626 524 592 q 583 706 572 659 l 620 706 l 620 366 l 583 366 m 474 1219 q 390 1254 424 1219 q 356 1338 356 1288 q 390 1422 356 1388 q 474 1456 424 1456 q 558 1422 524 1456 q 592 1338 592 1388 q 558 1254 592 1288 q 474 1219 524 1219 z "},"È":{"ha":903,"x_min":35,"x_max":849,"o":"m 35 0 l 35 36 l 160 36 l 160 1006 l 35 1006 l 35 1042 l 835 1042 l 835 757 l 799 757 q 755 887 788 831 q 666 974 722 943 q 528 1006 609 1006 l 376 1006 l 376 36 l 514 36 q 671 69 608 36 q 768 163 733 101 q 813 313 802 224 l 849 313 l 849 0 l 35 0 m 583 366 q 548 447 572 413 q 490 501 524 482 q 416 521 456 521 l 350 521 l 350 557 l 416 557 q 490 575 456 557 q 548 626 524 592 q 583 706 572 659 l 620 706 l 620 366 l 583 366 m 529 1160 l 343 1228 q 291 1259 310 1236 q 270 1310 272 1282 q 282 1360 267 1338 q 320 1388 294 1379 q 376 1389 347 1397 q 426 1348 406 1381 l 549 1185 l 529 1160 z "},"Ē":{"ha":903,"x_min":35,"x_max":849,"o":"m 35 0 l 35 36 l 160 36 l 160 1006 l 35 1006 l 35 1042 l 835 1042 l 835 757 l 799 757 q 755 887 788 831 q 666 974 722 943 q 528 1006 609 1006 l 376 1006 l 376 36 l 514 36 q 671 69 608 36 q 768 163 733 101 q 813 313 802 224 l 849 313 l 849 0 l 35 0 m 583 366 q 548 447 572 413 q 490 501 524 482 q 416 521 456 521 l 350 521 l 350 557 l 416 557 q 490 575 456 557 q 548 626 524 592 q 583 706 572 659 l 620 706 l 620 366 l 583 366 m 307 1181 l 307 1217 l 640 1217 l 640 1181 l 307 1181 z "},"Ę":{"ha":903,"x_min":35,"x_max":849,"o":"m 35 0 l 35 36 l 160 36 l 160 1006 l 35 1006 l 35 1042 l 835 1042 l 835 757 l 799 757 q 755 887 788 831 q 666 974 722 943 q 528 1006 609 1006 l 376 1006 l 376 36 l 514 36 q 671 69 608 36 q 768 163 733 101 q 813 313 802 224 l 849 313 l 849 0 l 35 0 m 583 366 q 548 447 572 413 q 490 501 524 482 q 416 521 456 521 l 350 521 l 350 557 l 416 557 q 490 575 456 557 q 548 626 524 592 q 583 706 572 659 l 620 706 l 620 366 l 583 366 m 663 -310 q 578 -297 617 -310 q 515 -258 539 -285 q 492 -190 492 -232 q 514 -114 492 -149 q 572 -51 535 -79 q 650 -3 608 -23 q 731 29 692 17 l 742 6 q 712 -24 727 -2 q 687 -79 697 -47 q 676 -152 676 -112 q 693 -224 676 -199 q 738 -249 709 -249 q 780 -233 764 -249 q 808 -194 796 -217 l 835 -209 q 808 -252 826 -228 q 756 -293 790 -276 q 663 -310 722 -310 z "},"F":{"ha":869,"x_min":35,"x_max":815,"o":"m 583 344 q 551 426 573 391 q 492 480 528 461 q 402 499 456 499 l 312 499 l 312 537 l 402 537 q 492 554 456 537 q 551 605 528 572 q 583 684 573 638 l 620 684 l 620 344 l 583 344 m 815 1042 l 815 757 l 777 757 q 738 887 767 831 q 657 974 708 943 q 527 1006 605 1006 l 376 1006 l 376 36 l 515 36 l 515 0 l 35 0 l 35 36 l 160 36 l 160 1006 l 35 1006 l 35 1042 l 815 1042 z "},"G":{"ha":1076,"x_min":70,"x_max":1049,"o":"m 604 415 l 1049 415 l 1049 376 l 979 376 l 979 215 q 908 140 946 180 q 822 66 869 101 q 711 8 774 31 q 563 -14 648 -14 q 298 52 408 -14 q 129 239 188 119 q 70 521 70 360 q 110 741 70 642 q 221 909 150 839 q 385 1018 292 980 q 583 1056 478 1056 q 700 1035 643 1056 q 804 979 757 1015 l 921 1042 l 953 1042 l 953 735 l 916 735 q 876 839 903 790 q 808 927 849 888 q 716 988 767 966 q 603 1010 664 1010 q 470 970 526 1010 q 381 860 415 930 q 329 703 346 791 q 313 521 313 615 q 324 337 313 426 q 363 177 335 248 q 439 64 390 106 q 563 22 488 22 q 639 37 607 22 q 693 76 671 52 q 729 126 715 99 q 751 174 743 152 l 751 376 l 604 376 l 604 415 z "},"Ğ":{"ha":1076,"x_min":70,"x_max":1049,"o":"m 604 415 l 1049 415 l 1049 376 l 979 376 l 979 215 q 908 140 946 180 q 822 66 869 101 q 711 8 774 31 q 563 -14 648 -14 q 298 52 408 -14 q 129 239 188 119 q 70 521 70 360 q 110 741 70 642 q 221 909 150 839 q 385 1018 292 980 q 583 1056 478 1056 q 700 1035 643 1056 q 804 979 757 1015 l 921 1042 l 953 1042 l 953 735 l 916 735 q 876 839 903 790 q 808 927 849 888 q 716 988 767 966 q 603 1010 664 1010 q 470 970 526 1010 q 381 860 415 930 q 329 703 346 791 q 313 521 313 615 q 324 337 313 426 q 363 177 335 248 q 439 64 390 106 q 563 22 488 22 q 639 37 607 22 q 693 76 671 52 q 729 126 715 99 q 751 174 743 152 l 751 376 l 604 376 l 604 415 m 584 1167 q 488 1194 525 1167 q 435 1271 451 1222 q 418 1388 418 1321 l 446 1388 q 465 1336 446 1356 q 515 1307 484 1316 q 584 1299 547 1299 q 653 1307 622 1299 q 703 1336 685 1316 q 722 1388 722 1356 l 751 1388 q 734 1271 751 1321 q 680 1194 717 1222 q 584 1167 643 1167 z "},"Ĝ":{"ha":1076,"x_min":70,"x_max":1049,"o":"m 604 415 l 1049 415 l 1049 376 l 979 376 l 979 215 q 908 140 946 180 q 822 66 869 101 q 711 8 774 31 q 563 -14 648 -14 q 298 52 408 -14 q 129 239 188 119 q 70 521 70 360 q 110 741 70 642 q 221 909 150 839 q 385 1018 292 980 q 583 1056 478 1056 q 700 1035 643 1056 q 804 979 757 1015 l 921 1042 l 953 1042 l 953 735 l 916 735 q 876 839 903 790 q 808 927 849 888 q 716 988 767 966 q 603 1010 664 1010 q 470 970 526 1010 q 381 860 415 930 q 329 703 346 791 q 313 521 313 615 q 324 337 313 426 q 363 177 335 248 q 439 64 390 106 q 563 22 488 22 q 639 37 607 22 q 693 76 671 52 q 729 126 715 99 q 751 174 743 152 l 751 376 l 604 376 l 604 415 m 376 1174 l 358 1192 l 525 1380 l 643 1380 l 810 1192 l 791 1174 l 583 1283 l 376 1174 z "},"Ģ":{"ha":1076,"x_min":70,"x_max":1049,"o":"m 604 415 l 1049 415 l 1049 376 l 979 376 l 979 215 q 908 140 946 180 q 822 66 869 101 q 711 8 774 31 q 563 -14 648 -14 q 298 52 408 -14 q 129 239 188 119 q 70 521 70 360 q 110 741 70 642 q 221 909 150 839 q 385 1018 292 980 q 583 1056 478 1056 q 700 1035 643 1056 q 804 979 757 1015 l 921 1042 l 953 1042 l 953 735 l 916 735 q 876 839 903 790 q 808 927 849 888 q 716 988 767 966 q 603 1010 664 1010 q 470 970 526 1010 q 381 860 415 930 q 329 703 346 791 q 313 521 313 615 q 324 337 313 426 q 363 177 335 248 q 439 64 390 106 q 563 22 488 22 q 639 37 607 22 q 693 76 671 52 q 729 126 715 99 q 751 174 743 152 l 751 376 l 604 376 l 604 415 m 458 -492 l 458 -461 q 556 -437 512 -461 q 626 -367 601 -412 q 646 -256 651 -321 l 656 -256 q 643 -290 656 -272 q 608 -319 630 -307 q 560 -331 586 -331 q 486 -301 512 -331 q 460 -232 460 -272 q 474 -182 460 -205 q 514 -146 489 -160 q 567 -133 538 -133 q 645 -169 613 -133 q 678 -272 678 -206 q 652 -383 678 -333 q 575 -462 625 -433 q 458 -492 526 -492 z "},"Ġ":{"ha":1076,"x_min":70,"x_max":1049,"o":"m 604 415 l 1049 415 l 1049 376 l 979 376 l 979 215 q 908 140 946 180 q 822 66 869 101 q 711 8 774 31 q 563 -14 648 -14 q 298 52 408 -14 q 129 239 188 119 q 70 521 70 360 q 110 741 70 642 q 221 909 150 839 q 385 1018 292 980 q 583 1056 478 1056 q 700 1035 643 1056 q 804 979 757 1015 l 921 1042 l 953 1042 l 953 735 l 916 735 q 876 839 903 790 q 808 927 849 888 q 716 988 767 966 q 603 1010 664 1010 q 470 970 526 1010 q 381 860 415 930 q 329 703 346 791 q 313 521 313 615 q 324 337 313 426 q 363 177 335 248 q 439 64 390 106 q 563 22 488 22 q 639 37 607 22 q 693 76 671 52 q 729 126 715 99 q 751 174 743 152 l 751 376 l 604 376 l 604 415 m 583 1219 q 500 1254 534 1219 q 466 1338 466 1288 q 500 1422 466 1388 q 583 1456 534 1456 q 668 1422 634 1456 q 702 1338 702 1388 q 668 1254 702 1288 q 583 1219 634 1219 z "},"H":{"ha":1126,"x_min":35,"x_max":1091,"o":"m 1091 1042 l 1091 1006 l 966 1006 l 966 36 l 1091 36 l 1091 0 l 626 0 l 626 36 l 751 36 l 751 496 l 376 496 l 376 36 l 501 36 l 501 0 l 35 0 l 35 36 l 160 36 l 160 1006 l 35 1006 l 35 1042 l 501 1042 l 501 1006 l 376 1006 l 376 532 l 751 532 l 751 1006 l 626 1006 l 626 1042 l 1091 1042 z "},"Ħ":{"ha":1126,"x_min":35,"x_max":1091,"o":"m 35 765 l 35 801 l 1091 801 l 1091 765 l 35 765 m 1091 1042 l 1091 1006 l 966 1006 l 966 36 l 1091 36 l 1091 0 l 626 0 l 626 36 l 751 36 l 751 496 l 376 496 l 376 36 l 501 36 l 501 0 l 35 0 l 35 36 l 160 36 l 160 1006 l 35 1006 l 35 1042 l 501 1042 l 501 1006 l 376 1006 l 376 532 l 751 532 l 751 1006 l 626 1006 l 626 1042 l 1091 1042 z "},"Ĥ":{"ha":1126,"x_min":35,"x_max":1091,"o":"m 1091 1042 l 1091 1006 l 966 1006 l 966 36 l 1091 36 l 1091 0 l 626 0 l 626 36 l 751 36 l 751 496 l 376 496 l 376 36 l 501 36 l 501 0 l 35 0 l 35 36 l 160 36 l 160 1006 l 35 1006 l 35 1042 l 501 1042 l 501 1006 l 376 1006 l 376 532 l 751 532 l 751 1006 l 626 1006 l 626 1042 l 1091 1042 m 356 1174 l 338 1192 l 505 1380 l 623 1380 l 790 1192 l 771 1174 l 563 1283 l 356 1174 z "},"I":{"ha":605,"x_min":35,"x_max":570,"o":"m 35 0 l 35 36 l 188 36 l 188 1006 l 35 1006 l 35 1042 l 570 1042 l 570 1006 l 403 1006 l 403 36 l 570 36 l 570 0 l 35 0 z "},"Ĳ":{"ha":1352,"x_min":35,"x_max":1305,"o":"m 35 0 l 35 36 l 188 36 l 188 1006 l 35 1006 l 35 1042 l 570 1042 l 570 1006 l 403 1006 l 403 36 l 570 36 l 570 0 l 35 0 m 1305 1042 l 1305 1005 l 1166 1005 l 1166 236 q 1119 138 1147 187 q 1053 48 1092 88 q 964 -18 1015 7 q 843 -42 912 -42 q 718 -18 772 -42 q 633 47 664 6 q 602 141 602 89 q 619 210 602 181 q 665 255 637 239 q 726 271 694 271 q 785 257 756 271 q 832 216 813 243 q 850 150 850 189 q 831 84 850 111 q 782 45 813 58 q 718 34 752 32 q 697 44 707 35 q 685 66 688 53 q 719 29 698 44 q 767 5 740 13 q 821 -3 793 -3 q 903 23 875 -3 q 941 108 931 49 q 951 264 951 167 l 951 1005 l 771 1005 l 771 1042 l 1305 1042 z "},"Í":{"ha":605,"x_min":35,"x_max":570,"o":"m 35 0 l 35 36 l 188 36 l 188 1006 l 35 1006 l 35 1042 l 570 1042 l 570 1006 l 403 1006 l 403 36 l 570 36 l 570 0 l 35 0 m 239 1160 l 219 1185 l 342 1348 q 392 1389 363 1381 q 448 1388 422 1397 q 487 1360 474 1379 q 499 1310 501 1338 q 477 1259 496 1282 q 425 1228 458 1236 l 239 1160 z "},"Ĭ":{"ha":605,"x_min":35,"x_max":570,"o":"m 35 0 l 35 36 l 188 36 l 188 1006 l 35 1006 l 35 1042 l 570 1042 l 570 1006 l 403 1006 l 403 36 l 570 36 l 570 0 l 35 0 m 297 1167 q 201 1194 238 1167 q 147 1271 164 1222 q 131 1388 131 1321 l 158 1388 q 177 1336 158 1356 q 228 1307 197 1316 q 297 1299 259 1299 q 366 1307 334 1299 q 416 1336 397 1316 q 435 1388 435 1356 l 463 1388 q 446 1271 463 1321 q 392 1194 429 1222 q 297 1167 356 1167 z "},"Î":{"ha":605,"x_min":35,"x_max":570,"o":"m 35 0 l 35 36 l 188 36 l 188 1006 l 35 1006 l 35 1042 l 570 1042 l 570 1006 l 403 1006 l 403 36 l 570 36 l 570 0 l 35 0 m 89 1174 l 71 1192 l 238 1380 l 356 1380 l 522 1192 l 503 1174 l 296 1283 l 89 1174 z "},"Ï":{"ha":605,"x_min":35,"x_max":570,"o":"m 35 0 l 35 36 l 188 36 l 188 1006 l 35 1006 l 35 1042 l 570 1042 l 570 1006 l 403 1006 l 403 36 l 570 36 l 570 0 l 35 0 m 426 1170 q 369 1194 393 1170 q 346 1250 346 1217 q 369 1307 346 1283 q 426 1331 393 1331 q 483 1307 459 1331 q 506 1250 506 1283 q 483 1194 506 1217 q 426 1170 459 1170 m 166 1170 q 110 1194 133 1170 q 86 1250 86 1217 q 110 1307 86 1283 q 166 1331 133 1331 q 223 1307 199 1331 q 247 1250 247 1283 q 223 1194 247 1217 q 166 1170 199 1170 z "},"İ":{"ha":605,"x_min":35,"x_max":570,"o":"m 35 0 l 35 36 l 188 36 l 188 1006 l 35 1006 l 35 1042 l 570 1042 l 570 1006 l 403 1006 l 403 36 l 570 36 l 570 0 l 35 0 m 296 1219 q 213 1254 247 1219 q 178 1338 178 1288 q 213 1422 178 1388 q 296 1456 247 1456 q 381 1422 347 1456 q 415 1338 415 1388 q 381 1254 415 1288 q 296 1219 347 1219 z "},"Ì":{"ha":605,"x_min":35,"x_max":570,"o":"m 35 0 l 35 36 l 188 36 l 188 1006 l 35 1006 l 35 1042 l 570 1042 l 570 1006 l 403 1006 l 403 36 l 570 36 l 570 0 l 35 0 m 352 1160 l 166 1228 q 114 1259 133 1236 q 93 1310 95 1282 q 105 1360 90 1338 q 143 1388 117 1379 q 199 1389 169 1397 q 249 1348 228 1381 l 372 1185 l 352 1160 z "},"Ī":{"ha":605,"x_min":35,"x_max":570,"o":"m 35 0 l 35 36 l 188 36 l 188 1006 l 35 1006 l 35 1042 l 570 1042 l 570 1006 l 403 1006 l 403 36 l 570 36 l 570 0 l 35 0 m 129 1181 l 129 1217 l 463 1217 l 463 1181 l 129 1181 z "},"Į":{"ha":605,"x_min":35,"x_max":570,"o":"m 35 0 l 35 36 l 188 36 l 188 1006 l 35 1006 l 35 1042 l 570 1042 l 570 1006 l 403 1006 l 403 36 l 570 36 l 570 0 l 35 0 m 280 -310 q 195 -297 234 -310 q 133 -258 156 -285 q 109 -190 109 -232 q 131 -114 109 -149 q 189 -51 153 -79 q 267 -3 225 -23 q 349 29 309 17 l 359 6 q 330 -24 344 -2 q 304 -79 315 -47 q 294 -152 294 -112 q 310 -224 294 -199 q 355 -249 326 -249 q 397 -233 381 -249 q 426 -194 413 -217 l 453 -209 q 425 -252 443 -228 q 374 -293 408 -276 q 280 -310 340 -310 z "},"Ĩ":{"ha":605,"x_min":35,"x_max":570,"o":"m 35 0 l 35 36 l 188 36 l 188 1006 l 35 1006 l 35 1042 l 570 1042 l 570 1006 l 403 1006 l 403 36 l 570 36 l 570 0 l 35 0 m 408 1153 q 333 1169 364 1153 q 275 1208 301 1186 q 223 1245 249 1229 q 163 1262 197 1262 q 111 1241 131 1262 q 91 1181 91 1219 l 53 1181 q 71 1286 53 1240 q 120 1358 88 1332 q 197 1385 152 1385 q 272 1368 242 1385 q 327 1330 303 1351 q 374 1292 351 1308 q 427 1275 397 1275 q 481 1297 461 1275 q 501 1357 501 1319 l 537 1357 q 526 1246 537 1292 q 487 1176 515 1200 q 408 1153 459 1153 z "},"J":{"ha":765,"x_min":26,"x_max":728,"o":"m 728 1042 l 728 1005 l 590 1005 l 590 236 q 543 138 570 187 q 477 48 515 88 q 387 -18 439 7 q 267 -42 335 -42 q 142 -18 196 -42 q 57 47 88 6 q 26 141 26 89 q 43 210 26 181 q 89 255 60 239 q 150 271 117 271 q 208 257 180 271 q 255 216 237 243 q 274 150 274 189 q 255 84 274 111 q 206 45 236 58 q 142 34 176 32 q 121 44 131 35 q 109 66 111 53 q 143 29 122 44 q 190 5 164 13 q 244 -3 217 -3 q 327 23 299 -3 q 365 108 355 49 q 375 264 375 167 l 375 1005 l 194 1005 l 194 1042 l 728 1042 z "},"Ĵ":{"ha":765,"x_min":26,"x_max":728,"o":"m 728 1042 l 728 1005 l 590 1005 l 590 236 q 543 138 570 187 q 477 48 515 88 q 387 -18 439 7 q 267 -42 335 -42 q 142 -18 196 -42 q 57 47 88 6 q 26 141 26 89 q 43 210 26 181 q 89 255 60 239 q 150 271 117 271 q 208 257 180 271 q 255 216 237 243 q 274 150 274 189 q 255 84 274 111 q 206 45 236 58 q 142 34 176 32 q 121 44 131 35 q 109 66 111 53 q 143 29 122 44 q 190 5 164 13 q 244 -3 217 -3 q 327 23 299 -3 q 365 108 355 49 q 375 264 375 167 l 375 1005 l 194 1005 l 194 1042 l 728 1042 m 256 1174 l 238 1192 l 405 1380 l 523 1380 l 690 1192 l 671 1174 l 463 1283 l 256 1174 z "},"K":{"ha":1090,"x_min":35,"x_max":1070,"o":"m 212 301 l 813 1006 l 674 1006 l 674 1042 l 1007 1042 l 1007 1006 l 865 1006 l 263 301 l 212 301 m 35 0 l 35 36 l 160 36 l 160 1006 l 35 1006 l 35 1042 l 515 1042 l 515 1006 l 376 1006 l 376 36 l 501 36 l 501 0 l 35 0 m 570 0 l 570 36 l 691 36 l 414 524 l 558 682 l 940 36 l 1070 36 l 1070 0 l 570 0 z "},"Ķ":{"ha":1090,"x_min":35,"x_max":1070,"o":"m 212 301 l 813 1006 l 674 1006 l 674 1042 l 1007 1042 l 1007 1006 l 865 1006 l 263 301 l 212 301 m 35 0 l 35 36 l 160 36 l 160 1006 l 35 1006 l 35 1042 l 515 1042 l 515 1006 l 376 1006 l 376 36 l 501 36 l 501 0 l 35 0 m 570 0 l 570 36 l 691 36 l 414 524 l 558 682 l 940 36 l 1070 36 l 1070 0 l 570 0 m 438 -492 l 438 -461 q 536 -437 492 -461 q 606 -367 581 -412 q 626 -256 631 -321 l 635 -256 q 623 -290 636 -272 q 588 -319 610 -307 q 540 -331 566 -331 q 466 -301 492 -331 q 440 -232 440 -272 q 454 -182 440 -205 q 493 -146 469 -160 q 547 -133 518 -133 q 625 -169 592 -133 q 658 -272 658 -206 q 632 -383 658 -333 q 555 -462 605 -433 q 438 -492 506 -492 z "},"L":{"ha":886,"x_min":35,"x_max":846,"o":"m 35 0 l 35 36 l 160 36 l 160 1006 l 35 1006 l 35 1042 l 501 1042 l 501 1006 l 376 1006 l 376 36 l 510 36 q 640 55 587 36 q 728 108 694 73 q 782 195 763 144 q 809 313 801 247 l 846 313 l 846 0 l 35 0 z "},"Ĺ":{"ha":886,"x_min":35,"x_max":846,"o":"m 35 0 l 35 36 l 160 36 l 160 1006 l 35 1006 l 35 1042 l 501 1042 l 501 1006 l 376 1006 l 376 36 l 510 36 q 640 55 587 36 q 728 108 694 73 q 782 195 763 144 q 809 313 801 247 l 846 313 l 846 0 l 35 0 m 208 1160 l 188 1185 l 310 1348 q 361 1389 332 1381 q 417 1388 390 1397 q 456 1360 443 1379 q 467 1310 470 1338 q 446 1259 465 1282 q 394 1228 427 1236 l 208 1160 z "},"Ľ":{"ha":886,"x_min":35,"x_max":846,"o":"m 35 0 l 35 36 l 160 36 l 160 1006 l 35 1006 l 35 1042 l 501 1042 l 501 1006 l 376 1006 l 376 36 l 510 36 q 640 55 587 36 q 728 108 694 73 q 782 195 763 144 q 809 313 801 247 l 846 313 l 846 0 l 35 0 m 587 685 l 587 717 q 665 731 628 717 q 727 774 701 746 q 767 841 753 801 q 777 930 781 881 l 787 930 q 775 898 788 915 q 740 869 762 881 q 692 857 718 857 q 616 886 642 857 q 590 956 590 916 q 622 1027 590 997 q 699 1056 653 1056 q 778 1019 744 1056 q 812 914 812 981 q 785 799 812 851 q 707 716 758 747 q 587 685 657 685 z "},"Ļ":{"ha":886,"x_min":35,"x_max":846,"o":"m 35 0 l 35 36 l 160 36 l 160 1006 l 35 1006 l 35 1042 l 501 1042 l 501 1006 l 376 1006 l 376 36 l 510 36 q 640 55 587 36 q 728 108 694 73 q 782 195 763 144 q 809 313 801 247 l 846 313 l 846 0 l 35 0 m 351 -492 l 351 -461 q 450 -437 406 -461 q 519 -367 494 -412 q 540 -256 544 -321 l 549 -256 q 537 -290 550 -272 q 502 -319 524 -307 q 454 -331 480 -331 q 380 -301 406 -331 q 353 -232 353 -272 q 368 -182 353 -205 q 407 -146 383 -160 q 461 -133 432 -133 q 539 -169 506 -133 q 572 -272 572 -206 q 545 -383 572 -333 q 469 -462 519 -433 q 351 -492 419 -492 z "},"Ŀ":{"ha":886,"x_min":35,"x_max":846,"o":"m 35 0 l 35 36 l 160 36 l 160 1006 l 35 1006 l 35 1042 l 501 1042 l 501 1006 l 376 1006 l 376 36 l 510 36 q 640 55 587 36 q 728 108 694 73 q 782 195 763 144 q 809 313 801 247 l 846 313 l 846 0 l 35 0 m 720 472 q 657 489 685 472 q 612 535 629 506 q 595 597 595 563 q 612 660 595 631 q 657 706 629 689 q 720 723 685 723 q 783 706 754 723 q 828 660 812 689 q 845 597 845 631 q 828 535 845 563 q 783 489 812 506 q 720 472 754 472 z "},"Ł":{"ha":886,"x_min":35,"x_max":846,"o":"m 42 458 l 42 501 l 592 806 l 592 763 l 42 458 m 35 0 l 35 36 l 160 36 l 160 1006 l 35 1006 l 35 1042 l 501 1042 l 501 1006 l 376 1006 l 376 36 l 510 36 q 640 55 587 36 q 728 108 694 73 q 782 195 763 144 q 809 313 801 247 l 846 313 l 846 0 l 35 0 z "},"M":{"ha":1287,"x_min":35,"x_max":1253,"o":"m 547 -14 l 160 1042 l 377 1042 l 654 292 l 910 1042 l 951 1042 l 589 -14 l 547 -14 m 179 1042 l 179 36 l 279 36 l 279 0 l 42 0 l 42 36 l 140 36 l 140 1006 l 35 1006 l 35 1042 l 179 1042 m 1253 1042 l 1253 1006 l 1155 1006 l 1155 36 l 1253 36 l 1253 0 l 828 0 l 828 36 l 940 36 l 940 1042 l 1253 1042 z "},"N":{"ha":1105,"x_min":35,"x_max":1071,"o":"m 217 1042 l 217 36 l 378 36 l 378 0 l 35 0 l 35 36 l 179 36 l 179 1006 l 35 1006 l 35 1042 l 217 1042 m 1071 1042 l 1071 1006 l 924 1006 l 924 -14 l 873 -14 l 191 1042 l 447 1042 l 887 356 l 887 1006 l 731 1006 l 731 1042 l 1071 1042 z "},"Ń":{"ha":1105,"x_min":35,"x_max":1071,"o":"m 217 1042 l 217 36 l 378 36 l 378 0 l 35 0 l 35 36 l 179 36 l 179 1006 l 35 1006 l 35 1042 l 217 1042 m 1071 1042 l 1071 1006 l 924 1006 l 924 -14 l 873 -14 l 191 1042 l 447 1042 l 887 356 l 887 1006 l 731 1006 l 731 1042 l 1071 1042 m 513 1160 l 493 1185 l 615 1348 q 666 1389 637 1381 q 722 1388 695 1397 q 760 1360 748 1379 q 772 1310 775 1338 q 751 1259 769 1282 q 699 1228 732 1236 l 513 1160 z "},"Ň":{"ha":1105,"x_min":35,"x_max":1071,"o":"m 217 1042 l 217 36 l 378 36 l 378 0 l 35 0 l 35 36 l 179 36 l 179 1006 l 35 1006 l 35 1042 l 217 1042 m 1071 1042 l 1071 1006 l 924 1006 l 924 -14 l 873 -14 l 191 1042 l 447 1042 l 887 356 l 887 1006 l 731 1006 l 731 1042 l 1071 1042 m 511 1181 l 344 1369 l 363 1386 l 570 1278 l 777 1386 l 796 1369 l 629 1181 l 511 1181 z "},"Ņ":{"ha":1105,"x_min":35,"x_max":1071,"o":"m 217 1042 l 217 36 l 378 36 l 378 0 l 35 0 l 35 36 l 179 36 l 179 1006 l 35 1006 l 35 1042 l 217 1042 m 1071 1042 l 1071 1006 l 924 1006 l 924 -14 l 873 -14 l 191 1042 l 447 1042 l 887 356 l 887 1006 l 731 1006 l 731 1042 l 1071 1042 m 426 -492 l 426 -461 q 524 -437 480 -461 q 594 -367 569 -412 q 614 -256 619 -321 l 624 -256 q 611 -290 624 -272 q 576 -319 598 -307 q 528 -331 554 -331 q 454 -301 480 -331 q 428 -232 428 -272 q 442 -182 428 -205 q 482 -146 457 -160 q 535 -133 506 -133 q 614 -169 581 -133 q 647 -272 647 -206 q 620 -383 647 -333 q 543 -462 593 -433 q 426 -492 494 -492 z "},"Ñ":{"ha":1105,"x_min":35,"x_max":1071,"o":"m 217 1042 l 217 36 l 378 36 l 378 0 l 35 0 l 35 36 l 179 36 l 179 1006 l 35 1006 l 35 1042 l 217 1042 m 1071 1042 l 1071 1006 l 924 1006 l 924 -14 l 873 -14 l 191 1042 l 447 1042 l 887 356 l 887 1006 l 731 1006 l 731 1042 l 1071 1042 m 681 1153 q 606 1169 638 1153 q 549 1208 575 1186 q 497 1245 523 1229 q 437 1262 470 1262 q 385 1241 405 1262 q 365 1181 365 1219 l 327 1181 q 344 1286 327 1240 q 394 1358 362 1332 q 470 1385 426 1385 q 546 1368 515 1385 q 600 1330 576 1351 q 648 1292 624 1308 q 701 1275 671 1275 q 755 1297 735 1275 q 774 1357 774 1319 l 810 1357 q 799 1246 810 1292 q 760 1176 788 1200 q 681 1153 733 1153 z "},"Ŋ":{"ha":1090,"x_min":40,"x_max":974,"o":"m 651 -361 q 534 -338 585 -361 q 454 -277 483 -315 q 425 -192 425 -238 q 458 -110 425 -142 q 539 -78 492 -78 q 592 -91 567 -78 q 634 -128 618 -104 q 651 -185 651 -151 q 622 -257 651 -226 q 542 -288 592 -288 q 485 -274 511 -288 q 443 -239 459 -260 q 426 -192 426 -217 l 463 -192 q 489 -259 463 -229 q 555 -308 515 -290 q 640 -326 596 -326 q 718 -296 690 -326 q 759 -215 747 -266 q 776 -101 772 -165 q 779 28 779 -38 l 779 703 q 766 820 779 769 q 728 908 753 872 q 666 964 703 944 q 583 983 629 983 q 474 955 522 983 q 394 880 426 926 q 345 777 362 833 q 328 664 328 721 l 303 664 q 314 761 303 709 q 348 866 324 814 q 411 960 372 917 q 507 1029 450 1003 q 640 1055 564 1055 q 830 1011 757 1055 q 939 894 903 968 q 974 728 974 820 l 973 -16 q 950 -145 973 -83 q 884 -256 926 -208 q 782 -333 841 -305 q 651 -361 724 -361 m 40 0 l 40 37 l 424 37 l 424 0 l 40 0 m 137 0 l 137 1005 l 40 1005 l 40 1042 l 328 1042 l 328 0 l 137 0 z "},"O":{"ha":1083,"x_min":70,"x_max":1014,"o":"m 542 -14 q 344 27 431 -14 q 195 140 256 67 q 102 310 134 213 q 70 521 70 408 q 104 732 70 635 q 200 902 138 829 q 349 1015 263 974 q 542 1056 436 1056 q 735 1015 648 1056 q 884 902 822 974 q 980 732 947 829 q 1014 521 1014 635 q 982 310 1014 408 q 889 140 950 213 q 740 27 828 67 q 542 -14 653 -14 m 542 20 q 660 58 615 20 q 729 163 705 95 q 763 322 753 231 q 772 521 772 413 q 760 720 772 628 q 724 879 749 811 q 654 984 699 947 q 542 1022 610 1022 q 431 984 475 1022 q 360 879 386 947 q 324 720 335 811 q 313 521 313 628 q 322 322 313 413 q 355 163 331 231 q 425 58 379 95 q 542 20 470 20 z "},"Ó":{"ha":1083,"x_min":70,"x_max":1014,"o":"m 542 -14 q 344 27 431 -14 q 195 140 256 67 q 102 310 134 213 q 70 521 70 408 q 104 732 70 635 q 200 902 138 829 q 349 1015 263 974 q 542 1056 436 1056 q 735 1015 648 1056 q 884 902 822 974 q 980 732 947 829 q 1014 521 1014 635 q 982 310 1014 408 q 889 140 950 213 q 740 27 828 67 q 542 -14 653 -14 m 542 20 q 660 58 615 20 q 729 163 705 95 q 763 322 753 231 q 772 521 772 413 q 760 720 772 628 q 724 879 749 811 q 654 984 699 947 q 542 1022 610 1022 q 431 984 475 1022 q 360 879 386 947 q 324 720 335 811 q 313 521 313 628 q 322 322 313 413 q 355 163 331 231 q 425 58 379 95 q 542 20 470 20 m 485 1160 l 465 1185 l 588 1348 q 638 1389 609 1381 q 694 1388 667 1397 q 733 1360 720 1379 q 744 1310 747 1338 q 723 1259 742 1282 q 671 1228 704 1236 l 485 1160 z "},"Ŏ":{"ha":1083,"x_min":70,"x_max":1014,"o":"m 542 -14 q 344 27 431 -14 q 195 140 256 67 q 102 310 134 213 q 70 521 70 408 q 104 732 70 635 q 200 902 138 829 q 349 1015 263 974 q 542 1056 436 1056 q 735 1015 648 1056 q 884 902 822 974 q 980 732 947 829 q 1014 521 1014 635 q 982 310 1014 408 q 889 140 950 213 q 740 27 828 67 q 542 -14 653 -14 m 542 20 q 660 58 615 20 q 729 163 705 95 q 763 322 753 231 q 772 521 772 413 q 760 720 772 628 q 724 879 749 811 q 654 984 699 947 q 542 1022 610 1022 q 431 984 475 1022 q 360 879 386 947 q 324 720 335 811 q 313 521 313 628 q 322 322 313 413 q 355 163 331 231 q 425 58 379 95 q 542 20 470 20 m 542 1167 q 447 1194 483 1167 q 393 1271 410 1222 q 376 1388 376 1321 l 404 1388 q 423 1336 404 1356 q 474 1307 442 1316 q 542 1299 505 1299 q 611 1307 580 1299 q 662 1336 643 1316 q 681 1388 681 1356 l 709 1388 q 692 1271 709 1321 q 638 1194 675 1222 q 542 1167 601 1167 z "},"Ô":{"ha":1083,"x_min":70,"x_max":1014,"o":"m 542 -14 q 344 27 431 -14 q 195 140 256 67 q 102 310 134 213 q 70 521 70 408 q 104 732 70 635 q 200 902 138 829 q 349 1015 263 974 q 542 1056 436 1056 q 735 1015 648 1056 q 884 902 822 974 q 980 732 947 829 q 1014 521 1014 635 q 982 310 1014 408 q 889 140 950 213 q 740 27 828 67 q 542 -14 653 -14 m 542 20 q 660 58 615 20 q 729 163 705 95 q 763 322 753 231 q 772 521 772 413 q 760 720 772 628 q 724 879 749 811 q 654 984 699 947 q 542 1022 610 1022 q 431 984 475 1022 q 360 879 386 947 q 324 720 335 811 q 313 521 313 628 q 322 322 313 413 q 355 163 331 231 q 425 58 379 95 q 542 20 470 20 m 335 1174 l 317 1192 l 484 1380 l 602 1380 l 769 1192 l 750 1174 l 542 1283 l 335 1174 z "},"Ö":{"ha":1083,"x_min":70,"x_max":1014,"o":"m 542 -14 q 344 27 431 -14 q 195 140 256 67 q 102 310 134 213 q 70 521 70 408 q 104 732 70 635 q 200 902 138 829 q 349 1015 263 974 q 542 1056 436 1056 q 735 1015 648 1056 q 884 902 822 974 q 980 732 947 829 q 1014 521 1014 635 q 982 310 1014 408 q 889 140 950 213 q 740 27 828 67 q 542 -14 653 -14 m 542 20 q 660 58 615 20 q 729 163 705 95 q 763 322 753 231 q 772 521 772 413 q 760 720 772 628 q 724 879 749 811 q 654 984 699 947 q 542 1022 610 1022 q 431 984 475 1022 q 360 879 386 947 q 324 720 335 811 q 313 521 313 628 q 322 322 313 413 q 355 163 331 231 q 425 58 379 95 q 542 20 470 20 m 672 1170 q 616 1194 640 1170 q 592 1250 592 1217 q 616 1307 592 1283 q 672 1331 640 1331 q 729 1307 706 1331 q 753 1250 753 1283 q 729 1194 753 1217 q 672 1170 706 1170 m 413 1170 q 356 1194 380 1170 q 333 1250 333 1217 q 356 1307 333 1283 q 413 1331 380 1331 q 469 1307 446 1331 q 493 1250 493 1283 q 469 1194 493 1217 q 413 1170 446 1170 z "},"Ò":{"ha":1083,"x_min":70,"x_max":1014,"o":"m 542 -14 q 344 27 431 -14 q 195 140 256 67 q 102 310 134 213 q 70 521 70 408 q 104 732 70 635 q 200 902 138 829 q 349 1015 263 974 q 542 1056 436 1056 q 735 1015 648 1056 q 884 902 822 974 q 980 732 947 829 q 1014 521 1014 635 q 982 310 1014 408 q 889 140 950 213 q 740 27 828 67 q 542 -14 653 -14 m 542 20 q 660 58 615 20 q 729 163 705 95 q 763 322 753 231 q 772 521 772 413 q 760 720 772 628 q 724 879 749 811 q 654 984 699 947 q 542 1022 610 1022 q 431 984 475 1022 q 360 879 386 947 q 324 720 335 811 q 313 521 313 628 q 322 322 313 413 q 355 163 331 231 q 425 58 379 95 q 542 20 470 20 m 599 1160 l 413 1228 q 361 1259 380 1236 q 339 1310 342 1282 q 351 1360 337 1338 q 390 1388 364 1379 q 445 1389 416 1397 q 496 1348 475 1381 l 618 1185 l 599 1160 z "},"Ő":{"ha":1083,"x_min":70,"x_max":1014,"o":"m 542 -14 q 344 27 431 -14 q 195 140 256 67 q 102 310 134 213 q 70 521 70 408 q 104 732 70 635 q 200 902 138 829 q 349 1015 263 974 q 542 1056 436 1056 q 735 1015 648 1056 q 884 902 822 974 q 980 732 947 829 q 1014 521 1014 635 q 982 310 1014 408 q 889 140 950 213 q 740 27 828 67 q 542 -14 653 -14 m 542 20 q 660 58 615 20 q 729 163 705 95 q 763 322 753 231 q 772 521 772 413 q 760 720 772 628 q 724 879 749 811 q 654 984 699 947 q 542 1022 610 1022 q 431 984 475 1022 q 360 879 386 947 q 324 720 335 811 q 313 521 313 628 q 322 322 313 413 q 355 163 331 231 q 425 58 379 95 q 542 20 470 20 m 324 1160 l 305 1185 l 427 1347 q 478 1388 449 1380 q 533 1387 507 1396 q 572 1359 560 1378 q 584 1309 587 1337 q 563 1258 581 1281 q 510 1227 544 1235 l 324 1160 m 644 1160 l 624 1185 l 747 1347 q 798 1388 769 1380 q 853 1387 826 1396 q 892 1359 879 1378 q 903 1309 906 1337 q 882 1258 901 1281 q 830 1227 864 1235 l 644 1160 z "},"Ō":{"ha":1083,"x_min":70,"x_max":1014,"o":"m 542 -14 q 344 27 431 -14 q 195 140 256 67 q 102 310 134 213 q 70 521 70 408 q 104 732 70 635 q 200 902 138 829 q 349 1015 263 974 q 542 1056 436 1056 q 735 1015 648 1056 q 884 902 822 974 q 980 732 947 829 q 1014 521 1014 635 q 982 310 1014 408 q 889 140 950 213 q 740 27 828 67 q 542 -14 653 -14 m 542 20 q 660 58 615 20 q 729 163 705 95 q 763 322 753 231 q 772 521 772 413 q 760 720 772 628 q 724 879 749 811 q 654 984 699 947 q 542 1022 610 1022 q 431 984 475 1022 q 360 879 386 947 q 324 720 335 811 q 313 521 313 628 q 322 322 313 413 q 355 163 331 231 q 425 58 379 95 q 542 20 470 20 m 376 1181 l 376 1217 l 709 1217 l 709 1181 l 376 1181 z "},"Ø":{"ha":1083,"x_min":70,"x_max":1014,"o":"m 234 -139 l 825 1153 l 861 1153 l 271 -139 l 234 -139 m 542 -14 q 344 27 431 -14 q 195 140 256 67 q 102 310 134 213 q 70 521 70 408 q 104 732 70 635 q 200 902 138 829 q 349 1015 263 974 q 542 1056 436 1056 q 735 1015 648 1056 q 884 902 822 974 q 980 732 947 829 q 1014 521 1014 635 q 982 310 1014 408 q 889 140 950 213 q 740 27 828 67 q 542 -14 653 -14 m 542 20 q 660 58 615 20 q 729 163 705 95 q 763 322 753 231 q 772 521 772 413 q 760 720 772 628 q 724 879 749 811 q 654 984 699 947 q 542 1022 610 1022 q 431 984 475 1022 q 360 879 386 947 q 324 720 335 811 q 313 521 313 628 q 322 322 313 413 q 355 163 331 231 q 425 58 379 95 q 542 20 470 20 z "},"Õ":{"ha":1083,"x_min":70,"x_max":1014,"o":"m 542 -14 q 344 27 431 -14 q 195 140 256 67 q 102 310 134 213 q 70 521 70 408 q 104 732 70 635 q 200 902 138 829 q 349 1015 263 974 q 542 1056 436 1056 q 735 1015 648 1056 q 884 902 822 974 q 980 732 947 829 q 1014 521 1014 635 q 982 310 1014 408 q 889 140 950 213 q 740 27 828 67 q 542 -14 653 -14 m 542 20 q 660 58 615 20 q 729 163 705 95 q 763 322 753 231 q 772 521 772 413 q 760 720 772 628 q 724 879 749 811 q 654 984 699 947 q 542 1022 610 1022 q 431 984 475 1022 q 360 879 386 947 q 324 720 335 811 q 313 521 313 628 q 322 322 313 413 q 355 163 331 231 q 425 58 379 95 q 542 20 470 20 m 654 1153 q 579 1169 610 1153 q 522 1208 548 1186 q 469 1245 496 1229 q 410 1262 443 1262 q 358 1241 378 1262 q 338 1181 338 1219 l 300 1181 q 317 1286 300 1240 q 367 1358 335 1332 q 443 1385 399 1385 q 519 1368 488 1385 q 573 1330 549 1351 q 620 1292 597 1308 q 674 1275 644 1275 q 727 1297 708 1275 q 747 1357 747 1319 l 783 1357 q 772 1246 783 1292 q 733 1176 761 1200 q 654 1153 706 1153 z "},"Œ":{"ha":1397,"x_min":56,"x_max":1342,"o":"m 556 1006 m 299 521 q 313 711 299 624 q 355 866 326 799 q 434 969 385 932 q 556 1006 484 1006 l 528 1042 q 281 976 388 1042 q 115 793 175 910 q 56 521 56 676 q 115 249 56 367 q 281 66 175 132 q 528 0 388 0 l 556 36 q 434 73 484 36 q 355 176 385 110 q 313 330 326 242 q 299 521 299 418 m 528 0 l 528 36 l 653 36 l 653 1006 l 528 1006 l 528 1042 l 1328 1042 l 1328 757 l 1292 757 q 1248 887 1281 831 q 1159 974 1215 943 q 1021 1006 1102 1006 l 869 1006 l 869 36 l 1007 36 q 1164 69 1101 36 q 1261 163 1226 101 q 1306 313 1295 224 l 1342 313 l 1342 0 l 528 0 m 1076 366 q 1041 447 1065 413 q 983 501 1017 482 q 909 521 949 521 l 843 521 l 843 557 l 909 557 q 983 575 949 557 q 1041 626 1017 592 q 1076 706 1065 659 l 1113 706 l 1113 366 l 1076 366 z "},"P":{"ha":960,"x_min":35,"x_max":897,"o":"m 515 1042 q 731 1004 647 1042 q 856 899 815 967 q 897 741 897 831 q 856 584 897 651 q 731 481 815 517 q 515 444 647 444 l 376 444 l 376 36 l 501 36 l 501 0 l 35 0 l 35 36 l 160 36 l 160 1006 l 35 1006 l 35 1042 l 515 1042 m 376 481 l 487 481 q 564 503 531 481 q 618 564 597 526 q 650 648 640 602 q 660 741 660 694 q 650 834 660 788 q 618 919 640 881 q 564 982 597 958 q 487 1006 531 1006 l 376 1006 l 376 481 z "},"Þ":{"ha":930,"x_min":20,"x_max":883,"o":"m 333 250 l 333 288 l 465 288 q 550 309 515 288 q 606 368 584 331 q 636 450 627 405 q 646 541 646 494 q 636 633 646 588 q 606 716 627 678 q 550 775 584 753 q 465 797 515 797 l 333 797 l 333 833 l 514 833 q 792 755 702 833 q 883 542 883 676 q 792 328 883 406 q 514 250 702 250 l 333 250 m 20 0 l 20 36 l 486 36 l 486 0 l 20 0 m 146 0 l 146 1042 l 361 1042 l 361 0 l 146 0 m 20 1006 l 20 1042 l 486 1042 l 486 1006 l 20 1006 z "},"Q":{"ha":1083,"x_min":70,"x_max":1014,"o":"m 819 -347 q 611 -330 690 -347 q 489 -273 531 -313 q 432 -165 447 -233 q 417 6 417 -97 q 539 -3 478 -3 q 660 6 599 -3 q 665 -150 660 -88 q 685 -247 669 -212 q 733 -297 701 -282 q 819 -311 765 -311 l 819 -347 m 542 -14 q 344 27 431 -14 q 195 140 256 67 q 102 310 134 213 q 70 521 70 408 q 104 732 70 635 q 200 902 138 829 q 349 1015 263 974 q 542 1056 436 1056 q 735 1015 648 1056 q 884 902 822 974 q 980 732 947 829 q 1014 521 1014 635 q 982 310 1014 408 q 889 140 950 213 q 740 27 828 67 q 542 -14 653 -14 m 542 20 q 660 58 615 20 q 729 163 705 95 q 763 322 753 231 q 772 521 772 413 q 760 720 772 628 q 724 879 749 811 q 654 984 699 947 q 542 1022 610 1022 q 431 984 475 1022 q 360 879 386 947 q 324 720 335 811 q 313 521 313 628 q 322 322 313 413 q 355 163 331 231 q 425 58 379 95 q 542 20 470 20 z "},"R":{"ha":1056,"x_min":35,"x_max":1028,"o":"m 286 526 l 286 547 l 487 547 q 598 571 553 547 q 666 645 643 594 q 688 778 688 696 q 666 911 688 861 q 598 983 643 960 q 487 1006 553 1006 l 35 1006 l 35 1042 l 522 1042 q 724 1014 637 1042 q 861 927 812 985 q 911 778 911 869 q 865 633 911 688 q 731 551 818 577 q 522 526 644 526 l 286 526 m 35 0 l 35 36 l 528 36 l 528 0 l 35 0 m 174 20 l 174 1022 l 390 1022 l 390 20 l 174 20 m 862 -10 q 750 11 791 -10 q 691 70 710 33 q 666 154 672 108 q 660 250 660 201 q 656 345 660 299 q 637 429 652 392 q 586 489 622 467 q 487 510 551 510 l 286 510 l 286 529 l 598 529 q 749 503 693 529 q 833 432 806 476 q 870 336 861 388 q 880 231 879 283 q 882 134 880 178 q 897 64 884 90 q 946 37 910 37 q 985 41 968 37 q 1016 53 1001 46 l 1028 17 q 967 -1 1012 8 q 862 -10 922 -10 z "},"Ŕ":{"ha":1056,"x_min":35,"x_max":1028,"o":"m 286 526 l 286 547 l 487 547 q 598 571 553 547 q 666 645 643 594 q 688 778 688 696 q 666 911 688 861 q 598 983 643 960 q 487 1006 553 1006 l 35 1006 l 35 1042 l 522 1042 q 724 1014 637 1042 q 861 927 812 985 q 911 778 911 869 q 865 633 911 688 q 731 551 818 577 q 522 526 644 526 l 286 526 m 35 0 l 35 36 l 528 36 l 528 0 l 35 0 m 174 20 l 174 1022 l 390 1022 l 390 20 l 174 20 m 862 -10 q 750 11 791 -10 q 691 70 710 33 q 666 154 672 108 q 660 250 660 201 q 656 345 660 299 q 637 429 652 392 q 586 489 622 467 q 487 510 551 510 l 286 510 l 286 529 l 598 529 q 749 503 693 529 q 833 432 806 476 q 870 336 861 388 q 880 231 879 283 q 882 134 880 178 q 897 64 884 90 q 946 37 910 37 q 985 41 968 37 q 1016 53 1001 46 l 1028 17 q 967 -1 1012 8 q 862 -10 922 -10 m 413 1160 l 394 1185 l 516 1348 q 567 1389 538 1381 q 622 1388 596 1397 q 661 1360 649 1379 q 673 1310 676 1338 q 651 1259 670 1282 q 599 1228 633 1236 l 413 1160 z "},"Ř":{"ha":1056,"x_min":35,"x_max":1028,"o":"m 286 526 l 286 547 l 487 547 q 598 571 553 547 q 666 645 643 594 q 688 778 688 696 q 666 911 688 861 q 598 983 643 960 q 487 1006 553 1006 l 35 1006 l 35 1042 l 522 1042 q 724 1014 637 1042 q 861 927 812 985 q 911 778 911 869 q 865 633 911 688 q 731 551 818 577 q 522 526 644 526 l 286 526 m 35 0 l 35 36 l 528 36 l 528 0 l 35 0 m 174 20 l 174 1022 l 390 1022 l 390 20 l 174 20 m 862 -10 q 750 11 791 -10 q 691 70 710 33 q 666 154 672 108 q 660 250 660 201 q 656 345 660 299 q 637 429 652 392 q 586 489 622 467 q 487 510 551 510 l 286 510 l 286 529 l 598 529 q 749 503 693 529 q 833 432 806 476 q 870 336 861 388 q 880 231 879 283 q 882 134 880 178 q 897 64 884 90 q 946 37 910 37 q 985 41 968 37 q 1016 53 1001 46 l 1028 17 q 967 -1 1012 8 q 862 -10 922 -10 m 413 1181 l 246 1369 l 265 1386 l 472 1278 l 678 1386 l 697 1369 l 531 1181 l 413 1181 z "},"Ŗ":{"ha":1056,"x_min":35,"x_max":1028,"o":"m 286 526 l 286 547 l 487 547 q 598 571 553 547 q 666 645 643 594 q 688 778 688 696 q 666 911 688 861 q 598 983 643 960 q 487 1006 553 1006 l 35 1006 l 35 1042 l 522 1042 q 724 1014 637 1042 q 861 927 812 985 q 911 778 911 869 q 865 633 911 688 q 731 551 818 577 q 522 526 644 526 l 286 526 m 35 0 l 35 36 l 528 36 l 528 0 l 35 0 m 174 20 l 174 1022 l 390 1022 l 390 20 l 174 20 m 862 -10 q 750 11 791 -10 q 691 70 710 33 q 666 154 672 108 q 660 250 660 201 q 656 345 660 299 q 637 429 652 392 q 586 489 622 467 q 487 510 551 510 l 286 510 l 286 529 l 598 529 q 749 503 693 529 q 833 432 806 476 q 870 336 861 388 q 880 231 879 283 q 882 134 880 178 q 897 64 884 90 q 946 37 910 37 q 985 41 968 37 q 1016 53 1001 46 l 1028 17 q 967 -1 1012 8 q 862 -10 922 -10 m 444 -492 l 444 -461 q 542 -437 498 -461 q 612 -367 587 -412 q 632 -256 637 -321 l 642 -256 q 629 -290 642 -272 q 594 -319 616 -307 q 547 -331 572 -331 q 472 -301 498 -331 q 446 -232 446 -272 q 460 -182 446 -205 q 500 -146 475 -160 q 553 -133 524 -133 q 632 -169 599 -133 q 665 -272 665 -206 q 638 -383 665 -333 q 561 -462 611 -433 q 444 -492 512 -492 z "},"Ȓ":{"ha":1056,"x_min":35,"x_max":1028,"o":"m 286 526 l 286 547 l 487 547 q 598 571 553 547 q 666 645 643 594 q 688 778 688 696 q 666 911 688 861 q 598 983 643 960 q 487 1006 553 1006 l 35 1006 l 35 1042 l 522 1042 q 724 1014 637 1042 q 861 927 812 985 q 911 778 911 869 q 865 633 911 688 q 731 551 818 577 q 522 526 644 526 l 286 526 m 35 0 l 35 36 l 528 36 l 528 0 l 35 0 m 174 20 l 174 1022 l 390 1022 l 390 20 l 174 20 m 862 -10 q 750 11 791 -10 q 691 70 710 33 q 666 154 672 108 q 660 250 660 201 q 656 345 660 299 q 637 429 652 392 q 586 489 622 467 q 487 510 551 510 l 286 510 l 286 529 l 598 529 q 749 503 693 529 q 833 432 806 476 q 870 336 861 388 q 880 231 879 283 q 882 134 880 178 q 897 64 884 90 q 946 37 910 37 q 985 41 968 37 q 1016 53 1001 46 l 1028 17 q 967 -1 1012 8 q 862 -10 922 -10 m 306 1167 q 323 1284 306 1234 q 377 1361 340 1333 q 473 1388 414 1388 q 568 1361 532 1388 q 622 1284 605 1333 q 639 1167 639 1234 l 610 1167 q 592 1219 610 1199 q 542 1248 573 1239 q 473 1256 510 1256 q 404 1248 435 1256 q 353 1219 372 1239 q 334 1167 334 1199 l 306 1167 z "},"S":{"ha":845,"x_min":70,"x_max":793,"o":"m 447 -20 q 311 5 370 -20 q 209 71 253 29 l 103 -14 l 70 -14 l 70 313 l 107 313 q 153 206 126 258 q 221 110 181 153 q 313 43 260 68 q 435 17 366 17 q 549 40 501 17 q 623 103 597 62 q 649 199 649 144 q 618 294 649 256 q 539 359 588 332 q 430 411 489 387 q 311 464 370 435 q 202 533 251 492 q 122 632 152 573 q 92 778 92 692 q 135 927 92 865 q 248 1023 178 990 q 401 1056 319 1056 q 516 1036 463 1056 q 611 978 569 1016 l 715 1056 l 746 1056 l 746 742 l 709 742 q 640 889 681 827 q 541 983 598 950 q 413 1016 485 1016 q 285 977 330 1016 q 240 872 240 939 q 269 786 240 822 q 349 724 299 751 q 457 672 398 697 q 575 617 517 647 q 683 545 634 587 q 763 444 733 503 q 793 299 793 384 q 747 130 793 201 q 623 19 701 58 q 447 -20 544 -20 z "},"Ś":{"ha":845,"x_min":70,"x_max":793,"o":"m 447 -20 q 311 5 370 -20 q 209 71 253 29 l 103 -14 l 70 -14 l 70 313 l 107 313 q 153 206 126 258 q 221 110 181 153 q 313 43 260 68 q 435 17 366 17 q 549 40 501 17 q 623 103 597 62 q 649 199 649 144 q 618 294 649 256 q 539 359 588 332 q 430 411 489 387 q 311 464 370 435 q 202 533 251 492 q 122 632 152 573 q 92 778 92 692 q 135 927 92 865 q 248 1023 178 990 q 401 1056 319 1056 q 516 1036 463 1056 q 611 978 569 1016 l 715 1056 l 746 1056 l 746 742 l 709 742 q 640 889 681 827 q 541 983 598 950 q 413 1016 485 1016 q 285 977 330 1016 q 240 872 240 939 q 269 786 240 822 q 349 724 299 751 q 457 672 398 697 q 575 617 517 647 q 683 545 634 587 q 763 444 733 503 q 793 299 793 384 q 747 130 793 201 q 623 19 701 58 q 447 -20 544 -20 m 359 1160 l 340 1185 l 462 1348 q 513 1389 483 1381 q 568 1388 542 1397 q 607 1360 594 1379 q 619 1310 622 1338 q 597 1259 616 1282 q 545 1228 578 1236 l 359 1160 z "},"Š":{"ha":845,"x_min":70,"x_max":793,"o":"m 447 -20 q 311 5 370 -20 q 209 71 253 29 l 103 -14 l 70 -14 l 70 313 l 107 313 q 153 206 126 258 q 221 110 181 153 q 313 43 260 68 q 435 17 366 17 q 549 40 501 17 q 623 103 597 62 q 649 199 649 144 q 618 294 649 256 q 539 359 588 332 q 430 411 489 387 q 311 464 370 435 q 202 533 251 492 q 122 632 152 573 q 92 778 92 692 q 135 927 92 865 q 248 1023 178 990 q 401 1056 319 1056 q 516 1036 463 1056 q 611 978 569 1016 l 715 1056 l 746 1056 l 746 742 l 709 742 q 640 889 681 827 q 541 983 598 950 q 413 1016 485 1016 q 285 977 330 1016 q 240 872 240 939 q 269 786 240 822 q 349 724 299 751 q 457 672 398 697 q 575 617 517 647 q 683 545 634 587 q 763 444 733 503 q 793 299 793 384 q 747 130 793 201 q 623 19 701 58 q 447 -20 544 -20 m 358 1181 l 192 1369 l 210 1386 l 417 1278 l 624 1386 l 643 1369 l 476 1181 l 358 1181 z "},"Ş":{"ha":845,"x_min":70,"x_max":793,"o":"m 447 -20 q 311 5 370 -20 q 209 71 253 29 l 103 -14 l 70 -14 l 70 313 l 107 313 q 153 206 126 258 q 221 110 181 153 q 313 43 260 68 q 435 17 366 17 q 549 40 501 17 q 623 103 597 62 q 649 199 649 144 q 618 294 649 256 q 539 359 588 332 q 430 411 489 387 q 311 464 370 435 q 202 533 251 492 q 122 632 152 573 q 92 778 92 692 q 135 927 92 865 q 248 1023 178 990 q 401 1056 319 1056 q 516 1036 463 1056 q 611 978 569 1016 l 715 1056 l 746 1056 l 746 742 l 709 742 q 640 889 681 827 q 541 983 598 950 q 413 1016 485 1016 q 285 977 330 1016 q 240 872 240 939 q 269 786 240 822 q 349 724 299 751 q 457 672 398 697 q 575 617 517 647 q 683 545 634 587 q 763 444 733 503 q 793 299 793 384 q 747 130 793 201 q 623 19 701 58 q 447 -20 544 -20 m 312 -356 l 312 -319 q 404 -300 374 -319 q 434 -245 434 -281 q 415 -194 434 -211 q 367 -170 397 -176 q 302 -164 337 -164 l 424 1 l 470 1 l 389 -108 q 496 -122 451 -110 q 565 -158 541 -134 q 588 -221 588 -182 q 563 -286 588 -256 q 477 -336 538 -317 q 312 -356 417 -356 z "},"Ŝ":{"ha":845,"x_min":70,"x_max":793,"o":"m 447 -20 q 311 5 370 -20 q 209 71 253 29 l 103 -14 l 70 -14 l 70 313 l 107 313 q 153 206 126 258 q 221 110 181 153 q 313 43 260 68 q 435 17 366 17 q 549 40 501 17 q 623 103 597 62 q 649 199 649 144 q 618 294 649 256 q 539 359 588 332 q 430 411 489 387 q 311 464 370 435 q 202 533 251 492 q 122 632 152 573 q 92 778 92 692 q 135 927 92 865 q 248 1023 178 990 q 401 1056 319 1056 q 516 1036 463 1056 q 611 978 569 1016 l 715 1056 l 746 1056 l 746 742 l 709 742 q 640 889 681 827 q 541 983 598 950 q 413 1016 485 1016 q 285 977 330 1016 q 240 872 240 939 q 269 786 240 822 q 349 724 299 751 q 457 672 398 697 q 575 617 517 647 q 683 545 634 587 q 763 444 733 503 q 793 299 793 384 q 747 130 793 201 q 623 19 701 58 q 447 -20 544 -20 m 210 1174 l 192 1192 l 358 1380 l 476 1380 l 643 1192 l 624 1174 l 417 1283 l 210 1174 z "},"Ș":{"ha":845,"x_min":70,"x_max":793,"o":"m 447 -20 q 311 5 370 -20 q 209 71 253 29 l 103 -14 l 70 -14 l 70 313 l 107 313 q 153 206 126 258 q 221 110 181 153 q 313 43 260 68 q 435 17 366 17 q 549 40 501 17 q 623 103 597 62 q 649 199 649 144 q 618 294 649 256 q 539 359 588 332 q 430 411 489 387 q 311 464 370 435 q 202 533 251 492 q 122 632 152 573 q 92 778 92 692 q 135 927 92 865 q 248 1023 178 990 q 401 1056 319 1056 q 516 1036 463 1056 q 611 978 569 1016 l 715 1056 l 746 1056 l 746 742 l 709 742 q 640 889 681 827 q 541 983 598 950 q 413 1016 485 1016 q 285 977 330 1016 q 240 872 240 939 q 269 786 240 822 q 349 724 299 751 q 457 672 398 697 q 575 617 517 647 q 683 545 634 587 q 763 444 733 503 q 793 299 793 384 q 747 130 793 201 q 623 19 701 58 q 447 -20 544 -20 m 335 -497 l 335 -466 q 433 -442 389 -466 q 503 -372 478 -417 q 523 -260 528 -326 l 533 -260 q 520 -294 533 -277 q 485 -324 507 -312 q 438 -335 463 -335 q 363 -306 389 -335 q 337 -237 337 -276 q 351 -187 337 -210 q 391 -151 366 -165 q 444 -137 415 -137 q 523 -174 490 -137 q 556 -276 556 -211 q 529 -387 556 -337 q 452 -467 502 -437 q 335 -497 403 -497 z "},"ẞ":{"ha":1237,"x_min":20,"x_max":1181,"o":"m 146 0 l 146 613 q 191 807 146 724 q 316 945 235 890 q 503 1028 396 1000 q 733 1056 610 1056 q 923 1031 840 1056 q 1061 972 1006 1006 q 1140 911 1116 938 l 845 538 q 756 560 813 549 q 636 578 699 570 l 953 972 q 862 1004 915 992 q 733 1017 809 1017 q 563 988 633 1017 q 450 905 493 959 q 388 773 407 850 q 368 598 368 695 l 368 0 l 146 0 m 20 0 l 20 36 l 493 36 l 493 0 l 20 0 m 799 -14 q 621 22 692 -14 q 514 111 550 57 q 478 223 478 166 q 513 316 478 279 q 599 352 547 352 q 678 319 647 352 q 710 236 710 287 q 694 180 710 206 q 653 140 678 155 q 597 125 627 125 q 541 140 568 125 q 497 176 514 154 q 480 223 480 199 l 516 223 q 536 146 516 181 q 590 85 556 111 q 667 43 624 58 q 758 28 710 28 q 874 61 831 28 q 936 149 917 93 q 956 278 956 206 q 947 352 956 315 q 918 424 938 390 q 861 484 897 458 q 769 526 824 510 q 636 541 714 541 l 636 578 q 900 555 794 578 q 1067 492 1005 533 q 1155 398 1129 452 q 1181 281 1181 344 q 1150 153 1181 209 q 1064 61 1118 98 q 941 5 1010 24 q 799 -14 873 -14 z "},"T":{"ha":982,"x_min":35,"x_max":947,"o":"m 231 0 l 231 36 l 384 36 l 384 1006 l 301 1006 q 207 984 247 1006 q 140 923 167 963 q 97 829 113 883 q 72 708 81 774 l 35 708 l 35 1042 l 947 1042 l 947 708 l 911 708 q 887 829 903 774 q 844 923 871 883 q 777 984 817 963 q 682 1006 738 1006 l 599 1006 l 599 36 l 752 36 l 752 0 l 231 0 z "},"Ŧ":{"ha":975,"x_min":35,"x_max":947,"o":"m 240 474 l 240 510 l 745 510 l 745 474 l 240 474 m 231 0 l 231 36 l 384 36 l 384 1006 l 301 1006 q 207 984 247 1006 q 140 923 167 963 q 97 829 113 883 q 72 708 81 774 l 35 708 l 35 1042 l 947 1042 l 947 708 l 911 708 q 887 829 903 774 q 844 923 871 883 q 777 984 817 963 q 682 1006 738 1006 l 599 1006 l 599 36 l 752 36 l 752 0 l 231 0 z "},"Ť":{"ha":982,"x_min":35,"x_max":947,"o":"m 231 0 l 231 36 l 384 36 l 384 1006 l 301 1006 q 207 984 247 1006 q 140 923 167 963 q 97 829 113 883 q 72 708 81 774 l 35 708 l 35 1042 l 947 1042 l 947 708 l 911 708 q 887 829 903 774 q 844 923 871 883 q 777 984 817 963 q 682 1006 738 1006 l 599 1006 l 599 36 l 752 36 l 752 0 l 231 0 m 437 1181 l 270 1369 l 289 1386 l 496 1278 l 703 1386 l 722 1369 l 555 1181 l 437 1181 z "},"Ţ":{"ha":982,"x_min":35,"x_max":947,"o":"m 231 0 l 231 36 l 384 36 l 384 1006 l 301 1006 q 207 984 247 1006 q 140 923 167 963 q 97 829 113 883 q 72 708 81 774 l 35 708 l 35 1042 l 947 1042 l 947 708 l 911 708 q 887 829 903 774 q 844 923 871 883 q 777 984 817 963 q 682 1006 738 1006 l 599 1006 l 599 36 l 752 36 l 752 0 l 231 0 m 363 -351 l 363 -315 q 455 -295 425 -315 q 485 -240 485 -276 q 467 -189 485 -206 q 418 -165 448 -172 q 353 -159 388 -159 l 476 6 l 522 6 l 440 -103 q 548 -117 503 -106 q 616 -153 592 -129 q 640 -216 640 -177 q 614 -282 640 -251 q 528 -332 589 -312 q 363 -351 468 -351 z "},"Ț":{"ha":982,"x_min":35,"x_max":947,"o":"m 231 0 l 231 36 l 384 36 l 384 1006 l 301 1006 q 207 984 247 1006 q 140 923 167 963 q 97 829 113 883 q 72 708 81 774 l 35 708 l 35 1042 l 947 1042 l 947 708 l 911 708 q 887 829 903 774 q 844 923 871 883 q 777 984 817 963 q 682 1006 738 1006 l 599 1006 l 599 36 l 752 36 l 752 0 l 231 0 m 386 -492 l 386 -461 q 485 -437 440 -461 q 554 -367 529 -412 q 574 -256 579 -321 l 584 -256 q 572 -290 585 -272 q 536 -319 558 -307 q 489 -331 515 -331 q 414 -301 440 -331 q 388 -232 388 -272 q 403 -182 388 -205 q 442 -146 417 -160 q 496 -133 467 -133 q 574 -169 541 -133 q 607 -272 607 -206 q 580 -383 607 -333 q 504 -462 553 -433 q 386 -492 454 -492 z "},"U":{"ha":1037,"x_min":32,"x_max":999,"o":"m 999 1042 l 999 1006 l 870 1006 l 870 319 q 786 64 870 148 q 532 -20 702 -20 q 247 60 337 -20 q 157 319 157 140 l 157 1006 l 32 1006 l 32 1042 l 512 1042 l 512 1006 l 373 1006 l 373 333 q 381 208 373 265 q 413 112 390 152 q 477 50 435 72 q 587 28 519 28 q 715 56 660 28 q 802 148 771 84 q 833 319 833 212 l 833 1006 l 710 1006 l 710 1042 l 999 1042 z "},"Ú":{"ha":1037,"x_min":32,"x_max":999,"o":"m 999 1042 l 999 1006 l 870 1006 l 870 319 q 786 64 870 148 q 532 -20 702 -20 q 247 60 337 -20 q 157 319 157 140 l 157 1006 l 32 1006 l 32 1042 l 512 1042 l 512 1006 l 373 1006 l 373 333 q 381 208 373 265 q 413 112 390 152 q 477 50 435 72 q 587 28 519 28 q 715 56 660 28 q 802 148 771 84 q 833 319 833 212 l 833 1006 l 710 1006 l 710 1042 l 999 1042 m 511 1160 l 492 1185 l 614 1348 q 665 1389 635 1381 q 720 1388 694 1397 q 759 1360 747 1379 q 771 1310 774 1338 q 749 1259 768 1282 q 697 1228 731 1236 l 511 1160 z "},"Ŭ":{"ha":1037,"x_min":32,"x_max":999,"o":"m 999 1042 l 999 1006 l 870 1006 l 870 319 q 786 64 870 148 q 532 -20 702 -20 q 247 60 337 -20 q 157 319 157 140 l 157 1006 l 32 1006 l 32 1042 l 512 1042 l 512 1006 l 373 1006 l 373 333 q 381 208 373 265 q 413 112 390 152 q 477 50 435 72 q 587 28 519 28 q 715 56 660 28 q 802 148 771 84 q 833 319 833 212 l 833 1006 l 710 1006 l 710 1042 l 999 1042 m 569 1167 q 474 1194 510 1167 q 420 1271 437 1222 q 403 1388 403 1321 l 431 1388 q 450 1336 431 1356 q 501 1307 469 1316 q 569 1299 532 1299 q 639 1307 607 1299 q 689 1336 670 1316 q 708 1388 708 1356 l 736 1388 q 719 1271 736 1321 q 665 1194 702 1222 q 569 1167 628 1167 z "},"Û":{"ha":1037,"x_min":32,"x_max":999,"o":"m 999 1042 l 999 1006 l 870 1006 l 870 319 q 786 64 870 148 q 532 -20 702 -20 q 247 60 337 -20 q 157 319 157 140 l 157 1006 l 32 1006 l 32 1042 l 512 1042 l 512 1006 l 373 1006 l 373 333 q 381 208 373 265 q 413 112 390 152 q 477 50 435 72 q 587 28 519 28 q 715 56 660 28 q 802 148 771 84 q 833 319 833 212 l 833 1006 l 710 1006 l 710 1042 l 999 1042 m 362 1174 l 344 1192 l 510 1380 l 628 1380 l 795 1192 l 776 1174 l 569 1283 l 362 1174 z "},"Ü":{"ha":1037,"x_min":32,"x_max":999,"o":"m 999 1042 l 999 1006 l 870 1006 l 870 319 q 786 64 870 148 q 532 -20 702 -20 q 247 60 337 -20 q 157 319 157 140 l 157 1006 l 32 1006 l 32 1042 l 512 1042 l 512 1006 l 373 1006 l 373 333 q 381 208 373 265 q 413 112 390 152 q 477 50 435 72 q 587 28 519 28 q 715 56 660 28 q 802 148 771 84 q 833 319 833 212 l 833 1006 l 710 1006 l 710 1042 l 999 1042 m 699 1170 q 642 1194 666 1170 q 619 1250 619 1217 q 642 1307 619 1283 q 699 1331 666 1331 q 756 1307 732 1331 q 779 1250 779 1283 q 756 1194 779 1217 q 699 1170 732 1170 m 439 1170 q 383 1194 406 1170 q 359 1250 359 1217 q 383 1307 359 1283 q 439 1331 406 1331 q 496 1307 472 1331 q 519 1250 519 1283 q 496 1194 519 1217 q 439 1170 472 1170 z "},"Ù":{"ha":1037,"x_min":32,"x_max":999,"o":"m 999 1042 l 999 1006 l 870 1006 l 870 319 q 786 64 870 148 q 532 -20 702 -20 q 247 60 337 -20 q 157 319 157 140 l 157 1006 l 32 1006 l 32 1042 l 512 1042 l 512 1006 l 373 1006 l 373 333 q 381 208 373 265 q 413 112 390 152 q 477 50 435 72 q 587 28 519 28 q 715 56 660 28 q 802 148 771 84 q 833 319 833 212 l 833 1006 l 710 1006 l 710 1042 l 999 1042 m 625 1160 l 439 1228 q 387 1259 406 1236 q 366 1310 368 1282 q 378 1360 363 1338 q 416 1388 390 1379 q 472 1389 442 1397 q 522 1348 501 1381 l 644 1185 l 625 1160 z "},"Ű":{"ha":1037,"x_min":32,"x_max":999,"o":"m 999 1042 l 999 1006 l 870 1006 l 870 319 q 786 64 870 148 q 532 -20 702 -20 q 247 60 337 -20 q 157 319 157 140 l 157 1006 l 32 1006 l 32 1042 l 512 1042 l 512 1006 l 373 1006 l 373 333 q 381 208 373 265 q 413 112 390 152 q 477 50 435 72 q 587 28 519 28 q 715 56 660 28 q 802 148 771 84 q 833 319 833 212 l 833 1006 l 710 1006 l 710 1042 l 999 1042 m 351 1160 l 331 1185 l 453 1347 q 505 1388 476 1380 q 560 1387 533 1396 q 599 1359 586 1378 q 610 1309 613 1337 q 589 1258 608 1281 q 537 1227 571 1235 l 351 1160 m 670 1160 l 651 1185 l 773 1347 q 824 1388 795 1380 q 879 1387 853 1396 q 918 1359 906 1378 q 930 1309 933 1337 q 909 1258 927 1281 q 856 1227 890 1235 l 670 1160 z "},"Ū":{"ha":1037,"x_min":32,"x_max":999,"o":"m 999 1042 l 999 1006 l 870 1006 l 870 319 q 786 64 870 148 q 532 -20 702 -20 q 247 60 337 -20 q 157 319 157 140 l 157 1006 l 32 1006 l 32 1042 l 512 1042 l 512 1006 l 373 1006 l 373 333 q 381 208 373 265 q 413 112 390 152 q 477 50 435 72 q 587 28 519 28 q 715 56 660 28 q 802 148 771 84 q 833 319 833 212 l 833 1006 l 710 1006 l 710 1042 l 999 1042 m 402 1181 l 402 1217 l 735 1217 l 735 1181 l 402 1181 z "},"Ų":{"ha":1037,"x_min":32,"x_max":999,"o":"m 999 1042 l 999 1006 l 870 1006 l 870 319 q 786 64 870 148 q 532 -20 702 -20 q 247 60 337 -20 q 157 319 157 140 l 157 1006 l 32 1006 l 32 1042 l 512 1042 l 512 1006 l 373 1006 l 373 333 q 381 208 373 265 q 413 112 390 152 q 477 50 435 72 q 587 28 519 28 q 715 56 660 28 q 802 148 771 84 q 833 319 833 212 l 833 1006 l 710 1006 l 710 1042 l 999 1042 m 614 -310 q 529 -297 568 -310 q 467 -258 490 -285 q 443 -190 443 -232 q 465 -114 443 -149 q 523 -51 487 -79 q 601 -3 559 -23 q 683 29 643 17 l 693 6 q 664 -24 678 -2 q 638 -79 649 -47 q 628 -152 628 -112 q 644 -224 628 -199 q 689 -249 660 -249 q 731 -233 715 -249 q 760 -194 747 -217 l 787 -209 q 759 -252 777 -228 q 708 -293 742 -276 q 614 -310 674 -310 z "},"Ů":{"ha":1037,"x_min":32,"x_max":999,"o":"m 999 1042 l 999 1006 l 870 1006 l 870 319 q 786 64 870 148 q 532 -20 702 -20 q 247 60 337 -20 q 157 319 157 140 l 157 1006 l 32 1006 l 32 1042 l 512 1042 l 512 1006 l 373 1006 l 373 333 q 381 208 373 265 q 413 112 390 152 q 477 50 435 72 q 587 28 519 28 q 715 56 660 28 q 802 148 771 84 q 833 319 833 212 l 833 1006 l 710 1006 l 710 1042 l 999 1042 m 569 1167 q 468 1203 505 1167 q 431 1292 431 1239 q 468 1381 431 1345 q 569 1417 505 1417 q 670 1381 633 1417 q 708 1292 708 1345 q 670 1203 708 1239 q 569 1167 633 1167 m 569 1204 q 598 1214 586 1204 q 616 1243 610 1224 q 622 1292 622 1263 q 616 1340 622 1320 q 598 1370 610 1360 q 569 1381 586 1381 q 540 1370 551 1381 q 522 1340 528 1360 q 515 1292 515 1320 q 522 1243 515 1263 q 540 1214 528 1224 q 569 1204 551 1204 z "},"Ũ":{"ha":1037,"x_min":32,"x_max":999,"o":"m 999 1042 l 999 1006 l 870 1006 l 870 319 q 786 64 870 148 q 532 -20 702 -20 q 247 60 337 -20 q 157 319 157 140 l 157 1006 l 32 1006 l 32 1042 l 512 1042 l 512 1006 l 373 1006 l 373 333 q 381 208 373 265 q 413 112 390 152 q 477 50 435 72 q 587 28 519 28 q 715 56 660 28 q 802 148 771 84 q 833 319 833 212 l 833 1006 l 710 1006 l 710 1042 l 999 1042 m 681 1153 q 606 1169 637 1153 q 548 1208 574 1186 q 496 1245 522 1229 q 436 1262 469 1262 q 384 1241 404 1262 q 364 1181 364 1219 l 326 1181 q 344 1286 326 1240 q 393 1358 361 1332 q 469 1385 425 1385 q 545 1368 515 1385 q 600 1330 576 1351 q 647 1292 624 1308 q 700 1275 670 1275 q 754 1297 734 1275 q 774 1357 774 1319 l 810 1357 q 799 1246 810 1292 q 760 1176 788 1200 q 681 1153 732 1153 z "},"V":{"ha":1125,"x_min":32,"x_max":1093,"o":"m 1093 1042 l 1093 1006 l 971 1006 l 606 -20 l 497 -20 l 142 1006 l 32 1006 l 32 1042 l 532 1042 l 532 1006 l 391 1006 l 648 209 l 929 1006 l 768 1006 l 768 1042 l 1093 1042 z "},"W":{"ha":1565,"x_min":27,"x_max":1540,"o":"m 520 -14 l 150 1006 l 27 1006 l 27 1042 l 1199 1042 l 1199 1006 l 830 1006 l 1103 240 l 1384 1006 l 1261 1006 l 1261 1042 l 1540 1042 l 1540 1006 l 1424 1006 l 1053 -14 l 978 -14 l 606 1006 l 394 1006 l 668 240 l 794 584 l 815 526 l 616 -14 l 520 -14 m 942 637 l 908 660 l 1047 1031 l 1086 1025 l 942 637 z "},"Ẃ":{"ha":1565,"x_min":27,"x_max":1540,"o":"m 520 -14 l 150 1006 l 27 1006 l 27 1042 l 1199 1042 l 1199 1006 l 830 1006 l 1103 240 l 1384 1006 l 1261 1006 l 1261 1042 l 1540 1042 l 1540 1006 l 1424 1006 l 1053 -14 l 978 -14 l 606 1006 l 394 1006 l 668 240 l 794 584 l 815 526 l 616 -14 l 520 -14 m 942 637 l 908 660 l 1047 1031 l 1086 1025 l 942 637 m 786 1160 l 767 1185 l 889 1348 q 940 1389 910 1381 q 995 1388 969 1397 q 1034 1360 1022 1379 q 1046 1310 1049 1338 q 1024 1259 1043 1282 q 972 1228 1006 1236 l 786 1160 z "},"Ŵ":{"ha":1565,"x_min":27,"x_max":1540,"o":"m 520 -14 l 150 1006 l 27 1006 l 27 1042 l 1199 1042 l 1199 1006 l 830 1006 l 1103 240 l 1384 1006 l 1261 1006 l 1261 1042 l 1540 1042 l 1540 1006 l 1424 1006 l 1053 -14 l 978 -14 l 606 1006 l 394 1006 l 668 240 l 794 584 l 815 526 l 616 -14 l 520 -14 m 942 637 l 908 660 l 1047 1031 l 1086 1025 l 942 637 m 637 1174 l 619 1192 l 785 1380 l 903 1380 l 1070 1192 l 1051 1174 l 844 1283 l 637 1174 z "},"Ẅ":{"ha":1565,"x_min":27,"x_max":1540,"o":"m 520 -14 l 150 1006 l 27 1006 l 27 1042 l 1199 1042 l 1199 1006 l 830 1006 l 1103 240 l 1384 1006 l 1261 1006 l 1261 1042 l 1540 1042 l 1540 1006 l 1424 1006 l 1053 -14 l 978 -14 l 606 1006 l 394 1006 l 668 240 l 794 584 l 815 526 l 616 -14 l 520 -14 m 942 637 l 908 660 l 1047 1031 l 1086 1025 l 942 637 m 973 1170 q 917 1194 940 1170 q 893 1250 893 1217 q 917 1307 893 1283 q 973 1331 940 1331 q 1030 1307 1006 1331 q 1053 1250 1053 1283 q 1030 1194 1053 1217 q 973 1170 1006 1170 m 713 1170 q 657 1194 681 1170 q 633 1250 633 1217 q 657 1307 633 1283 q 713 1331 681 1331 q 770 1307 747 1331 q 794 1250 794 1283 q 770 1194 794 1217 q 713 1170 747 1170 z "},"Ẇ":{"ha":1565,"x_min":27,"x_max":1540,"o":"m 520 -14 l 150 1006 l 27 1006 l 27 1042 l 1199 1042 l 1199 1006 l 830 1006 l 1103 240 l 1384 1006 l 1261 1006 l 1261 1042 l 1540 1042 l 1540 1006 l 1424 1006 l 1053 -14 l 978 -14 l 606 1006 l 394 1006 l 668 240 l 794 584 l 815 526 l 616 -14 l 520 -14 m 942 637 l 908 660 l 1047 1031 l 1086 1025 l 942 637 m 844 1219 q 760 1254 794 1219 q 726 1338 726 1288 q 760 1422 726 1388 q 844 1456 794 1456 q 928 1422 894 1456 q 963 1338 963 1388 q 928 1254 963 1288 q 844 1219 894 1219 z "},"Ẉ":{"ha":1565,"x_min":27,"x_max":1540,"o":"m 520 -14 l 150 1006 l 27 1006 l 27 1042 l 1199 1042 l 1199 1006 l 830 1006 l 1103 240 l 1384 1006 l 1261 1006 l 1261 1042 l 1540 1042 l 1540 1006 l 1424 1006 l 1053 -14 l 978 -14 l 606 1006 l 394 1006 l 668 240 l 794 584 l 815 526 l 616 -14 l 520 -14 m 942 637 l 908 660 l 1047 1031 l 1086 1025 l 942 637 m 806 -337 q 723 -303 757 -337 q 689 -219 689 -269 q 723 -135 689 -169 q 806 -101 757 -101 q 891 -135 857 -101 q 925 -219 925 -169 q 891 -303 925 -269 q 806 -337 857 -337 z "},"Ẁ":{"ha":1565,"x_min":27,"x_max":1540,"o":"m 520 -14 l 150 1006 l 27 1006 l 27 1042 l 1199 1042 l 1199 1006 l 830 1006 l 1103 240 l 1384 1006 l 1261 1006 l 1261 1042 l 1540 1042 l 1540 1006 l 1424 1006 l 1053 -14 l 978 -14 l 606 1006 l 394 1006 l 668 240 l 794 584 l 815 526 l 616 -14 l 520 -14 m 942 637 l 908 660 l 1047 1031 l 1086 1025 l 942 637 m 899 1160 l 713 1228 q 661 1259 681 1236 q 640 1310 642 1282 q 652 1360 638 1338 q 691 1388 665 1379 q 746 1389 717 1397 q 797 1348 776 1381 l 919 1185 l 899 1160 z "},"X":{"ha":1132,"x_min":25,"x_max":1102,"o":"m 624 0 l 624 36 l 742 36 l 178 1006 l 74 1006 l 74 1042 l 546 1042 l 546 1006 l 422 1006 l 992 36 l 1102 36 l 1102 0 l 624 0 m 25 0 l 25 36 l 164 36 l 534 579 l 569 565 l 208 36 l 354 36 l 354 0 l 25 0 m 560 556 l 858 1006 l 724 1006 l 724 1042 l 1026 1042 l 1026 1006 l 899 1006 l 596 540 l 560 556 z "},"Y":{"ha":1048,"x_min":25,"x_max":1018,"o":"m 303 0 l 303 36 l 427 36 l 427 501 l 131 1006 l 25 1006 l 25 1042 l 511 1042 l 511 1006 l 381 1006 l 626 571 l 871 1006 l 732 1006 l 732 1042 l 1018 1042 l 1018 1006 l 914 1006 l 642 524 l 642 36 l 782 36 l 782 0 l 303 0 z "},"Ý":{"ha":1048,"x_min":25,"x_max":1018,"o":"m 303 0 l 303 36 l 427 36 l 427 501 l 131 1006 l 25 1006 l 25 1042 l 511 1042 l 511 1006 l 381 1006 l 626 571 l 871 1006 l 732 1006 l 732 1042 l 1018 1042 l 1018 1006 l 914 1006 l 642 524 l 642 36 l 782 36 l 782 0 l 303 0 m 508 1160 l 488 1185 l 610 1348 q 661 1389 632 1381 q 717 1388 690 1397 q 756 1360 743 1379 q 767 1310 770 1338 q 746 1259 765 1282 q 694 1228 727 1236 l 508 1160 z "},"Ŷ":{"ha":1048,"x_min":25,"x_max":1018,"o":"m 303 0 l 303 36 l 427 36 l 427 501 l 131 1006 l 25 1006 l 25 1042 l 511 1042 l 511 1006 l 381 1006 l 626 571 l 871 1006 l 732 1006 l 732 1042 l 1018 1042 l 1018 1006 l 914 1006 l 642 524 l 642 36 l 782 36 l 782 0 l 303 0 m 358 1174 l 340 1192 l 507 1380 l 625 1380 l 792 1192 l 773 1174 l 565 1283 l 358 1174 z "},"Ÿ":{"ha":1048,"x_min":25,"x_max":1018,"o":"m 303 0 l 303 36 l 427 36 l 427 501 l 131 1006 l 25 1006 l 25 1042 l 511 1042 l 511 1006 l 381 1006 l 626 571 l 871 1006 l 732 1006 l 732 1042 l 1018 1042 l 1018 1006 l 914 1006 l 642 524 l 642 36 l 782 36 l 782 0 l 303 0 m 694 1170 q 638 1194 662 1170 q 615 1250 615 1217 q 638 1307 615 1283 q 694 1331 662 1331 q 751 1307 728 1331 q 775 1250 775 1283 q 751 1194 775 1217 q 694 1170 728 1170 m 435 1170 q 378 1194 402 1170 q 355 1250 355 1217 q 378 1307 355 1283 q 435 1331 402 1331 q 492 1307 468 1331 q 515 1250 515 1283 q 492 1194 515 1217 q 435 1170 468 1170 z "},"Ỳ":{"ha":1048,"x_min":25,"x_max":1018,"o":"m 303 0 l 303 36 l 427 36 l 427 501 l 131 1006 l 25 1006 l 25 1042 l 511 1042 l 511 1006 l 381 1006 l 626 571 l 871 1006 l 732 1006 l 732 1042 l 1018 1042 l 1018 1006 l 914 1006 l 642 524 l 642 36 l 782 36 l 782 0 l 303 0 m 621 1160 l 435 1228 q 383 1259 402 1236 q 361 1310 364 1282 q 374 1360 359 1338 q 412 1388 386 1379 q 468 1389 438 1397 q 518 1348 497 1381 l 640 1185 l 621 1160 z "},"Z":{"ha":876,"x_min":26,"x_max":814,"o":"m 26 0 l 26 36 l 560 1006 l 365 1006 q 216 981 270 1006 q 134 908 162 957 q 93 785 107 859 l 57 785 l 57 1042 l 803 1042 l 803 1006 l 269 36 l 506 36 q 655 62 601 36 q 736 142 709 88 q 777 285 763 197 l 814 285 l 814 0 l 26 0 z "},"Ź":{"ha":876,"x_min":26,"x_max":814,"o":"m 26 0 l 26 36 l 560 1006 l 365 1006 q 216 981 270 1006 q 134 908 162 957 q 93 785 107 859 l 57 785 l 57 1042 l 803 1042 l 803 1006 l 269 36 l 506 36 q 655 62 601 36 q 736 142 709 88 q 777 285 763 197 l 814 285 l 814 0 l 26 0 m 365 1160 l 345 1185 l 467 1348 q 518 1389 489 1381 q 574 1388 547 1397 q 613 1360 600 1379 q 624 1310 627 1338 q 603 1259 622 1282 q 551 1228 584 1236 l 365 1160 z "},"Ž":{"ha":876,"x_min":26,"x_max":814,"o":"m 26 0 l 26 36 l 560 1006 l 365 1006 q 216 981 270 1006 q 134 908 162 957 q 93 785 107 859 l 57 785 l 57 1042 l 803 1042 l 803 1006 l 269 36 l 506 36 q 655 62 601 36 q 736 142 709 88 q 777 285 763 197 l 814 285 l 814 0 l 26 0 m 364 1181 l 197 1369 l 216 1386 l 423 1278 l 630 1386 l 649 1369 l 482 1181 l 364 1181 z "},"Ż":{"ha":876,"x_min":26,"x_max":814,"o":"m 26 0 l 26 36 l 560 1006 l 365 1006 q 216 981 270 1006 q 134 908 162 957 q 93 785 107 859 l 57 785 l 57 1042 l 803 1042 l 803 1006 l 269 36 l 506 36 q 655 62 601 36 q 736 142 709 88 q 777 285 763 197 l 814 285 l 814 0 l 26 0 m 422 1219 q 339 1254 373 1219 q 305 1338 305 1288 q 339 1422 305 1388 q 422 1456 373 1456 q 507 1422 473 1456 q 541 1338 541 1388 q 507 1254 541 1288 q 422 1219 473 1219 z "},"a":{"ha":806,"x_min":55,"x_max":793,"o":"m 620 -14 q 541 0 576 -14 q 486 41 506 13 q 466 110 466 68 l 466 423 q 456 517 466 473 q 418 588 447 561 q 335 615 390 615 q 275 609 307 615 q 215 590 243 603 q 168 555 186 576 q 149 501 149 533 l 105 501 q 138 572 105 545 q 214 599 170 599 q 293 574 259 599 q 328 504 328 550 q 293 430 328 455 q 214 404 258 404 q 135 430 166 404 q 103 501 103 456 q 126 568 103 540 q 188 615 149 597 q 273 641 226 633 q 367 650 319 650 q 537 620 473 650 q 630 540 601 591 q 658 423 658 488 l 658 99 q 667 60 658 76 q 701 44 675 44 q 738 55 716 44 q 772 90 759 67 l 793 65 q 728 7 774 28 q 620 -14 683 -14 m 253 -14 q 109 32 163 -14 q 55 158 55 78 q 136 305 55 251 q 365 360 217 360 l 531 360 l 531 328 l 408 328 q 323 306 356 328 q 276 250 291 283 q 262 182 262 217 q 271 123 262 149 q 299 83 281 97 q 344 68 317 68 q 400 88 372 68 q 447 149 428 108 q 466 253 466 190 l 489 253 q 459 113 489 173 q 377 19 430 53 q 253 -14 324 -14 z "},"á":{"ha":806,"x_min":55,"x_max":793,"o":"m 620 -14 q 541 0 576 -14 q 486 41 506 13 q 466 110 466 68 l 466 423 q 456 517 466 473 q 418 588 447 561 q 335 615 390 615 q 275 609 307 615 q 215 590 243 603 q 168 555 186 576 q 149 501 149 533 l 105 501 q 138 572 105 545 q 214 599 170 599 q 293 574 259 599 q 328 504 328 550 q 293 430 328 455 q 214 404 258 404 q 135 430 166 404 q 103 501 103 456 q 126 568 103 540 q 188 615 149 597 q 273 641 226 633 q 367 650 319 650 q 537 620 473 650 q 630 540 601 591 q 658 423 658 488 l 658 99 q 667 60 658 76 q 701 44 675 44 q 738 55 716 44 q 772 90 759 67 l 793 65 q 728 7 774 28 q 620 -14 683 -14 m 253 -14 q 109 32 163 -14 q 55 158 55 78 q 136 305 55 251 q 365 360 217 360 l 531 360 l 531 328 l 408 328 q 323 306 356 328 q 276 250 291 283 q 262 182 262 217 q 271 123 262 149 q 299 83 281 97 q 344 68 317 68 q 400 88 372 68 q 447 149 428 108 q 466 253 466 190 l 489 253 q 459 113 489 173 q 377 19 430 53 q 253 -14 324 -14 m 335 758 l 316 783 l 438 945 q 489 986 460 978 q 544 985 518 994 q 583 957 571 976 q 595 907 598 935 q 574 856 592 879 q 522 825 555 833 l 335 758 z "},"ă":{"ha":806,"x_min":55,"x_max":793,"o":"m 620 -14 q 541 0 576 -14 q 486 41 506 13 q 466 110 466 68 l 466 423 q 456 517 466 473 q 418 588 447 561 q 335 615 390 615 q 275 609 307 615 q 215 590 243 603 q 168 555 186 576 q 149 501 149 533 l 105 501 q 138 572 105 545 q 214 599 170 599 q 293 574 259 599 q 328 504 328 550 q 293 430 328 455 q 214 404 258 404 q 135 430 166 404 q 103 501 103 456 q 126 568 103 540 q 188 615 149 597 q 273 641 226 633 q 367 650 319 650 q 537 620 473 650 q 630 540 601 591 q 658 423 658 488 l 658 99 q 667 60 658 76 q 701 44 675 44 q 738 55 716 44 q 772 90 759 67 l 793 65 q 728 7 774 28 q 620 -14 683 -14 m 253 -14 q 109 32 163 -14 q 55 158 55 78 q 136 305 55 251 q 365 360 217 360 l 531 360 l 531 328 l 408 328 q 323 306 356 328 q 276 250 291 283 q 262 182 262 217 q 271 123 262 149 q 299 83 281 97 q 344 68 317 68 q 400 88 372 68 q 447 149 428 108 q 466 253 466 190 l 489 253 q 459 113 489 173 q 377 19 430 53 q 253 -14 324 -14 m 394 764 q 298 791 335 764 q 244 868 261 819 q 228 985 228 918 l 256 985 q 275 933 256 953 q 325 905 294 913 q 394 896 356 896 q 463 905 431 896 q 513 933 494 913 q 532 985 532 953 l 560 985 q 543 868 560 918 q 490 791 526 819 q 394 764 453 764 z "},"â":{"ha":806,"x_min":55,"x_max":793,"o":"m 620 -14 q 541 0 576 -14 q 486 41 506 13 q 466 110 466 68 l 466 423 q 456 517 466 473 q 418 588 447 561 q 335 615 390 615 q 275 609 307 615 q 215 590 243 603 q 168 555 186 576 q 149 501 149 533 l 105 501 q 138 572 105 545 q 214 599 170 599 q 293 574 259 599 q 328 504 328 550 q 293 430 328 455 q 214 404 258 404 q 135 430 166 404 q 103 501 103 456 q 126 568 103 540 q 188 615 149 597 q 273 641 226 633 q 367 650 319 650 q 537 620 473 650 q 630 540 601 591 q 658 423 658 488 l 658 99 q 667 60 658 76 q 701 44 675 44 q 738 55 716 44 q 772 90 759 67 l 793 65 q 728 7 774 28 q 620 -14 683 -14 m 253 -14 q 109 32 163 -14 q 55 158 55 78 q 136 305 55 251 q 365 360 217 360 l 531 360 l 531 328 l 408 328 q 323 306 356 328 q 276 250 291 283 q 262 182 262 217 q 271 123 262 149 q 299 83 281 97 q 344 68 317 68 q 400 88 372 68 q 447 149 428 108 q 466 253 466 190 l 489 253 q 459 113 489 173 q 377 19 430 53 q 253 -14 324 -14 m 186 771 l 168 790 l 335 977 l 453 977 l 619 790 l 601 771 l 393 880 l 186 771 z "},"ä":{"ha":806,"x_min":55,"x_max":793,"o":"m 620 -14 q 541 0 576 -14 q 486 41 506 13 q 466 110 466 68 l 466 423 q 456 517 466 473 q 418 588 447 561 q 335 615 390 615 q 275 609 307 615 q 215 590 243 603 q 168 555 186 576 q 149 501 149 533 l 105 501 q 138 572 105 545 q 214 599 170 599 q 293 574 259 599 q 328 504 328 550 q 293 430 328 455 q 214 404 258 404 q 135 430 166 404 q 103 501 103 456 q 126 568 103 540 q 188 615 149 597 q 273 641 226 633 q 367 650 319 650 q 537 620 473 650 q 630 540 601 591 q 658 423 658 488 l 658 99 q 667 60 658 76 q 701 44 675 44 q 738 55 716 44 q 772 90 759 67 l 793 65 q 728 7 774 28 q 620 -14 683 -14 m 253 -14 q 109 32 163 -14 q 55 158 55 78 q 136 305 55 251 q 365 360 217 360 l 531 360 l 531 328 l 408 328 q 323 306 356 328 q 276 250 291 283 q 262 182 262 217 q 271 123 262 149 q 299 83 281 97 q 344 68 317 68 q 400 88 372 68 q 447 149 428 108 q 466 253 466 190 l 489 253 q 459 113 489 173 q 377 19 430 53 q 253 -14 324 -14 m 523 767 q 467 791 490 767 q 443 847 443 815 q 467 904 443 881 q 523 928 490 928 q 580 904 556 928 q 603 847 603 881 q 580 791 603 815 q 523 767 556 767 m 263 767 q 207 791 231 767 q 183 847 183 815 q 207 904 183 881 q 263 928 231 928 q 320 904 297 928 q 344 847 344 881 q 320 791 344 815 q 263 767 297 767 z "},"à":{"ha":806,"x_min":55,"x_max":793,"o":"m 620 -14 q 541 0 576 -14 q 486 41 506 13 q 466 110 466 68 l 466 423 q 456 517 466 473 q 418 588 447 561 q 335 615 390 615 q 275 609 307 615 q 215 590 243 603 q 168 555 186 576 q 149 501 149 533 l 105 501 q 138 572 105 545 q 214 599 170 599 q 293 574 259 599 q 328 504 328 550 q 293 430 328 455 q 214 404 258 404 q 135 430 166 404 q 103 501 103 456 q 126 568 103 540 q 188 615 149 597 q 273 641 226 633 q 367 650 319 650 q 537 620 473 650 q 630 540 601 591 q 658 423 658 488 l 658 99 q 667 60 658 76 q 701 44 675 44 q 738 55 716 44 q 772 90 759 67 l 793 65 q 728 7 774 28 q 620 -14 683 -14 m 253 -14 q 109 32 163 -14 q 55 158 55 78 q 136 305 55 251 q 365 360 217 360 l 531 360 l 531 328 l 408 328 q 323 306 356 328 q 276 250 291 283 q 262 182 262 217 q 271 123 262 149 q 299 83 281 97 q 344 68 317 68 q 400 88 372 68 q 447 149 428 108 q 466 253 466 190 l 489 253 q 459 113 489 173 q 377 19 430 53 q 253 -14 324 -14 m 449 758 l 263 825 q 211 856 231 833 q 190 907 192 879 q 202 957 188 935 q 241 985 215 976 q 296 986 267 994 q 347 945 326 978 l 469 783 l 449 758 z "},"ā":{"ha":806,"x_min":55,"x_max":793,"o":"m 620 -14 q 541 0 576 -14 q 486 41 506 13 q 466 110 466 68 l 466 423 q 456 517 466 473 q 418 588 447 561 q 335 615 390 615 q 275 609 307 615 q 215 590 243 603 q 168 555 186 576 q 149 501 149 533 l 105 501 q 138 572 105 545 q 214 599 170 599 q 293 574 259 599 q 328 504 328 550 q 293 430 328 455 q 214 404 258 404 q 135 430 166 404 q 103 501 103 456 q 126 568 103 540 q 188 615 149 597 q 273 641 226 633 q 367 650 319 650 q 537 620 473 650 q 630 540 601 591 q 658 423 658 488 l 658 99 q 667 60 658 76 q 701 44 675 44 q 738 55 716 44 q 772 90 759 67 l 793 65 q 728 7 774 28 q 620 -14 683 -14 m 253 -14 q 109 32 163 -14 q 55 158 55 78 q 136 305 55 251 q 365 360 217 360 l 531 360 l 531 328 l 408 328 q 323 306 356 328 q 276 250 291 283 q 262 182 262 217 q 271 123 262 149 q 299 83 281 97 q 344 68 317 68 q 400 88 372 68 q 447 149 428 108 q 466 253 466 190 l 489 253 q 459 113 489 173 q 377 19 430 53 q 253 -14 324 -14 m 226 778 l 226 814 l 560 814 l 560 778 l 226 778 z "},"ą":{"ha":806,"x_min":55,"x_max":815,"o":"m 620 -14 q 541 0 576 -14 q 486 41 506 13 q 466 110 466 68 l 466 423 q 456 517 466 473 q 418 588 447 561 q 335 615 390 615 q 275 609 307 615 q 215 590 243 603 q 168 555 186 576 q 149 501 149 533 l 105 501 q 138 572 105 545 q 214 599 170 599 q 293 574 259 599 q 328 504 328 550 q 293 430 328 455 q 214 404 258 404 q 135 430 166 404 q 103 501 103 456 q 126 568 103 540 q 188 615 149 597 q 273 641 226 633 q 367 650 319 650 q 537 620 473 650 q 630 540 601 591 q 658 423 658 488 l 658 99 q 667 60 658 76 q 701 44 675 44 q 738 55 716 44 q 772 90 759 67 l 793 65 q 728 7 774 28 q 620 -14 683 -14 m 253 -14 q 109 32 163 -14 q 55 158 55 78 q 136 305 55 251 q 365 360 217 360 l 531 360 l 531 328 l 408 328 q 323 306 356 328 q 276 250 291 283 q 262 182 262 217 q 271 123 262 149 q 299 83 281 97 q 344 68 317 68 q 400 88 372 68 q 447 149 428 108 q 466 253 466 190 l 489 253 q 459 113 489 173 q 377 19 430 53 q 253 -14 324 -14 m 642 -310 q 558 -297 597 -310 q 495 -258 519 -285 q 472 -190 472 -232 q 493 -114 472 -149 q 551 -51 515 -79 q 630 -3 588 -23 q 711 29 672 17 l 722 6 q 692 -24 707 -2 q 667 -79 677 -47 q 656 -152 656 -112 q 673 -224 656 -199 q 717 -249 689 -249 q 760 -233 744 -249 q 788 -194 776 -217 l 815 -209 q 788 -252 806 -228 q 736 -293 770 -276 q 642 -310 702 -310 z "},"å":{"ha":806,"x_min":55,"x_max":793,"o":"m 620 -14 q 541 0 576 -14 q 486 41 506 13 q 466 110 466 68 l 466 423 q 456 517 466 473 q 418 588 447 561 q 335 615 390 615 q 275 609 307 615 q 215 590 243 603 q 168 555 186 576 q 149 501 149 533 l 105 501 q 138 572 105 545 q 214 599 170 599 q 293 574 259 599 q 328 504 328 550 q 293 430 328 455 q 214 404 258 404 q 135 430 166 404 q 103 501 103 456 q 126 568 103 540 q 188 615 149 597 q 273 641 226 633 q 367 650 319 650 q 537 620 473 650 q 630 540 601 591 q 658 423 658 488 l 658 99 q 667 60 658 76 q 701 44 675 44 q 738 55 716 44 q 772 90 759 67 l 793 65 q 728 7 774 28 q 620 -14 683 -14 m 253 -14 q 109 32 163 -14 q 55 158 55 78 q 136 305 55 251 q 365 360 217 360 l 531 360 l 531 328 l 408 328 q 323 306 356 328 q 276 250 291 283 q 262 182 262 217 q 271 123 262 149 q 299 83 281 97 q 344 68 317 68 q 400 88 372 68 q 447 149 428 108 q 466 253 466 190 l 489 253 q 459 113 489 173 q 377 19 430 53 q 253 -14 324 -14 m 393 764 q 292 800 329 764 q 255 889 255 836 q 292 978 255 942 q 393 1014 329 1014 q 494 978 457 1014 q 532 889 532 942 q 494 800 532 836 q 393 764 457 764 m 393 801 q 422 811 410 801 q 440 840 434 821 q 447 889 447 860 q 440 937 447 917 q 422 967 434 957 q 393 978 410 978 q 364 967 376 978 q 346 937 352 957 q 340 889 340 917 q 346 840 340 860 q 364 811 352 821 q 393 801 376 801 z "},"ã":{"ha":806,"x_min":55,"x_max":793,"o":"m 620 -14 q 541 0 576 -14 q 486 41 506 13 q 466 110 466 68 l 466 423 q 456 517 466 473 q 418 588 447 561 q 335 615 390 615 q 275 609 307 615 q 215 590 243 603 q 168 555 186 576 q 149 501 149 533 l 105 501 q 138 572 105 545 q 214 599 170 599 q 293 574 259 599 q 328 504 328 550 q 293 430 328 455 q 214 404 258 404 q 135 430 166 404 q 103 501 103 456 q 126 568 103 540 q 188 615 149 597 q 273 641 226 633 q 367 650 319 650 q 537 620 473 650 q 630 540 601 591 q 658 423 658 488 l 658 99 q 667 60 658 76 q 701 44 675 44 q 738 55 716 44 q 772 90 759 67 l 793 65 q 728 7 774 28 q 620 -14 683 -14 m 253 -14 q 109 32 163 -14 q 55 158 55 78 q 136 305 55 251 q 365 360 217 360 l 531 360 l 531 328 l 408 328 q 323 306 356 328 q 276 250 291 283 q 262 182 262 217 q 271 123 262 149 q 299 83 281 97 q 344 68 317 68 q 400 88 372 68 q 447 149 428 108 q 466 253 466 190 l 489 253 q 459 113 489 173 q 377 19 430 53 q 253 -14 324 -14 m 505 750 q 430 767 461 750 q 373 805 399 783 q 320 843 347 826 q 260 859 294 859 q 208 838 228 859 q 188 778 188 817 l 151 778 q 168 883 151 837 q 217 956 185 929 q 294 982 249 982 q 369 965 339 982 q 424 927 400 949 q 471 889 448 906 q 524 872 494 872 q 578 894 558 872 q 598 954 598 916 l 634 954 q 623 843 634 889 q 584 774 612 797 q 505 750 556 750 z "},"æ":{"ha":1178,"x_min":56,"x_max":1133,"o":"m 299 -14 q 215 -5 258 -14 q 136 23 172 3 q 78 76 100 42 q 56 158 56 109 q 92 263 56 216 q 198 336 128 310 q 366 363 267 363 l 459 363 l 459 423 q 454 492 459 458 q 435 554 449 526 q 396 599 422 582 q 331 615 370 615 q 287 611 309 615 q 243 598 265 606 q 205 576 222 589 q 178 545 188 563 q 200 573 187 561 q 228 592 214 585 q 297 566 269 592 q 325 504 325 540 q 288 430 325 455 q 208 404 251 404 q 133 430 164 404 q 102 501 102 456 q 141 586 102 553 q 239 635 179 619 q 365 650 299 650 q 481 633 434 650 q 558 586 528 615 q 601 519 587 556 l 584 517 q 682 618 620 583 q 827 653 744 653 q 995 611 929 653 q 1093 503 1061 569 q 1126 360 1126 436 l 713 360 q 713 342 713 351 q 713 324 713 333 q 720 207 713 260 q 743 113 726 153 q 790 51 760 73 q 867 29 820 29 q 1010 73 951 29 q 1094 187 1068 117 l 1133 187 q 1032 44 1106 101 q 834 -13 959 -13 q 675 30 742 -13 q 573 154 607 72 l 590 154 q 522 59 567 97 q 418 4 476 22 q 299 -14 360 -14 m 353 40 q 406 62 382 40 q 444 131 430 85 q 459 251 459 178 l 459 329 l 404 329 q 326 307 356 329 q 281 249 295 285 q 266 173 266 213 q 290 70 266 101 q 353 40 314 40 m 715 397 l 919 397 q 916 476 919 438 q 904 547 913 515 q 877 598 895 578 q 827 617 858 617 q 765 588 788 617 q 730 510 742 560 q 715 397 719 460 z "},"b":{"ha":890,"x_min":35,"x_max":835,"o":"m 546 -14 q 409 35 466 -14 q 326 169 353 84 l 326 0 l 35 0 l 35 36 l 131 36 l 131 1006 l 35 1006 l 35 1042 l 326 1042 l 326 469 q 409 603 353 554 q 546 651 466 651 q 685 612 619 651 q 793 498 751 572 q 835 319 835 424 q 793 141 835 215 q 685 26 751 66 q 546 -14 619 -14 m 496 41 q 560 70 534 41 q 601 160 587 99 q 615 319 615 222 q 601 478 615 417 q 560 568 587 540 q 496 596 534 596 q 417 564 456 596 q 351 470 377 531 q 326 319 326 408 q 351 168 326 231 q 417 73 377 106 q 496 41 456 41 z "},"c":{"ha":735,"x_min":57,"x_max":673,"o":"m 395 -14 q 224 23 301 -14 q 102 133 147 59 q 57 319 57 207 q 97 494 57 419 q 212 611 136 569 q 397 653 288 653 q 539 627 478 653 q 634 561 600 602 q 668 473 668 521 q 636 394 668 423 q 558 365 603 365 q 506 376 533 365 q 462 411 480 388 q 444 472 444 435 q 479 549 444 522 q 558 576 514 576 q 634 550 601 576 q 667 473 667 523 l 631 473 q 613 530 631 504 q 565 574 594 556 q 503 603 536 593 q 438 613 469 613 q 359 586 389 613 q 314 515 329 559 q 292 420 298 472 q 287 319 287 369 q 294 208 287 260 q 319 118 301 157 q 367 58 336 80 q 443 37 397 37 q 532 57 496 37 q 593 110 569 76 q 634 187 618 144 l 673 187 q 580 41 646 97 q 395 -14 513 -14 z "},"ć":{"ha":735,"x_min":57,"x_max":673,"o":"m 395 -14 q 224 23 301 -14 q 102 133 147 59 q 57 319 57 207 q 97 494 57 419 q 212 611 136 569 q 397 653 288 653 q 539 627 478 653 q 634 561 600 602 q 668 473 668 521 q 636 394 668 423 q 558 365 603 365 q 506 376 533 365 q 462 411 480 388 q 444 472 444 435 q 479 549 444 522 q 558 576 514 576 q 634 550 601 576 q 667 473 667 523 l 631 473 q 613 530 631 504 q 565 574 594 556 q 503 603 536 593 q 438 613 469 613 q 359 586 389 613 q 314 515 329 559 q 292 420 298 472 q 287 319 287 369 q 294 208 287 260 q 319 118 301 157 q 367 58 336 80 q 443 37 397 37 q 532 57 496 37 q 593 110 569 76 q 634 187 618 144 l 673 187 q 580 41 646 97 q 395 -14 513 -14 m 340 758 l 321 783 l 443 945 q 494 986 465 978 q 549 985 523 994 q 588 957 576 976 q 600 907 603 935 q 578 856 597 879 q 526 825 560 833 l 340 758 z "},"č":{"ha":735,"x_min":57,"x_max":673,"o":"m 395 -14 q 224 23 301 -14 q 102 133 147 59 q 57 319 57 207 q 97 494 57 419 q 212 611 136 569 q 397 653 288 653 q 539 627 478 653 q 634 561 600 602 q 668 473 668 521 q 636 394 668 423 q 558 365 603 365 q 506 376 533 365 q 462 411 480 388 q 444 472 444 435 q 479 549 444 522 q 558 576 514 576 q 634 550 601 576 q 667 473 667 523 l 631 473 q 613 530 631 504 q 565 574 594 556 q 503 603 536 593 q 438 613 469 613 q 359 586 389 613 q 314 515 329 559 q 292 420 298 472 q 287 319 287 369 q 294 208 287 260 q 319 118 301 157 q 367 58 336 80 q 443 37 397 37 q 532 57 496 37 q 593 110 569 76 q 634 187 618 144 l 673 187 q 580 41 646 97 q 395 -14 513 -14 m 339 778 l 172 966 l 191 983 l 398 875 l 605 983 l 624 966 l 457 778 l 339 778 z "},"ç":{"ha":735,"x_min":57,"x_max":673,"o":"m 395 -14 q 224 23 301 -14 q 102 133 147 59 q 57 319 57 207 q 97 494 57 419 q 212 611 136 569 q 397 653 288 653 q 539 627 478 653 q 634 561 600 602 q 668 473 668 521 q 636 394 668 423 q 558 365 603 365 q 506 376 533 365 q 462 411 480 388 q 444 472 444 435 q 479 549 444 522 q 558 576 514 576 q 634 550 601 576 q 667 473 667 523 l 631 473 q 613 530 631 504 q 565 574 594 556 q 503 603 536 593 q 438 613 469 613 q 359 586 389 613 q 314 515 329 559 q 292 420 298 472 q 287 319 287 369 q 294 208 287 260 q 319 118 301 157 q 367 58 336 80 q 443 37 397 37 q 532 57 496 37 q 593 110 569 76 q 634 187 618 144 l 673 187 q 580 41 646 97 q 395 -14 513 -14 m 258 -351 l 258 -315 q 350 -296 319 -315 q 380 -241 380 -276 q 361 -190 380 -207 q 313 -166 342 -172 q 248 -160 283 -160 l 370 5 l 416 5 l 335 -104 q 442 -118 397 -106 q 510 -154 487 -130 q 534 -217 534 -178 q 509 -282 534 -251 q 423 -332 483 -313 q 258 -351 363 -351 z "},"ĉ":{"ha":735,"x_min":57,"x_max":673,"o":"m 395 -14 q 224 23 301 -14 q 102 133 147 59 q 57 319 57 207 q 97 494 57 419 q 212 611 136 569 q 397 653 288 653 q 539 627 478 653 q 634 561 600 602 q 668 473 668 521 q 636 394 668 423 q 558 365 603 365 q 506 376 533 365 q 462 411 480 388 q 444 472 444 435 q 479 549 444 522 q 558 576 514 576 q 634 550 601 576 q 667 473 667 523 l 631 473 q 613 530 631 504 q 565 574 594 556 q 503 603 536 593 q 438 613 469 613 q 359 586 389 613 q 314 515 329 559 q 292 420 298 472 q 287 319 287 369 q 294 208 287 260 q 319 118 301 157 q 367 58 336 80 q 443 37 397 37 q 532 57 496 37 q 593 110 569 76 q 634 187 618 144 l 673 187 q 580 41 646 97 q 395 -14 513 -14 m 190 771 l 172 790 l 339 977 l 457 977 l 624 790 l 605 771 l 397 880 l 190 771 z "},"ċ":{"ha":735,"x_min":57,"x_max":673,"o":"m 395 -14 q 224 23 301 -14 q 102 133 147 59 q 57 319 57 207 q 97 494 57 419 q 212 611 136 569 q 397 653 288 653 q 539 627 478 653 q 634 561 600 602 q 668 473 668 521 q 636 394 668 423 q 558 365 603 365 q 506 376 533 365 q 462 411 480 388 q 444 472 444 435 q 479 549 444 522 q 558 576 514 576 q 634 550 601 576 q 667 473 667 523 l 631 473 q 613 530 631 504 q 565 574 594 556 q 503 603 536 593 q 438 613 469 613 q 359 586 389 613 q 314 515 329 559 q 292 420 298 472 q 287 319 287 369 q 294 208 287 260 q 319 118 301 157 q 367 58 336 80 q 443 37 397 37 q 532 57 496 37 q 593 110 569 76 q 634 187 618 144 l 673 187 q 580 41 646 97 q 395 -14 513 -14 m 397 817 q 314 851 348 817 q 280 935 280 885 q 314 1019 280 985 q 397 1053 348 1053 q 482 1019 448 1053 q 516 935 516 985 q 482 851 516 885 q 397 817 448 817 z "},"d":{"ha":890,"x_min":57,"x_max":856,"o":"m 345 -13 q 206 26 272 -13 q 98 140 140 66 q 57 319 57 215 q 98 498 57 423 q 206 612 140 572 q 345 652 272 652 q 482 603 425 652 q 565 469 539 554 l 565 1006 l 470 1006 l 470 1042 l 760 1042 l 760 36 l 856 36 l 856 0 l 565 0 l 565 169 q 482 35 539 84 q 345 -13 426 -13 m 396 42 q 475 75 436 42 q 540 169 514 107 q 565 319 565 231 q 540 470 565 408 q 475 565 514 533 q 396 597 436 597 q 331 568 358 597 q 291 478 305 540 q 277 319 277 417 q 291 160 277 221 q 331 70 305 99 q 396 42 358 42 z "},"ď":{"ha":890,"x_min":57,"x_max":1076,"o":"m 345 -13 q 206 26 272 -13 q 98 140 140 66 q 57 319 57 215 q 98 498 57 423 q 206 612 140 572 q 345 652 272 652 q 482 603 425 652 q 565 469 539 554 l 565 1006 l 470 1006 l 470 1042 l 760 1042 l 760 36 l 856 36 l 856 0 l 565 0 l 565 169 q 482 35 539 84 q 345 -13 426 -13 m 396 42 q 475 75 436 42 q 540 169 514 107 q 565 319 565 231 q 540 470 565 408 q 475 565 514 533 q 396 597 436 597 q 331 568 358 597 q 291 478 305 540 q 277 319 277 417 q 291 160 277 221 q 331 70 305 99 q 396 42 358 42 m 851 677 l 851 709 q 929 724 893 709 q 992 766 965 738 q 1032 833 1018 794 q 1042 922 1045 873 l 1051 922 q 1039 890 1052 907 q 1005 861 1026 873 q 956 849 983 849 q 881 879 907 849 q 854 949 854 908 q 886 1019 854 990 q 963 1049 918 1049 q 1043 1011 1009 1049 q 1076 906 1076 974 q 1049 792 1076 844 q 972 708 1022 740 q 851 677 922 677 z "},"đ":{"ha":890,"x_min":57,"x_max":865,"o":"m 367 774 l 367 810 l 865 810 l 865 774 l 367 774 m 345 -13 q 206 26 272 -13 q 98 140 140 66 q 57 319 57 215 q 98 498 57 423 q 206 612 140 572 q 345 652 272 652 q 482 603 425 652 q 565 469 539 554 l 565 1006 l 470 1006 l 470 1042 l 760 1042 l 760 36 l 856 36 l 856 0 l 565 0 l 565 169 q 482 35 539 84 q 345 -13 426 -13 m 396 42 q 475 75 436 42 q 540 169 514 107 q 565 319 565 231 q 540 470 565 408 q 475 565 514 533 q 396 597 436 597 q 331 568 358 597 q 291 478 305 540 q 277 319 277 417 q 291 160 277 221 q 331 70 305 99 q 396 42 358 42 z "},"ð":{"ha":847,"x_min":42,"x_max":799,"o":"m 404 -14 q 211 33 292 -14 q 86 161 131 80 q 42 347 42 243 q 71 500 42 436 q 147 605 99 564 q 252 665 194 645 q 367 684 309 684 q 495 646 449 684 q 560 541 541 608 q 580 390 580 474 l 549 390 q 532 533 549 480 q 483 608 515 585 q 410 631 452 631 q 351 618 376 631 q 307 572 325 604 q 280 485 289 540 q 271 347 271 431 q 276 215 271 275 q 294 113 281 156 q 333 46 308 69 q 400 23 358 23 q 469 49 441 23 q 516 123 498 75 q 541 239 533 172 q 549 390 549 307 l 548 506 q 530 650 548 577 q 478 790 513 724 q 395 909 444 857 q 283 991 346 961 q 146 1022 220 1022 l 146 1056 q 394 1008 279 1056 q 595 876 509 961 q 730 677 681 791 q 778 431 778 564 q 731 186 778 285 q 600 36 684 87 q 404 -14 516 -14 m 181 839 l 181 876 l 799 876 l 799 839 l 181 839 z "},"e":{"ha":741,"x_min":57,"x_max":688,"o":"m 392 -14 q 220 25 296 -14 q 101 138 144 63 q 57 319 57 212 q 99 501 57 427 q 214 614 140 576 q 385 653 288 653 q 552 611 486 653 q 649 503 617 569 q 681 360 681 436 l 149 360 l 149 397 l 474 397 q 471 476 474 437 q 460 547 469 515 q 434 598 452 578 q 385 617 416 617 q 328 595 350 617 q 293 534 306 573 q 275 444 281 496 q 270 333 270 393 q 277 210 270 266 q 300 114 283 154 q 348 51 317 73 q 424 28 378 28 q 566 73 508 28 q 649 187 623 117 l 688 187 q 589 43 661 101 q 392 -14 517 -14 z "},"é":{"ha":741,"x_min":57,"x_max":688,"o":"m 392 -14 q 220 25 296 -14 q 101 138 144 63 q 57 319 57 212 q 99 501 57 427 q 214 614 140 576 q 385 653 288 653 q 552 611 486 653 q 649 503 617 569 q 681 360 681 436 l 149 360 l 149 397 l 474 397 q 471 476 474 437 q 460 547 469 515 q 434 598 452 578 q 385 617 416 617 q 328 595 350 617 q 293 534 306 573 q 275 444 281 496 q 270 333 270 393 q 277 210 270 266 q 300 114 283 154 q 348 51 317 73 q 424 28 378 28 q 566 73 508 28 q 649 187 623 117 l 688 187 q 589 43 661 101 q 392 -14 517 -14 m 326 758 l 307 783 l 429 945 q 480 986 451 978 q 535 985 509 994 q 574 957 562 976 q 586 907 589 935 q 565 856 583 879 q 513 825 546 833 l 326 758 z "},"ĕ":{"ha":741,"x_min":57,"x_max":688,"o":"m 392 -14 q 220 25 296 -14 q 101 138 144 63 q 57 319 57 212 q 99 501 57 427 q 214 614 140 576 q 385 653 288 653 q 552 611 486 653 q 649 503 617 569 q 681 360 681 436 l 149 360 l 149 397 l 474 397 q 471 476 474 437 q 460 547 469 515 q 434 598 452 578 q 385 617 416 617 q 328 595 350 617 q 293 534 306 573 q 275 444 281 496 q 270 333 270 393 q 277 210 270 266 q 300 114 283 154 q 348 51 317 73 q 424 28 378 28 q 566 73 508 28 q 649 187 623 117 l 688 187 q 589 43 661 101 q 392 -14 517 -14 m 384 764 q 288 791 325 764 q 235 868 251 819 q 218 985 218 918 l 246 985 q 265 933 246 953 q 315 905 284 913 q 384 896 347 896 q 453 905 422 896 q 503 933 485 913 q 522 985 522 953 l 551 985 q 534 868 551 918 q 480 791 517 819 q 384 764 443 764 z "},"ě":{"ha":741,"x_min":57,"x_max":688,"o":"m 392 -14 q 220 25 296 -14 q 101 138 144 63 q 57 319 57 212 q 99 501 57 427 q 214 614 140 576 q 385 653 288 653 q 552 611 486 653 q 649 503 617 569 q 681 360 681 436 l 149 360 l 149 397 l 474 397 q 471 476 474 437 q 460 547 469 515 q 434 598 452 578 q 385 617 416 617 q 328 595 350 617 q 293 534 306 573 q 275 444 281 496 q 270 333 270 393 q 277 210 270 266 q 300 114 283 154 q 348 51 317 73 q 424 28 378 28 q 566 73 508 28 q 649 187 623 117 l 688 187 q 589 43 661 101 q 392 -14 517 -14 m 326 778 l 159 966 l 178 983 l 385 875 l 592 983 l 610 966 l 444 778 l 326 778 z "},"ê":{"ha":741,"x_min":57,"x_max":688,"o":"m 392 -14 q 220 25 296 -14 q 101 138 144 63 q 57 319 57 212 q 99 501 57 427 q 214 614 140 576 q 385 653 288 653 q 552 611 486 653 q 649 503 617 569 q 681 360 681 436 l 149 360 l 149 397 l 474 397 q 471 476 474 437 q 460 547 469 515 q 434 598 452 578 q 385 617 416 617 q 328 595 350 617 q 293 534 306 573 q 275 444 281 496 q 270 333 270 393 q 277 210 270 266 q 300 114 283 154 q 348 51 317 73 q 424 28 378 28 q 566 73 508 28 q 649 187 623 117 l 688 187 q 589 43 661 101 q 392 -14 517 -14 m 177 771 l 159 790 l 326 977 l 444 977 l 610 790 l 592 771 l 384 880 l 177 771 z "},"ë":{"ha":741,"x_min":57,"x_max":688,"o":"m 392 -14 q 220 25 296 -14 q 101 138 144 63 q 57 319 57 212 q 99 501 57 427 q 214 614 140 576 q 385 653 288 653 q 552 611 486 653 q 649 503 617 569 q 681 360 681 436 l 149 360 l 149 397 l 474 397 q 471 476 474 437 q 460 547 469 515 q 434 598 452 578 q 385 617 416 617 q 328 595 350 617 q 293 534 306 573 q 275 444 281 496 q 270 333 270 393 q 277 210 270 266 q 300 114 283 154 q 348 51 317 73 q 424 28 378 28 q 566 73 508 28 q 649 187 623 117 l 688 187 q 589 43 661 101 q 392 -14 517 -14 m 513 767 q 457 791 481 767 q 433 847 433 815 q 457 904 433 881 q 513 928 481 928 q 570 904 547 928 q 594 847 594 881 q 570 791 594 815 q 513 767 547 767 m 253 767 q 197 791 221 767 q 174 847 174 815 q 197 904 174 881 q 253 928 221 928 q 310 904 287 928 q 334 847 334 881 q 310 791 334 815 q 253 767 287 767 z "},"ė":{"ha":741,"x_min":57,"x_max":688,"o":"m 392 -14 q 220 25 296 -14 q 101 138 144 63 q 57 319 57 212 q 99 501 57 427 q 214 614 140 576 q 385 653 288 653 q 552 611 486 653 q 649 503 617 569 q 681 360 681 436 l 149 360 l 149 397 l 474 397 q 471 476 474 437 q 460 547 469 515 q 434 598 452 578 q 385 617 416 617 q 328 595 350 617 q 293 534 306 573 q 275 444 281 496 q 270 333 270 393 q 277 210 270 266 q 300 114 283 154 q 348 51 317 73 q 424 28 378 28 q 566 73 508 28 q 649 187 623 117 l 688 187 q 589 43 661 101 q 392 -14 517 -14 m 384 817 q 301 851 335 817 q 267 935 267 885 q 301 1019 267 985 q 384 1053 335 1053 q 469 1019 435 1053 q 503 935 503 985 q 469 851 503 885 q 384 817 435 817 z "},"è":{"ha":741,"x_min":57,"x_max":688,"o":"m 392 -14 q 220 25 296 -14 q 101 138 144 63 q 57 319 57 212 q 99 501 57 427 q 214 614 140 576 q 385 653 288 653 q 552 611 486 653 q 649 503 617 569 q 681 360 681 436 l 149 360 l 149 397 l 474 397 q 471 476 474 437 q 460 547 469 515 q 434 598 452 578 q 385 617 416 617 q 328 595 350 617 q 293 534 306 573 q 275 444 281 496 q 270 333 270 393 q 277 210 270 266 q 300 114 283 154 q 348 51 317 73 q 424 28 378 28 q 566 73 508 28 q 649 187 623 117 l 688 187 q 589 43 661 101 q 392 -14 517 -14 m 440 758 l 253 825 q 202 856 221 833 q 180 907 183 879 q 192 957 178 935 q 231 985 205 976 q 286 986 257 994 q 337 945 316 978 l 459 783 l 440 758 z "},"ē":{"ha":741,"x_min":57,"x_max":688,"o":"m 392 -14 q 220 25 296 -14 q 101 138 144 63 q 57 319 57 212 q 99 501 57 427 q 214 614 140 576 q 385 653 288 653 q 552 611 486 653 q 649 503 617 569 q 681 360 681 436 l 149 360 l 149 397 l 474 397 q 471 476 474 437 q 460 547 469 515 q 434 598 452 578 q 385 617 416 617 q 328 595 350 617 q 293 534 306 573 q 275 444 281 496 q 270 333 270 393 q 277 210 270 266 q 300 114 283 154 q 348 51 317 73 q 424 28 378 28 q 566 73 508 28 q 649 187 623 117 l 688 187 q 589 43 661 101 q 392 -14 517 -14 m 217 778 l 217 814 l 551 814 l 551 778 l 217 778 z "},"ę":{"ha":741,"x_min":57,"x_max":688,"o":"m 392 -14 q 220 25 296 -14 q 101 138 144 63 q 57 319 57 212 q 99 501 57 427 q 214 614 140 576 q 385 653 288 653 q 552 611 486 653 q 649 503 617 569 q 681 360 681 436 l 149 360 l 149 397 l 474 397 q 471 476 474 437 q 460 547 469 515 q 434 598 452 578 q 385 617 416 617 q 328 595 350 617 q 293 534 306 573 q 275 444 281 496 q 270 333 270 393 q 277 210 270 266 q 300 114 283 154 q 348 51 317 73 q 424 28 378 28 q 566 73 508 28 q 649 187 623 117 l 688 187 q 589 43 661 101 q 392 -14 517 -14 m 434 -310 q 349 -297 388 -310 q 287 -258 310 -285 q 263 -190 263 -232 q 285 -114 263 -149 q 343 -51 307 -79 q 421 -3 379 -23 q 503 29 463 17 l 513 6 q 484 -24 499 -2 q 458 -79 469 -47 q 448 -152 448 -112 q 464 -224 448 -199 q 509 -249 481 -249 q 551 -233 535 -249 q 580 -194 567 -217 l 607 -209 q 580 -252 597 -228 q 528 -293 562 -276 q 434 -310 494 -310 z "},"f":{"ha":576,"x_min":30,"x_max":681,"o":"m 153 0 l 153 710 q 194 886 153 808 q 311 1010 236 965 q 489 1056 387 1056 q 593 1031 551 1056 q 658 970 636 1006 q 681 897 681 933 q 646 813 681 842 q 569 783 612 783 q 520 794 545 783 q 478 828 495 805 q 461 887 461 851 q 494 964 461 937 q 566 992 527 992 q 620 981 594 992 q 663 948 646 969 q 679 897 679 927 l 643 897 q 624 957 643 930 q 573 1002 606 985 q 499 1019 540 1019 q 407 988 442 1019 q 356 898 372 958 q 340 750 340 838 l 340 0 l 153 0 m 30 0 l 30 37 l 505 37 l 505 0 l 30 0 m 30 602 l 30 639 l 533 639 l 533 602 l 30 602 z "},"g":{"ha":897,"x_min":37,"x_max":869,"o":"m 368 -361 q 244 -351 303 -361 q 138 -319 185 -341 q 64 -263 91 -297 q 37 -180 37 -228 q 59 -109 37 -137 q 115 -65 81 -81 q 182 -43 148 -49 q 239 -37 215 -37 l 267 -37 q 217 -84 235 -53 q 199 -160 199 -114 q 222 -242 199 -205 q 291 -300 245 -278 q 406 -321 338 -321 q 491 -311 450 -321 q 564 -283 532 -302 q 614 -235 596 -265 q 633 -165 633 -206 q 613 -99 633 -124 q 557 -60 592 -73 q 476 -47 522 -47 q 429 -47 462 -47 q 364 -47 397 -47 q 316 -47 331 -47 q 145 -13 210 -47 q 81 92 81 21 q 107 166 81 136 q 174 215 132 196 q 265 242 215 233 q 365 250 315 250 l 363 231 q 317 226 342 231 q 268 212 292 222 q 228 189 244 202 q 213 161 213 176 q 247 125 213 133 q 338 117 281 117 q 386 118 362 117 q 434 118 410 118 q 476 119 457 119 q 558 109 515 119 q 638 73 601 99 q 697 2 674 48 q 720 -114 720 -43 q 692 -230 720 -182 q 614 -306 663 -277 q 501 -348 565 -335 q 368 -361 438 -361 m 354 224 q 256 236 306 224 q 164 273 206 248 q 97 340 122 299 q 71 438 71 381 q 97 536 71 496 q 164 602 122 577 q 256 640 206 628 q 354 652 306 652 q 453 640 403 652 q 543 602 502 628 q 609 536 584 577 q 634 438 634 496 q 609 340 634 381 q 543 273 584 299 q 453 236 502 248 q 354 224 403 224 m 354 260 q 402 283 383 260 q 430 345 421 305 q 439 438 439 385 q 430 534 439 494 q 402 595 421 574 q 354 616 383 616 q 307 595 326 616 q 279 534 288 574 q 270 438 270 494 q 276 345 270 385 q 299 283 281 305 q 354 260 317 260 m 778 430 q 717 453 744 430 q 690 517 690 476 q 718 580 690 560 q 778 599 745 599 q 838 580 809 599 q 867 524 867 560 l 831 524 q 803 585 831 559 q 730 610 775 610 q 675 599 706 610 q 618 558 644 588 q 577 472 591 528 l 551 491 q 595 584 565 550 q 660 632 625 618 q 727 646 696 646 q 803 628 772 646 q 852 582 835 610 q 869 524 869 553 q 840 451 869 472 q 778 430 812 430 z "},"ğ":{"ha":897,"x_min":37,"x_max":869,"o":"m 368 -361 q 244 -351 303 -361 q 138 -319 185 -341 q 64 -263 91 -297 q 37 -180 37 -228 q 59 -109 37 -137 q 115 -65 81 -81 q 182 -43 148 -49 q 239 -37 215 -37 l 267 -37 q 217 -84 235 -53 q 199 -160 199 -114 q 222 -242 199 -205 q 291 -300 245 -278 q 406 -321 338 -321 q 491 -311 450 -321 q 564 -283 532 -302 q 614 -235 596 -265 q 633 -165 633 -206 q 613 -99 633 -124 q 557 -60 592 -73 q 476 -47 522 -47 q 429 -47 462 -47 q 364 -47 397 -47 q 316 -47 331 -47 q 145 -13 210 -47 q 81 92 81 21 q 107 166 81 136 q 174 215 132 196 q 265 242 215 233 q 365 250 315 250 l 363 231 q 317 226 342 231 q 268 212 292 222 q 228 189 244 202 q 213 161 213 176 q 247 125 213 133 q 338 117 281 117 q 386 118 362 117 q 434 118 410 118 q 476 119 457 119 q 558 109 515 119 q 638 73 601 99 q 697 2 674 48 q 720 -114 720 -43 q 692 -230 720 -182 q 614 -306 663 -277 q 501 -348 565 -335 q 368 -361 438 -361 m 354 224 q 256 236 306 224 q 164 273 206 248 q 97 340 122 299 q 71 438 71 381 q 97 536 71 496 q 164 602 122 577 q 256 640 206 628 q 354 652 306 652 q 453 640 403 652 q 543 602 502 628 q 609 536 584 577 q 634 438 634 496 q 609 340 634 381 q 543 273 584 299 q 453 236 502 248 q 354 224 403 224 m 354 260 q 402 283 383 260 q 430 345 421 305 q 439 438 439 385 q 430 534 439 494 q 402 595 421 574 q 354 616 383 616 q 307 595 326 616 q 279 534 288 574 q 270 438 270 494 q 276 345 270 385 q 299 283 281 305 q 354 260 317 260 m 778 430 q 717 453 744 430 q 690 517 690 476 q 718 580 690 560 q 778 599 745 599 q 838 580 809 599 q 867 524 867 560 l 831 524 q 803 585 831 559 q 730 610 775 610 q 675 599 706 610 q 618 558 644 588 q 577 472 591 528 l 551 491 q 595 584 565 550 q 660 632 625 618 q 727 646 696 646 q 803 628 772 646 q 852 582 835 610 q 869 524 869 553 q 840 451 869 472 q 778 430 812 430 m 394 764 q 298 791 335 764 q 244 868 261 819 q 228 985 228 918 l 256 985 q 275 933 256 953 q 325 905 294 913 q 394 896 356 896 q 463 905 431 896 q 513 933 494 913 q 532 985 532 953 l 560 985 q 543 868 560 918 q 490 791 526 819 q 394 764 453 764 z "},"ĝ":{"ha":897,"x_min":37,"x_max":869,"o":"m 368 -361 q 244 -351 303 -361 q 138 -319 185 -341 q 64 -263 91 -297 q 37 -180 37 -228 q 59 -109 37 -137 q 115 -65 81 -81 q 182 -43 148 -49 q 239 -37 215 -37 l 267 -37 q 217 -84 235 -53 q 199 -160 199 -114 q 222 -242 199 -205 q 291 -300 245 -278 q 406 -321 338 -321 q 491 -311 450 -321 q 564 -283 532 -302 q 614 -235 596 -265 q 633 -165 633 -206 q 613 -99 633 -124 q 557 -60 592 -73 q 476 -47 522 -47 q 429 -47 462 -47 q 364 -47 397 -47 q 316 -47 331 -47 q 145 -13 210 -47 q 81 92 81 21 q 107 166 81 136 q 174 215 132 196 q 265 242 215 233 q 365 250 315 250 l 363 231 q 317 226 342 231 q 268 212 292 222 q 228 189 244 202 q 213 161 213 176 q 247 125 213 133 q 338 117 281 117 q 386 118 362 117 q 434 118 410 118 q 476 119 457 119 q 558 109 515 119 q 638 73 601 99 q 697 2 674 48 q 720 -114 720 -43 q 692 -230 720 -182 q 614 -306 663 -277 q 501 -348 565 -335 q 368 -361 438 -361 m 354 224 q 256 236 306 224 q 164 273 206 248 q 97 340 122 299 q 71 438 71 381 q 97 536 71 496 q 164 602 122 577 q 256 640 206 628 q 354 652 306 652 q 453 640 403 652 q 543 602 502 628 q 609 536 584 577 q 634 438 634 496 q 609 340 634 381 q 543 273 584 299 q 453 236 502 248 q 354 224 403 224 m 354 260 q 402 283 383 260 q 430 345 421 305 q 439 438 439 385 q 430 534 439 494 q 402 595 421 574 q 354 616 383 616 q 307 595 326 616 q 279 534 288 574 q 270 438 270 494 q 276 345 270 385 q 299 283 281 305 q 354 260 317 260 m 778 430 q 717 453 744 430 q 690 517 690 476 q 718 580 690 560 q 778 599 745 599 q 838 580 809 599 q 867 524 867 560 l 831 524 q 803 585 831 559 q 730 610 775 610 q 675 599 706 610 q 618 558 644 588 q 577 472 591 528 l 551 491 q 595 584 565 550 q 660 632 625 618 q 727 646 696 646 q 803 628 772 646 q 852 582 835 610 q 869 524 869 553 q 840 451 869 472 q 778 430 812 430 m 187 771 l 169 790 l 335 977 l 453 977 l 620 790 l 601 771 l 394 880 l 187 771 z "},"ģ":{"ha":897,"x_min":37,"x_max":869,"o":"m 368 -361 q 244 -351 303 -361 q 138 -319 185 -341 q 64 -263 91 -297 q 37 -180 37 -228 q 59 -109 37 -137 q 115 -65 81 -81 q 182 -43 148 -49 q 239 -37 215 -37 l 267 -37 q 217 -84 235 -53 q 199 -160 199 -114 q 222 -242 199 -205 q 291 -300 245 -278 q 406 -321 338 -321 q 491 -311 450 -321 q 564 -283 532 -302 q 614 -235 596 -265 q 633 -165 633 -206 q 613 -99 633 -124 q 557 -60 592 -73 q 476 -47 522 -47 q 429 -47 462 -47 q 364 -47 397 -47 q 316 -47 331 -47 q 145 -13 210 -47 q 81 92 81 21 q 107 166 81 136 q 174 215 132 196 q 265 242 215 233 q 365 250 315 250 l 363 231 q 317 226 342 231 q 268 212 292 222 q 228 189 244 202 q 213 161 213 176 q 247 125 213 133 q 338 117 281 117 q 386 118 362 117 q 434 118 410 118 q 476 119 457 119 q 558 109 515 119 q 638 73 601 99 q 697 2 674 48 q 720 -114 720 -43 q 692 -230 720 -182 q 614 -306 663 -277 q 501 -348 565 -335 q 368 -361 438 -361 m 354 224 q 256 236 306 224 q 164 273 206 248 q 97 340 122 299 q 71 438 71 381 q 97 536 71 496 q 164 602 122 577 q 256 640 206 628 q 354 652 306 652 q 453 640 403 652 q 543 602 502 628 q 609 536 584 577 q 634 438 634 496 q 609 340 634 381 q 543 273 584 299 q 453 236 502 248 q 354 224 403 224 m 354 260 q 402 283 383 260 q 430 345 421 305 q 439 438 439 385 q 430 534 439 494 q 402 595 421 574 q 354 616 383 616 q 307 595 326 616 q 279 534 288 574 q 270 438 270 494 q 276 345 270 385 q 299 283 281 305 q 354 260 317 260 m 778 430 q 717 453 744 430 q 690 517 690 476 q 718 580 690 560 q 778 599 745 599 q 838 580 809 599 q 867 524 867 560 l 831 524 q 803 585 831 559 q 730 610 775 610 q 675 599 706 610 q 618 558 644 588 q 577 472 591 528 l 551 491 q 595 584 565 550 q 660 632 625 618 q 727 646 696 646 q 803 628 772 646 q 852 582 835 610 q 869 524 869 553 q 840 451 869 472 q 778 430 812 430 m 397 772 q 318 809 351 772 q 285 911 285 846 q 313 1022 285 972 q 389 1101 340 1072 q 506 1131 438 1131 l 506 1100 q 408 1076 453 1100 q 339 1006 363 1052 q 318 895 314 960 l 308 895 q 321 929 308 912 q 356 958 334 946 q 403 969 378 969 q 478 940 452 969 q 504 871 504 910 q 490 822 504 844 q 451 785 475 799 q 397 772 426 772 z "},"ġ":{"ha":897,"x_min":37,"x_max":869,"o":"m 368 -361 q 244 -351 303 -361 q 138 -319 185 -341 q 64 -263 91 -297 q 37 -180 37 -228 q 59 -109 37 -137 q 115 -65 81 -81 q 182 -43 148 -49 q 239 -37 215 -37 l 267 -37 q 217 -84 235 -53 q 199 -160 199 -114 q 222 -242 199 -205 q 291 -300 245 -278 q 406 -321 338 -321 q 491 -311 450 -321 q 564 -283 532 -302 q 614 -235 596 -265 q 633 -165 633 -206 q 613 -99 633 -124 q 557 -60 592 -73 q 476 -47 522 -47 q 429 -47 462 -47 q 364 -47 397 -47 q 316 -47 331 -47 q 145 -13 210 -47 q 81 92 81 21 q 107 166 81 136 q 174 215 132 196 q 265 242 215 233 q 365 250 315 250 l 363 231 q 317 226 342 231 q 268 212 292 222 q 228 189 244 202 q 213 161 213 176 q 247 125 213 133 q 338 117 281 117 q 386 118 362 117 q 434 118 410 118 q 476 119 457 119 q 558 109 515 119 q 638 73 601 99 q 697 2 674 48 q 720 -114 720 -43 q 692 -230 720 -182 q 614 -306 663 -277 q 501 -348 565 -335 q 368 -361 438 -361 m 354 224 q 256 236 306 224 q 164 273 206 248 q 97 340 122 299 q 71 438 71 381 q 97 536 71 496 q 164 602 122 577 q 256 640 206 628 q 354 652 306 652 q 453 640 403 652 q 543 602 502 628 q 609 536 584 577 q 634 438 634 496 q 609 340 634 381 q 543 273 584 299 q 453 236 502 248 q 354 224 403 224 m 354 260 q 402 283 383 260 q 430 345 421 305 q 439 438 439 385 q 430 534 439 494 q 402 595 421 574 q 354 616 383 616 q 307 595 326 616 q 279 534 288 574 q 270 438 270 494 q 276 345 270 385 q 299 283 281 305 q 354 260 317 260 m 778 430 q 717 453 744 430 q 690 517 690 476 q 718 580 690 560 q 778 599 745 599 q 838 580 809 599 q 867 524 867 560 l 831 524 q 803 585 831 559 q 730 610 775 610 q 675 599 706 610 q 618 558 644 588 q 577 472 591 528 l 551 491 q 595 584 565 550 q 660 632 625 618 q 727 646 696 646 q 803 628 772 646 q 852 582 835 610 q 869 524 869 553 q 840 451 869 472 q 778 430 812 430 m 394 817 q 310 851 344 817 q 276 935 276 885 q 310 1019 276 985 q 394 1053 344 1053 q 478 1019 444 1053 q 513 935 513 985 q 478 851 513 885 q 394 817 444 817 z "},"h":{"ha":877,"x_min":35,"x_max":842,"o":"m 35 0 l 35 36 l 131 36 l 131 1006 l 35 1006 l 35 1042 l 326 1042 l 326 36 l 400 36 l 400 0 l 35 0 m 481 0 l 481 36 l 555 36 l 555 421 q 550 514 555 479 q 530 565 544 549 q 488 581 516 581 q 423 557 453 581 q 372 493 394 533 q 338 407 350 454 q 326 310 326 359 l 298 310 q 311 417 298 358 q 353 530 324 476 q 431 618 383 583 q 551 653 480 653 q 672 626 629 653 q 731 551 714 599 q 747 444 747 504 l 747 36 l 842 36 l 842 0 l 481 0 z "},"ħ":{"ha":842,"x_min":35,"x_max":842,"o":"m 51 808 l 51 844 l 456 844 l 456 808 l 51 808 m 35 0 l 35 36 l 131 36 l 131 1006 l 35 1006 l 35 1042 l 326 1042 l 326 36 l 400 36 l 400 0 l 35 0 m 481 0 l 481 36 l 555 36 l 555 421 q 550 514 555 479 q 530 565 544 549 q 488 581 516 581 q 423 557 453 581 q 372 493 394 533 q 338 407 350 454 q 326 310 326 359 l 298 310 q 311 417 298 358 q 353 530 324 476 q 431 618 383 583 q 551 653 480 653 q 672 626 629 653 q 731 551 714 599 q 747 444 747 504 l 747 36 l 842 36 l 842 0 l 481 0 z "},"ĥ":{"ha":877,"x_min":35,"x_max":842,"o":"m 35 0 l 35 36 l 131 36 l 131 1006 l 35 1006 l 35 1042 l 326 1042 l 326 36 l 400 36 l 400 0 l 35 0 m 481 0 l 481 36 l 555 36 l 555 421 q 550 514 555 479 q 530 565 544 549 q 488 581 516 581 q 423 557 453 581 q 372 493 394 533 q 338 407 350 454 q 326 310 326 359 l 298 310 q 311 417 298 358 q 353 530 324 476 q 431 618 383 583 q 551 653 480 653 q 672 626 629 653 q 731 551 714 599 q 747 444 747 504 l 747 36 l 842 36 l 842 0 l 481 0 m 256 1115 l 238 1134 l 405 1322 l 523 1322 l 690 1134 l 671 1115 l 463 1224 l 256 1115 z "},"i":{"ha":460,"x_min":43,"x_max":428,"o":"m 235 817 q 152 851 186 817 q 117 935 117 885 q 152 1019 117 985 q 235 1053 186 1053 q 320 1019 286 1053 q 353 935 353 985 q 320 851 353 885 q 235 817 286 817 m 333 639 l 333 36 l 428 36 l 428 0 l 43 0 l 43 36 l 138 36 l 138 603 l 43 603 l 43 639 l 333 639 z "},"ı":{"ha":467,"x_min":43,"x_max":428,"o":"m 333 639 l 333 36 l 428 36 l 428 0 l 43 0 l 43 36 l 138 36 l 138 603 l 43 603 l 43 639 l 333 639 z "},"í":{"ha":467,"x_min":43,"x_max":442,"o":"m 333 639 l 333 36 l 428 36 l 428 0 l 43 0 l 43 36 l 138 36 l 138 603 l 43 603 l 43 639 l 333 639 m 179 758 l 160 783 l 282 945 q 333 986 303 978 q 388 985 362 994 q 427 957 415 976 q 439 907 442 935 q 417 856 436 879 q 365 825 399 833 l 179 758 z "},"ĭ":{"ha":467,"x_min":43,"x_max":428,"o":"m 333 639 l 333 36 l 428 36 l 428 0 l 43 0 l 43 36 l 138 36 l 138 603 l 43 603 l 43 639 l 333 639 m 236 764 q 140 791 177 764 q 87 868 103 819 q 70 985 70 918 l 98 985 q 117 933 98 953 q 167 905 136 913 q 236 896 199 896 q 305 905 274 896 q 356 933 337 913 q 374 985 374 953 l 403 985 q 386 868 403 918 q 332 791 369 819 q 236 764 295 764 z "},"î":{"ha":467,"x_min":11,"x_max":463,"o":"m 333 639 l 333 36 l 428 36 l 428 0 l 43 0 l 43 36 l 138 36 l 138 603 l 43 603 l 43 639 l 333 639 m 29 771 l 11 790 l 178 977 l 296 977 l 463 790 l 444 771 l 236 880 l 29 771 z "},"ï":{"ha":467,"x_min":26,"x_max":446,"o":"m 333 639 l 333 36 l 428 36 l 428 0 l 43 0 l 43 36 l 138 36 l 138 603 l 43 603 l 43 639 l 333 639 m 366 767 q 310 791 333 767 q 286 847 286 815 q 310 904 286 881 q 366 928 333 928 q 423 904 399 928 q 447 847 447 881 q 423 791 447 815 q 366 767 399 767 m 106 767 q 50 791 74 767 q 26 847 26 815 q 50 904 26 881 q 106 928 74 928 q 163 904 140 928 q 187 847 187 881 q 163 791 187 815 q 106 767 140 767 z "},"ì":{"ha":467,"x_min":31,"x_max":428,"o":"m 333 639 l 333 36 l 428 36 l 428 0 l 43 0 l 43 36 l 138 36 l 138 603 l 43 603 l 43 639 l 333 639 m 292 758 l 106 825 q 55 856 74 833 q 33 907 35 879 q 45 957 31 935 q 84 985 58 976 q 139 986 110 994 q 190 945 169 978 l 312 783 l 292 758 z "},"ī":{"ha":467,"x_min":43,"x_max":428,"o":"m 333 639 l 333 36 l 428 36 l 428 0 l 43 0 l 43 36 l 138 36 l 138 603 l 43 603 l 43 639 l 333 639 m 69 778 l 69 814 l 403 814 l 403 778 l 69 778 z "},"į":{"ha":467,"x_min":43,"x_max":428,"o":"m 333 639 l 333 36 l 428 36 l 428 0 l 43 0 l 43 36 l 138 36 l 138 603 l 43 603 l 43 639 l 333 639 m 236 817 q 153 851 187 817 q 119 935 119 885 q 153 1019 119 985 q 236 1053 187 1053 q 321 1019 287 1053 q 355 935 355 985 q 321 851 355 885 q 236 817 287 817 m 227 -310 q 142 -297 181 -310 q 80 -258 103 -285 q 56 -190 56 -232 q 78 -114 56 -149 q 136 -51 100 -79 q 214 -3 172 -23 q 296 29 256 17 l 306 6 q 277 -24 292 -2 q 251 -79 262 -47 q 241 -152 241 -112 q 257 -224 241 -199 q 302 -249 274 -249 q 344 -233 328 -249 q 373 -194 360 -217 l 400 -209 q 373 -252 390 -228 q 321 -293 355 -276 q 227 -310 287 -310 z "},"ĩ":{"ha":467,"x_min":-6,"x_max":477,"o":"m 333 639 l 333 36 l 428 36 l 428 0 l 43 0 l 43 36 l 138 36 l 138 603 l 43 603 l 43 639 l 333 639 m 348 750 q 273 767 304 750 q 216 805 242 783 q 163 843 190 826 q 103 859 137 859 q 51 838 72 859 q 31 778 31 817 l -6 778 q 11 883 -6 837 q 60 956 28 929 q 137 982 92 982 q 213 965 182 982 q 267 927 243 949 q 314 889 291 906 q 367 872 338 872 q 421 894 401 872 q 441 954 441 916 l 477 954 q 466 843 477 889 q 427 774 455 797 q 348 750 399 750 z "},"ĳ":{"ha":865,"x_min":43,"x_max":753,"o":"m 235 817 q 152 851 186 817 q 117 935 117 885 q 152 1019 117 985 q 235 1053 186 1053 q 320 1019 286 1053 q 353 935 353 985 q 320 851 353 885 q 235 817 286 817 m 333 639 l 333 36 l 428 36 l 428 0 l 43 0 l 43 36 l 138 36 l 138 603 l 43 603 l 43 639 l 333 639 m 440 -361 q 331 -339 378 -361 q 257 -279 284 -317 q 231 -196 231 -242 q 264 -114 231 -145 q 344 -82 297 -82 q 398 -95 372 -82 q 440 -131 423 -108 q 456 -188 456 -155 q 426 -261 456 -230 q 346 -292 397 -292 q 289 -278 315 -292 q 248 -242 263 -264 q 232 -196 232 -220 l 268 -196 q 291 -262 268 -233 q 351 -309 315 -292 q 428 -326 388 -326 q 503 -296 478 -326 q 539 -215 529 -266 q 549 -101 548 -164 q 550 28 550 -37 l 550 602 l 426 602 l 426 639 l 744 639 l 744 -16 q 722 -146 744 -84 q 659 -257 700 -208 q 563 -333 619 -305 q 440 -361 508 -361 m 635 819 q 552 854 586 819 q 517 938 517 888 q 552 1022 517 988 q 635 1056 586 1056 q 720 1022 686 1056 q 753 938 753 988 q 720 854 753 888 q 635 819 686 819 z "},"j":{"ha":469,"x_min":-158,"x_max":365,"o":"m 51 -361 q -58 -339 -11 -361 q -132 -279 -105 -317 q -158 -196 -158 -242 q -125 -114 -158 -145 q -44 -82 -92 -82 q 9 -95 -17 -82 q 51 -131 34 -108 q 67 -188 67 -155 q 38 -261 67 -230 q -43 -292 8 -292 q -100 -278 -74 -292 q -141 -242 -126 -264 q -157 -196 -157 -220 l -121 -196 q -98 -262 -121 -233 q -37 -309 -74 -292 q 40 -326 -1 -326 q 115 -296 89 -326 q 150 -215 140 -266 q 160 -101 159 -164 q 161 28 161 -37 l 161 602 l 38 602 l 38 639 l 355 639 l 355 -16 q 333 -146 355 -84 q 270 -257 311 -208 q 174 -333 230 -305 q 51 -361 119 -361 m 247 819 q 163 854 197 819 q 128 938 128 888 q 163 1022 128 988 q 247 1056 197 1056 q 331 1022 297 1056 q 365 938 365 988 q 331 854 365 888 q 247 819 297 819 z "},"ȷ":{"ha":469,"x_min":-158,"x_max":355,"o":"m 51 -361 q -58 -339 -11 -361 q -132 -279 -105 -317 q -158 -196 -158 -242 q -125 -114 -158 -145 q -44 -82 -92 -82 q 9 -95 -17 -82 q 51 -131 34 -108 q 67 -188 67 -155 q 38 -261 67 -230 q -43 -292 8 -292 q -100 -278 -74 -292 q -141 -242 -126 -264 q -157 -196 -157 -220 l -121 -196 q -98 -262 -121 -233 q -37 -309 -74 -292 q 40 -326 -1 -326 q 115 -296 89 -326 q 150 -215 140 -266 q 160 -101 159 -164 q 161 28 161 -37 l 161 602 l 38 602 l 38 639 l 355 639 l 355 -16 q 333 -146 355 -84 q 270 -257 311 -208 q 174 -333 230 -305 q 51 -361 119 -361 z "},"ĵ":{"ha":469,"x_min":-158,"x_max":461,"o":"m 51 -361 q -58 -339 -11 -361 q -132 -279 -105 -317 q -158 -196 -158 -242 q -125 -114 -158 -145 q -44 -82 -92 -82 q 9 -95 -17 -82 q 51 -131 34 -108 q 67 -188 67 -155 q 38 -261 67 -230 q -43 -292 8 -292 q -100 -278 -74 -292 q -141 -242 -126 -264 q -157 -196 -157 -220 l -121 -196 q -98 -262 -121 -233 q -37 -309 -74 -292 q 40 -326 -1 -326 q 115 -296 89 -326 q 150 -215 140 -266 q 160 -101 159 -164 q 161 28 161 -37 l 161 602 l 38 602 l 38 639 l 355 639 l 355 -16 q 333 -146 355 -84 q 270 -257 311 -208 q 174 -333 230 -305 q 51 -361 119 -361 m 28 771 l 10 790 l 176 977 l 294 977 l 461 790 l 442 771 l 235 880 l 28 771 z "},"k":{"ha":904,"x_min":35,"x_max":883,"o":"m 35 0 l 35 36 l 159 36 l 159 1006 l 35 1006 l 35 1042 l 353 1042 l 353 36 l 430 36 l 430 0 l 35 0 m 493 0 l 493 36 l 566 36 l 317 372 l 641 603 l 509 603 l 509 639 l 815 639 l 815 603 l 694 603 l 486 448 l 802 36 l 883 36 l 883 0 l 493 0 z "},"ķ":{"ha":904,"x_min":35,"x_max":883,"o":"m 35 0 l 35 36 l 159 36 l 159 1006 l 35 1006 l 35 1042 l 353 1042 l 353 36 l 430 36 l 430 0 l 35 0 m 493 0 l 493 36 l 566 36 l 317 372 l 641 603 l 509 603 l 509 639 l 815 639 l 815 603 l 694 603 l 486 448 l 802 36 l 883 36 l 883 0 l 493 0 m 347 -492 l 347 -461 q 445 -437 401 -461 q 515 -367 490 -412 q 535 -256 540 -321 l 544 -256 q 532 -290 545 -272 q 497 -319 519 -307 q 449 -331 475 -331 q 375 -301 401 -331 q 349 -232 349 -272 q 363 -182 349 -205 q 402 -146 378 -160 q 456 -133 427 -133 q 534 -169 501 -133 q 567 -272 567 -206 q 541 -383 567 -333 q 464 -462 514 -433 q 347 -492 415 -492 z "},"ĸ":{"ha":905,"x_min":35,"x_max":884,"o":"m 595 0 l 319 372 l 694 639 l 746 639 l 488 448 l 832 0 l 595 0 m 35 0 l 35 36 l 431 36 l 431 0 l 35 0 m 160 0 l 160 603 l 35 603 l 35 639 l 355 639 l 355 0 l 160 0 m 492 0 l 492 36 l 884 36 l 884 0 l 492 0 m 506 603 l 506 639 l 816 639 l 816 603 l 506 603 z "},"l":{"ha":512,"x_min":35,"x_max":476,"o":"m 353 1042 l 353 36 l 476 36 l 476 0 l 35 0 l 35 36 l 159 36 l 159 1006 l 35 1006 l 35 1042 l 353 1042 z "},"ĺ":{"ha":512,"x_min":35,"x_max":476,"o":"m 353 1042 l 353 36 l 476 36 l 476 0 l 35 0 l 35 36 l 159 36 l 159 1006 l 35 1006 l 35 1042 l 353 1042 m 201 1160 l 181 1185 l 303 1348 q 354 1389 325 1381 q 410 1388 383 1397 q 449 1360 436 1379 q 460 1310 463 1338 q 439 1259 458 1282 q 387 1228 420 1236 l 201 1160 z "},"ľ":{"ha":512,"x_min":35,"x_max":669,"o":"m 353 1042 l 353 36 l 476 36 l 476 0 l 35 0 l 35 36 l 159 36 l 159 1006 l 35 1006 l 35 1042 l 353 1042 m 444 677 l 444 709 q 522 724 486 709 q 585 766 558 738 q 625 833 611 794 q 635 922 638 873 l 644 922 q 632 890 645 907 q 598 861 619 873 q 549 849 576 849 q 474 879 500 849 q 447 949 447 908 q 479 1019 447 990 q 556 1049 511 1049 q 636 1011 602 1049 q 669 906 669 974 q 642 792 669 844 q 565 708 615 740 q 444 677 515 677 z "},"ļ":{"ha":512,"x_min":35,"x_max":476,"o":"m 353 1042 l 353 36 l 476 36 l 476 0 l 35 0 l 35 36 l 159 36 l 159 1006 l 35 1006 l 35 1042 l 353 1042 m 155 -492 l 155 -461 q 253 -437 209 -461 q 323 -367 298 -412 q 343 -256 348 -321 l 353 -256 q 340 -290 353 -272 q 305 -319 327 -307 q 258 -331 283 -331 q 183 -301 209 -331 q 157 -232 157 -272 q 172 -182 157 -205 q 211 -146 186 -160 q 265 -133 235 -133 q 343 -169 310 -133 q 376 -272 376 -206 q 349 -383 376 -333 q 273 -462 322 -433 q 155 -492 223 -492 z "},"ŀ":{"ha":610,"x_min":35,"x_max":692,"o":"m 353 1042 l 353 36 l 476 36 l 476 0 l 35 0 l 35 36 l 159 36 l 159 1006 l 35 1006 l 35 1042 l 353 1042 m 567 472 q 504 489 532 472 q 459 535 476 506 q 442 597 442 563 q 459 660 442 631 q 504 706 476 689 q 567 723 532 723 q 630 706 601 723 q 675 660 658 689 q 692 597 692 631 q 675 535 692 563 q 630 489 658 506 q 567 472 601 472 z "},"ł":{"ha":512,"x_min":35,"x_max":502,"o":"m 37 485 l 37 528 l 502 806 l 502 763 l 37 485 m 353 1042 l 353 36 l 476 36 l 476 0 l 35 0 l 35 36 l 159 36 l 159 1006 l 35 1006 l 35 1042 l 353 1042 z "},"m":{"ha":1245,"x_min":35,"x_max":1210,"o":"m 324 639 l 324 36 l 394 36 l 394 0 l 35 0 l 35 36 l 131 36 l 131 603 l 35 603 l 35 639 l 324 639 m 719 444 l 719 36 l 790 36 l 790 0 l 456 0 l 456 36 l 527 36 l 527 424 q 523 518 527 482 q 507 569 519 553 q 469 585 494 585 q 412 561 439 585 q 366 497 385 537 q 335 409 346 456 q 324 314 324 361 l 301 313 q 312 420 301 362 q 351 532 324 479 q 425 619 378 585 q 542 653 472 653 q 648 626 610 653 q 703 551 687 599 q 719 444 719 504 m 1114 444 l 1114 36 l 1210 36 l 1210 0 l 852 0 l 852 36 l 923 36 l 923 424 q 918 518 923 482 q 899 569 913 553 q 860 585 885 585 q 803 561 829 585 q 758 497 777 537 q 730 409 740 456 q 719 314 719 361 l 696 313 q 706 420 696 362 q 742 532 716 479 q 814 619 767 585 q 933 653 860 653 q 1040 626 1000 653 q 1097 551 1079 599 q 1114 444 1114 504 z "},"n":{"ha":877,"x_min":35,"x_max":842,"o":"m 324 639 l 324 36 l 397 36 l 397 0 l 35 0 l 35 36 l 131 36 l 131 603 l 35 603 l 35 639 l 324 639 m 747 444 l 747 36 l 842 36 l 842 0 l 481 0 l 481 36 l 555 36 l 555 421 q 550 514 555 479 q 530 565 544 549 q 488 581 516 581 q 423 557 453 581 q 371 493 393 533 q 336 407 349 454 q 324 310 324 359 l 296 310 q 309 417 296 358 q 352 530 322 476 q 431 618 381 583 q 551 653 480 653 q 673 626 631 653 q 731 551 715 599 q 747 444 747 504 z "},"ń":{"ha":877,"x_min":35,"x_max":842,"o":"m 324 639 l 324 36 l 397 36 l 397 0 l 35 0 l 35 36 l 131 36 l 131 603 l 35 603 l 35 639 l 324 639 m 747 444 l 747 36 l 842 36 l 842 0 l 481 0 l 481 36 l 555 36 l 555 421 q 550 514 555 479 q 530 565 544 549 q 488 581 516 581 q 423 557 453 581 q 371 493 393 533 q 336 407 349 454 q 324 310 324 359 l 296 310 q 309 417 296 358 q 352 530 322 476 q 431 618 381 583 q 551 653 480 653 q 673 626 631 653 q 731 551 715 599 q 747 444 747 504 m 382 758 l 363 783 l 485 945 q 535 986 506 978 q 591 985 565 994 q 630 957 617 976 q 642 907 644 935 q 620 856 639 879 q 568 825 601 833 l 382 758 z "},"ŉ":{"ha":1074,"x_min":11,"x_max":1030,"o":"m 511 639 l 511 36 l 585 36 l 585 0 l 223 0 l 223 36 l 319 36 l 319 603 l 223 603 l 223 639 l 511 639 m 935 444 l 935 36 l 1030 36 l 1030 0 l 668 0 l 668 36 l 742 36 l 742 421 q 737 514 742 479 q 718 565 732 549 q 675 581 703 581 q 610 557 640 581 q 558 493 581 533 q 524 407 536 454 q 511 310 511 359 l 483 310 q 497 417 483 358 q 539 530 510 476 q 618 618 569 583 q 739 653 667 653 q 860 626 818 653 q 918 551 902 599 q 935 444 935 504 m 11 647 l 11 683 q 107 701 62 683 q 184 751 151 718 q 234 832 217 785 q 247 941 251 880 l 258 941 q 243 899 259 920 q 199 862 226 877 q 140 847 172 847 q 47 884 80 847 q 14 971 14 922 q 32 1033 14 1004 q 81 1078 51 1061 q 149 1094 112 1094 q 218 1074 186 1094 q 269 1014 250 1053 q 288 922 288 976 q 254 783 288 845 q 158 683 220 720 q 11 647 97 647 z "},"ň":{"ha":877,"x_min":35,"x_max":842,"o":"m 324 639 l 324 36 l 397 36 l 397 0 l 35 0 l 35 36 l 131 36 l 131 603 l 35 603 l 35 639 l 324 639 m 747 444 l 747 36 l 842 36 l 842 0 l 481 0 l 481 36 l 555 36 l 555 421 q 550 514 555 479 q 530 565 544 549 q 488 581 516 581 q 423 557 453 581 q 371 493 393 533 q 336 407 349 454 q 324 310 324 359 l 296 310 q 309 417 296 358 q 352 530 322 476 q 431 618 381 583 q 551 653 480 653 q 673 626 631 653 q 731 551 715 599 q 747 444 747 504 m 381 778 l 214 966 l 233 983 l 440 875 l 647 983 l 665 966 l 499 778 l 381 778 z "},"ņ":{"ha":877,"x_min":35,"x_max":842,"o":"m 324 639 l 324 36 l 397 36 l 397 0 l 35 0 l 35 36 l 131 36 l 131 603 l 35 603 l 35 639 l 324 639 m 747 444 l 747 36 l 842 36 l 842 0 l 481 0 l 481 36 l 555 36 l 555 421 q 550 514 555 479 q 530 565 544 549 q 488 581 516 581 q 423 557 453 581 q 371 493 393 533 q 336 407 349 454 q 324 310 324 359 l 296 310 q 309 417 296 358 q 352 530 322 476 q 431 618 381 583 q 551 653 480 653 q 673 626 631 653 q 731 551 715 599 q 747 444 747 504 m 331 -492 l 331 -461 q 430 -437 385 -461 q 499 -367 474 -412 q 519 -256 524 -321 l 529 -256 q 517 -290 530 -272 q 482 -319 503 -307 q 434 -331 460 -331 q 359 -301 385 -331 q 333 -232 333 -272 q 348 -182 333 -205 q 387 -146 363 -160 q 441 -133 412 -133 q 519 -169 486 -133 q 552 -272 552 -206 q 525 -383 552 -333 q 449 -462 499 -433 q 331 -492 399 -492 z "},"ñ":{"ha":877,"x_min":35,"x_max":842,"o":"m 324 639 l 324 36 l 397 36 l 397 0 l 35 0 l 35 36 l 131 36 l 131 603 l 35 603 l 35 639 l 324 639 m 747 444 l 747 36 l 842 36 l 842 0 l 481 0 l 481 36 l 555 36 l 555 421 q 550 514 555 479 q 530 565 544 549 q 488 581 516 581 q 423 557 453 581 q 371 493 393 533 q 336 407 349 454 q 324 310 324 359 l 296 310 q 309 417 296 358 q 352 530 322 476 q 431 618 381 583 q 551 653 480 653 q 673 626 631 653 q 731 551 715 599 q 747 444 747 504 m 551 750 q 476 767 507 750 q 418 805 444 783 q 366 843 392 826 q 306 859 340 859 q 254 838 274 859 q 234 778 234 817 l 197 778 q 214 883 197 837 q 263 956 231 929 q 340 982 295 982 q 415 965 385 982 q 470 927 446 949 q 517 889 494 906 q 570 872 540 872 q 624 894 604 872 q 644 954 644 916 l 680 954 q 669 843 680 889 q 630 774 658 797 q 551 750 602 750 z "},"ŋ":{"ha":872,"x_min":40,"x_max":755,"o":"m 450 -361 q 342 -339 389 -361 q 268 -279 294 -317 q 241 -196 241 -242 q 274 -114 241 -145 q 355 -82 308 -82 q 408 -95 383 -82 q 450 -131 434 -108 q 467 -188 467 -155 q 438 -261 467 -230 q 358 -292 408 -292 q 301 -278 327 -292 q 259 -242 275 -264 q 242 -196 242 -220 l 278 -196 q 302 -262 278 -233 q 363 -309 326 -292 q 442 -326 400 -326 q 517 -296 492 -326 q 551 -215 542 -266 q 560 -101 560 -165 q 560 28 560 -38 l 560 418 l 755 444 l 754 -16 q 732 -145 754 -83 q 670 -256 710 -208 q 574 -333 629 -305 q 450 -361 518 -361 m 40 0 l 40 37 l 424 37 l 424 0 l 40 0 m 137 0 l 137 602 l 40 602 l 40 639 l 328 639 l 328 0 l 137 0 m 303 313 q 316 414 303 356 q 359 525 330 471 q 437 616 389 580 q 555 652 485 652 q 678 625 635 652 q 738 551 721 599 q 755 444 755 504 l 560 418 q 555 512 560 476 q 535 564 549 548 q 495 581 522 581 q 431 556 461 581 q 378 492 401 532 q 342 406 355 453 q 328 313 328 359 l 303 313 z "},"o":{"ha":791,"x_min":57,"x_max":735,"o":"m 396 -14 q 215 32 291 -14 q 98 153 139 78 q 57 319 57 229 q 98 485 57 410 q 215 607 139 561 q 396 653 291 653 q 577 607 501 653 q 694 485 653 561 q 735 319 735 410 q 694 153 735 229 q 577 32 653 78 q 396 -14 501 -14 m 396 22 q 460 45 434 22 q 501 109 485 68 q 523 204 516 150 q 529 319 529 258 q 523 435 529 382 q 501 530 516 489 q 460 594 485 571 q 396 617 434 617 q 332 594 358 617 q 292 530 307 571 q 270 435 276 489 q 263 319 263 382 q 270 204 263 258 q 292 109 276 150 q 332 45 307 68 q 396 22 358 22 z "},"ó":{"ha":791,"x_min":57,"x_max":735,"o":"m 396 -14 q 215 32 291 -14 q 98 153 139 78 q 57 319 57 229 q 98 485 57 410 q 215 607 139 561 q 396 653 291 653 q 577 607 501 653 q 694 485 653 561 q 735 319 735 410 q 694 153 735 229 q 577 32 653 78 q 396 -14 501 -14 m 396 22 q 460 45 434 22 q 501 109 485 68 q 523 204 516 150 q 529 319 529 258 q 523 435 529 382 q 501 530 516 489 q 460 594 485 571 q 396 617 434 617 q 332 594 358 617 q 292 530 307 571 q 270 435 276 489 q 263 319 263 382 q 270 204 263 258 q 292 109 276 150 q 332 45 307 68 q 396 22 358 22 m 338 758 l 319 783 l 441 945 q 492 986 463 978 q 547 985 521 994 q 586 957 574 976 q 598 907 601 935 q 576 856 595 879 q 524 825 558 833 l 338 758 z "},"ŏ":{"ha":791,"x_min":57,"x_max":735,"o":"m 396 -14 q 215 32 291 -14 q 98 153 139 78 q 57 319 57 229 q 98 485 57 410 q 215 607 139 561 q 396 653 291 653 q 577 607 501 653 q 694 485 653 561 q 735 319 735 410 q 694 153 735 229 q 577 32 653 78 q 396 -14 501 -14 m 396 22 q 460 45 434 22 q 501 109 485 68 q 523 204 516 150 q 529 319 529 258 q 523 435 529 382 q 501 530 516 489 q 460 594 485 571 q 396 617 434 617 q 332 594 358 617 q 292 530 307 571 q 270 435 276 489 q 263 319 263 382 q 270 204 263 258 q 292 109 276 150 q 332 45 307 68 q 396 22 358 22 m 396 764 q 300 791 337 764 q 247 868 263 819 q 230 985 230 918 l 258 985 q 277 933 258 953 q 327 905 296 913 q 396 896 358 896 q 465 905 433 896 q 515 933 497 913 q 534 985 534 953 l 563 985 q 545 868 563 918 q 492 791 528 819 q 396 764 455 764 z "},"ô":{"ha":791,"x_min":57,"x_max":735,"o":"m 396 -14 q 215 32 291 -14 q 98 153 139 78 q 57 319 57 229 q 98 485 57 410 q 215 607 139 561 q 396 653 291 653 q 577 607 501 653 q 694 485 653 561 q 735 319 735 410 q 694 153 735 229 q 577 32 653 78 q 396 -14 501 -14 m 396 22 q 460 45 434 22 q 501 109 485 68 q 523 204 516 150 q 529 319 529 258 q 523 435 529 382 q 501 530 516 489 q 460 594 485 571 q 396 617 434 617 q 332 594 358 617 q 292 530 307 571 q 270 435 276 489 q 263 319 263 382 q 270 204 263 258 q 292 109 276 150 q 332 45 307 68 q 396 22 358 22 m 189 771 l 171 790 l 338 977 l 456 977 l 622 790 l 603 771 l 396 880 l 189 771 z "},"ö":{"ha":791,"x_min":57,"x_max":735,"o":"m 396 -14 q 215 32 291 -14 q 98 153 139 78 q 57 319 57 229 q 98 485 57 410 q 215 607 139 561 q 396 653 291 653 q 577 607 501 653 q 694 485 653 561 q 735 319 735 410 q 694 153 735 229 q 577 32 653 78 q 396 -14 501 -14 m 396 22 q 460 45 434 22 q 501 109 485 68 q 523 204 516 150 q 529 319 529 258 q 523 435 529 382 q 501 530 516 489 q 460 594 485 571 q 396 617 434 617 q 332 594 358 617 q 292 530 307 571 q 270 435 276 489 q 263 319 263 382 q 270 204 263 258 q 292 109 276 150 q 332 45 307 68 q 396 22 358 22 m 525 767 q 469 791 492 767 q 445 847 445 815 q 469 904 445 881 q 525 928 492 928 q 582 904 558 928 q 606 847 606 881 q 582 791 606 815 q 525 767 558 767 m 265 767 q 209 791 233 767 q 185 847 185 815 q 209 904 185 881 q 265 928 233 928 q 322 904 299 928 q 346 847 346 881 q 322 791 346 815 q 265 767 299 767 z "},"ò":{"ha":791,"x_min":57,"x_max":735,"o":"m 396 -14 q 215 32 291 -14 q 98 153 139 78 q 57 319 57 229 q 98 485 57 410 q 215 607 139 561 q 396 653 291 653 q 577 607 501 653 q 694 485 653 561 q 735 319 735 410 q 694 153 735 229 q 577 32 653 78 q 396 -14 501 -14 m 396 22 q 460 45 434 22 q 501 109 485 68 q 523 204 516 150 q 529 319 529 258 q 523 435 529 382 q 501 530 516 489 q 460 594 485 571 q 396 617 434 617 q 332 594 358 617 q 292 530 307 571 q 270 435 276 489 q 263 319 263 382 q 270 204 263 258 q 292 109 276 150 q 332 45 307 68 q 396 22 358 22 m 452 758 l 266 825 q 214 856 233 833 q 193 907 195 879 q 205 957 190 935 q 243 985 217 976 q 299 986 269 994 q 349 945 328 978 l 472 783 l 452 758 z "},"ő":{"ha":791,"x_min":57,"x_max":760,"o":"m 396 -14 q 215 32 291 -14 q 98 153 139 78 q 57 319 57 229 q 98 485 57 410 q 215 607 139 561 q 396 653 291 653 q 577 607 501 653 q 694 485 653 561 q 735 319 735 410 q 694 153 735 229 q 577 32 653 78 q 396 -14 501 -14 m 396 22 q 460 45 434 22 q 501 109 485 68 q 523 204 516 150 q 529 319 529 258 q 523 435 529 382 q 501 530 516 489 q 460 594 485 571 q 396 617 434 617 q 332 594 358 617 q 292 530 307 571 q 270 435 276 489 q 263 319 263 382 q 270 204 263 258 q 292 109 276 150 q 332 45 307 68 q 396 22 358 22 m 178 757 l 158 782 l 281 944 q 332 985 303 977 q 387 984 360 993 q 426 956 413 976 q 438 906 440 934 q 416 856 435 878 q 364 824 398 833 l 178 757 m 497 757 l 478 782 l 600 944 q 651 985 622 977 q 706 984 680 993 q 745 956 733 976 q 757 906 760 934 q 736 856 754 878 q 683 824 717 833 l 497 757 z "},"ō":{"ha":791,"x_min":57,"x_max":735,"o":"m 396 -14 q 215 32 291 -14 q 98 153 139 78 q 57 319 57 229 q 98 485 57 410 q 215 607 139 561 q 396 653 291 653 q 577 607 501 653 q 694 485 653 561 q 735 319 735 410 q 694 153 735 229 q 577 32 653 78 q 396 -14 501 -14 m 396 22 q 460 45 434 22 q 501 109 485 68 q 523 204 516 150 q 529 319 529 258 q 523 435 529 382 q 501 530 516 489 q 460 594 485 571 q 396 617 434 617 q 332 594 358 617 q 292 530 307 571 q 270 435 276 489 q 263 319 263 382 q 270 204 263 258 q 292 109 276 150 q 332 45 307 68 q 396 22 358 22 m 229 778 l 229 814 l 563 814 l 563 778 l 229 778 z "},"ø":{"ha":791,"x_min":57,"x_max":735,"o":"m 81 -171 l 672 804 l 708 804 l 117 -171 l 81 -171 m 396 -14 q 215 32 291 -14 q 98 153 139 78 q 57 319 57 229 q 98 485 57 410 q 215 607 139 561 q 396 653 291 653 q 577 607 501 653 q 694 485 653 561 q 735 319 735 410 q 694 153 735 229 q 577 32 653 78 q 396 -14 501 -14 m 396 22 q 460 45 434 22 q 501 109 485 68 q 523 204 516 150 q 529 319 529 258 q 523 435 529 382 q 501 530 516 489 q 460 594 485 571 q 396 617 434 617 q 332 594 358 617 q 292 530 307 571 q 270 435 276 489 q 263 319 263 382 q 270 204 263 258 q 292 109 276 150 q 332 45 307 68 q 396 22 358 22 z "},"õ":{"ha":791,"x_min":57,"x_max":735,"o":"m 396 -14 q 215 32 291 -14 q 98 153 139 78 q 57 319 57 229 q 98 485 57 410 q 215 607 139 561 q 396 653 291 653 q 577 607 501 653 q 694 485 653 561 q 735 319 735 410 q 694 153 735 229 q 577 32 653 78 q 396 -14 501 -14 m 396 22 q 460 45 434 22 q 501 109 485 68 q 523 204 516 150 q 529 319 529 258 q 523 435 529 382 q 501 530 516 489 q 460 594 485 571 q 396 617 434 617 q 332 594 358 617 q 292 530 307 571 q 270 435 276 489 q 263 319 263 382 q 270 204 263 258 q 292 109 276 150 q 332 45 307 68 q 396 22 358 22 m 508 750 q 433 767 464 750 q 375 805 401 783 q 323 843 349 826 q 263 859 297 859 q 211 838 231 859 q 191 778 191 817 l 153 778 q 171 883 153 837 q 220 956 188 929 q 297 982 252 982 q 372 965 342 982 q 427 927 403 949 q 474 889 451 906 q 527 872 497 872 q 581 894 561 872 q 601 954 601 916 l 637 954 q 626 843 637 889 q 587 774 615 797 q 508 750 559 750 z "},"œ":{"ha":1215,"x_min":57,"x_max":1163,"o":"m 396 -14 q 215 32 291 -14 q 98 153 139 78 q 57 319 57 229 q 98 485 57 410 q 215 607 139 561 q 396 653 291 653 q 577 607 501 653 q 694 485 653 561 q 735 319 735 410 q 694 153 735 229 q 577 32 653 78 q 396 -14 501 -14 m 396 22 q 460 45 434 22 q 501 109 485 68 q 523 204 516 150 q 529 319 529 258 q 523 435 529 382 q 501 530 516 489 q 460 594 485 571 q 396 617 434 617 q 332 594 358 617 q 292 530 307 571 q 270 435 276 489 q 263 319 263 382 q 270 204 263 258 q 292 109 276 150 q 332 45 307 68 q 396 22 358 22 m 867 -13 q 695 25 771 -13 q 576 138 619 64 q 532 320 532 213 q 574 502 532 428 q 689 615 615 576 q 860 653 763 653 q 1027 612 961 653 q 1124 503 1092 570 q 1156 361 1156 437 l 624 361 l 624 398 l 949 398 q 946 476 949 438 q 935 547 944 515 q 909 598 927 579 q 860 617 891 617 q 803 595 825 617 q 768 535 781 574 q 750 445 756 497 q 745 334 745 394 q 752 211 745 267 q 775 114 758 155 q 823 51 792 74 q 899 29 853 29 q 1041 74 983 29 q 1124 188 1098 118 l 1163 188 q 1064 44 1136 101 q 867 -13 992 -13 z "},"p":{"ha":890,"x_min":35,"x_max":835,"o":"m 35 -347 l 35 -311 l 131 -311 l 131 603 l 35 603 l 35 639 l 326 639 l 326 469 q 409 603 353 554 q 546 651 466 651 q 685 612 619 651 q 793 498 751 572 q 835 319 835 424 q 793 141 835 215 q 685 26 751 66 q 546 -14 619 -14 q 409 35 466 -14 q 326 169 353 84 l 326 -311 l 420 -311 l 420 -347 l 35 -347 m 496 41 q 560 70 534 41 q 601 160 587 99 q 615 319 615 222 q 601 478 615 417 q 560 568 587 540 q 496 596 534 596 q 417 564 456 596 q 351 470 377 531 q 326 319 326 408 q 351 168 326 231 q 417 73 377 106 q 496 41 456 41 z "},"þ":{"ha":888,"x_min":33,"x_max":834,"o":"m 33 -347 l 33 -311 l 131 -311 l 131 1006 l 33 1006 l 33 1042 l 326 1042 l 326 469 q 409 603 352 554 q 545 651 465 651 q 685 612 619 651 q 793 498 751 572 q 834 319 834 424 q 793 141 834 215 q 685 26 751 66 q 545 -14 619 -14 q 409 35 466 -14 q 326 169 352 84 l 326 -311 l 422 -311 l 422 -347 l 33 -347 m 496 41 q 560 70 533 41 q 601 160 587 99 q 615 319 615 222 q 601 478 615 417 q 560 568 587 540 q 496 596 533 596 q 416 564 456 596 q 351 470 377 531 q 326 319 326 408 q 351 168 326 231 q 416 73 377 106 q 496 41 456 41 z "},"q":{"ha":890,"x_min":57,"x_max":856,"o":"m 470 -347 l 470 -311 l 565 -311 l 565 169 q 482 35 539 84 q 345 -13 426 -13 q 206 26 272 -13 q 98 140 140 66 q 57 319 57 215 q 98 498 57 423 q 206 612 140 572 q 345 652 272 652 q 482 603 425 652 q 565 469 539 554 l 565 639 l 856 639 l 856 603 l 760 603 l 760 -311 l 856 -311 l 856 -347 l 470 -347 m 396 42 q 475 75 436 42 q 540 169 514 107 q 565 319 565 231 q 540 470 565 408 q 475 565 514 533 q 396 597 436 597 q 331 568 358 597 q 291 478 305 540 q 277 319 277 417 q 291 160 277 221 q 331 70 305 99 q 396 42 358 42 z "},"r":{"ha":692,"x_min":35,"x_max":668,"o":"m 303 292 q 316 425 303 361 q 356 541 329 490 q 424 622 383 592 q 521 652 465 652 q 602 632 569 652 q 651 579 635 611 q 668 512 668 547 q 636 427 668 463 q 553 392 605 392 q 471 423 503 392 q 439 499 439 455 q 471 580 439 549 q 553 612 503 612 q 611 598 586 612 q 652 561 637 584 q 667 512 667 538 l 630 512 q 616 563 630 540 q 576 600 601 586 q 517 615 550 615 q 443 590 478 615 q 382 520 408 565 q 339 417 355 476 q 324 292 324 359 l 303 292 m 324 639 l 324 37 l 434 37 l 434 0 l 35 0 l 35 37 l 131 37 l 131 602 l 35 602 l 35 639 l 324 639 z "},"ŕ":{"ha":692,"x_min":35,"x_max":668,"o":"m 303 292 q 316 425 303 361 q 356 541 329 490 q 424 622 383 592 q 521 652 465 652 q 602 632 569 652 q 651 579 635 611 q 668 512 668 547 q 636 427 668 463 q 553 392 605 392 q 471 423 503 392 q 439 499 439 455 q 471 580 439 549 q 553 612 503 612 q 611 598 586 612 q 652 561 637 584 q 667 512 667 538 l 630 512 q 616 563 630 540 q 576 600 601 586 q 517 615 550 615 q 443 590 478 615 q 382 520 408 565 q 339 417 355 476 q 324 292 324 359 l 303 292 m 324 639 l 324 37 l 434 37 l 434 0 l 35 0 l 35 37 l 131 37 l 131 602 l 35 602 l 35 639 l 324 639 m 312 758 l 292 783 l 415 945 q 465 986 436 978 q 521 985 494 994 q 560 957 547 976 q 572 907 574 935 q 550 856 569 879 q 498 825 531 833 l 312 758 z "},"ř":{"ha":692,"x_min":35,"x_max":668,"o":"m 303 292 q 316 425 303 361 q 356 541 329 490 q 424 622 383 592 q 521 652 465 652 q 602 632 569 652 q 651 579 635 611 q 668 512 668 547 q 636 427 668 463 q 553 392 605 392 q 471 423 503 392 q 439 499 439 455 q 471 580 439 549 q 553 612 503 612 q 611 598 586 612 q 652 561 637 584 q 667 512 667 538 l 630 512 q 616 563 630 540 q 576 600 601 586 q 517 615 550 615 q 443 590 478 615 q 382 520 408 565 q 339 417 355 476 q 324 292 324 359 l 303 292 m 324 639 l 324 37 l 434 37 l 434 0 l 35 0 l 35 37 l 131 37 l 131 602 l 35 602 l 35 639 l 324 639 m 311 778 l 144 966 l 163 983 l 370 875 l 577 983 l 596 966 l 429 778 l 311 778 z "},"ŗ":{"ha":692,"x_min":35,"x_max":668,"o":"m 303 292 q 316 425 303 361 q 356 541 329 490 q 424 622 383 592 q 521 652 465 652 q 602 632 569 652 q 651 579 635 611 q 668 512 668 547 q 636 427 668 463 q 553 392 605 392 q 471 423 503 392 q 439 499 439 455 q 471 580 439 549 q 553 612 503 612 q 611 598 586 612 q 652 561 637 584 q 667 512 667 538 l 630 512 q 616 563 630 540 q 576 600 601 586 q 517 615 550 615 q 443 590 478 615 q 382 520 408 565 q 339 417 355 476 q 324 292 324 359 l 303 292 m 324 639 l 324 37 l 434 37 l 434 0 l 35 0 l 35 37 l 131 37 l 131 602 l 35 602 l 35 639 l 324 639 m 127 -492 l 127 -461 q 226 -437 181 -461 q 295 -367 270 -412 q 315 -256 320 -321 l 325 -256 q 313 -290 326 -272 q 277 -319 299 -307 q 230 -331 256 -331 q 155 -301 181 -331 q 129 -232 129 -272 q 144 -182 129 -205 q 183 -146 158 -160 q 237 -133 208 -133 q 315 -169 282 -133 q 348 -272 348 -206 q 321 -383 348 -333 q 245 -462 294 -433 q 127 -492 195 -492 z "},"ȓ":{"ha":692,"x_min":35,"x_max":668,"o":"m 303 292 q 316 425 303 361 q 356 541 329 490 q 424 622 383 592 q 521 652 465 652 q 602 632 569 652 q 651 579 635 611 q 668 512 668 547 q 636 427 668 463 q 553 392 605 392 q 471 423 503 392 q 439 499 439 455 q 471 580 439 549 q 553 612 503 612 q 611 598 586 612 q 652 561 637 584 q 667 512 667 538 l 630 512 q 616 563 630 540 q 576 600 601 586 q 517 615 550 615 q 443 590 478 615 q 382 520 408 565 q 339 417 355 476 q 324 292 324 359 l 303 292 m 324 639 l 324 37 l 434 37 l 434 0 l 35 0 l 35 37 l 131 37 l 131 602 l 35 602 l 35 639 l 324 639 m 205 765 q 222 881 205 831 q 276 958 239 931 q 372 985 313 985 q 467 958 431 985 q 520 881 503 931 q 538 765 538 831 l 509 765 q 490 816 509 797 q 440 845 472 836 q 372 853 409 853 q 302 845 334 853 q 252 816 271 836 q 233 765 233 797 l 205 765 z "},"s":{"ha":628,"x_min":55,"x_max":575,"o":"m 55 -14 l 55 207 l 92 207 q 148 110 115 151 q 224 47 181 69 q 318 25 267 25 q 389 35 357 25 q 439 65 420 45 q 458 114 458 85 q 430 170 458 149 q 358 207 402 191 q 265 239 315 222 q 172 281 216 256 q 101 348 128 307 q 73 455 73 390 q 99 554 73 510 q 172 625 124 599 q 285 651 219 651 q 370 636 331 651 q 439 597 408 622 l 503 653 l 536 653 l 536 458 l 499 458 q 453 534 481 499 q 383 591 424 569 q 286 613 342 613 q 234 603 258 613 q 194 575 209 593 q 178 533 178 558 q 207 481 178 501 q 281 445 236 461 q 377 413 326 430 q 473 370 428 396 q 547 304 518 344 q 575 201 575 263 q 540 81 575 128 q 448 10 504 33 q 329 -14 392 -14 q 234 3 278 -14 q 154 51 190 20 l 87 -14 l 55 -14 z "},"ś":{"ha":628,"x_min":55,"x_max":575,"o":"m 55 -14 l 55 207 l 92 207 q 148 110 115 151 q 224 47 181 69 q 318 25 267 25 q 389 35 357 25 q 439 65 420 45 q 458 114 458 85 q 430 170 458 149 q 358 207 402 191 q 265 239 315 222 q 172 281 216 256 q 101 348 128 307 q 73 455 73 390 q 99 554 73 510 q 172 625 124 599 q 285 651 219 651 q 370 636 331 651 q 439 597 408 622 l 503 653 l 536 653 l 536 458 l 499 458 q 453 534 481 499 q 383 591 424 569 q 286 613 342 613 q 234 603 258 613 q 194 575 209 593 q 178 533 178 558 q 207 481 178 501 q 281 445 236 461 q 377 413 326 430 q 473 370 428 396 q 547 304 518 344 q 575 201 575 263 q 540 81 575 128 q 448 10 504 33 q 329 -14 392 -14 q 234 3 278 -14 q 154 51 190 20 l 87 -14 l 55 -14 m 249 758 l 229 783 l 351 945 q 402 986 373 978 q 458 985 431 994 q 497 957 484 976 q 508 907 511 935 q 487 856 506 879 q 435 825 468 833 l 249 758 z "},"š":{"ha":628,"x_min":55,"x_max":575,"o":"m 55 -14 l 55 207 l 92 207 q 148 110 115 151 q 224 47 181 69 q 318 25 267 25 q 389 35 357 25 q 439 65 420 45 q 458 114 458 85 q 430 170 458 149 q 358 207 402 191 q 265 239 315 222 q 172 281 216 256 q 101 348 128 307 q 73 455 73 390 q 99 554 73 510 q 172 625 124 599 q 285 651 219 651 q 370 636 331 651 q 439 597 408 622 l 503 653 l 536 653 l 536 458 l 499 458 q 453 534 481 499 q 383 591 424 569 q 286 613 342 613 q 234 603 258 613 q 194 575 209 593 q 178 533 178 558 q 207 481 178 501 q 281 445 236 461 q 377 413 326 430 q 473 370 428 396 q 547 304 518 344 q 575 201 575 263 q 540 81 575 128 q 448 10 504 33 q 329 -14 392 -14 q 234 3 278 -14 q 154 51 190 20 l 87 -14 l 55 -14 m 247 778 l 81 966 l 99 983 l 306 875 l 513 983 l 532 966 l 365 778 l 247 778 z "},"ş":{"ha":628,"x_min":55,"x_max":575,"o":"m 55 -14 l 55 207 l 92 207 q 148 110 115 151 q 224 47 181 69 q 318 25 267 25 q 389 35 357 25 q 439 65 420 45 q 458 114 458 85 q 430 170 458 149 q 358 207 402 191 q 265 239 315 222 q 172 281 216 256 q 101 348 128 307 q 73 455 73 390 q 99 554 73 510 q 172 625 124 599 q 285 651 219 651 q 370 636 331 651 q 439 597 408 622 l 503 653 l 536 653 l 536 458 l 499 458 q 453 534 481 499 q 383 591 424 569 q 286 613 342 613 q 234 603 258 613 q 194 575 209 593 q 178 533 178 558 q 207 481 178 501 q 281 445 236 461 q 377 413 326 430 q 473 370 428 396 q 547 304 518 344 q 575 201 575 263 q 540 81 575 128 q 448 10 504 33 q 329 -14 392 -14 q 234 3 278 -14 q 154 51 190 20 l 87 -14 l 55 -14 m 194 -354 l 194 -318 q 286 -299 256 -318 q 317 -244 317 -279 q 298 -192 317 -210 q 249 -169 279 -175 q 185 -162 219 -162 l 307 2 l 353 2 l 272 -107 q 379 -121 334 -109 q 447 -157 424 -133 q 471 -219 471 -181 q 445 -285 471 -254 q 360 -335 420 -316 q 194 -354 299 -354 z "},"ŝ":{"ha":628,"x_min":55,"x_max":575,"o":"m 55 -14 l 55 207 l 92 207 q 148 110 115 151 q 224 47 181 69 q 318 25 267 25 q 389 35 357 25 q 439 65 420 45 q 458 114 458 85 q 430 170 458 149 q 358 207 402 191 q 265 239 315 222 q 172 281 216 256 q 101 348 128 307 q 73 455 73 390 q 99 554 73 510 q 172 625 124 599 q 285 651 219 651 q 370 636 331 651 q 439 597 408 622 l 503 653 l 536 653 l 536 458 l 499 458 q 453 534 481 499 q 383 591 424 569 q 286 613 342 613 q 234 603 258 613 q 194 575 209 593 q 178 533 178 558 q 207 481 178 501 q 281 445 236 461 q 377 413 326 430 q 473 370 428 396 q 547 304 518 344 q 575 201 575 263 q 540 81 575 128 q 448 10 504 33 q 329 -14 392 -14 q 234 3 278 -14 q 154 51 190 20 l 87 -14 l 55 -14 m 99 771 l 81 790 l 247 977 l 365 977 l 532 790 l 513 771 l 306 880 l 99 771 z "},"ș":{"ha":628,"x_min":55,"x_max":575,"o":"m 55 -14 l 55 207 l 92 207 q 148 110 115 151 q 224 47 181 69 q 318 25 267 25 q 389 35 357 25 q 439 65 420 45 q 458 114 458 85 q 430 170 458 149 q 358 207 402 191 q 265 239 315 222 q 172 281 216 256 q 101 348 128 307 q 73 455 73 390 q 99 554 73 510 q 172 625 124 599 q 285 651 219 651 q 370 636 331 651 q 439 597 408 622 l 503 653 l 536 653 l 536 458 l 499 458 q 453 534 481 499 q 383 591 424 569 q 286 613 342 613 q 234 603 258 613 q 194 575 209 593 q 178 533 178 558 q 207 481 178 501 q 281 445 236 461 q 377 413 326 430 q 473 370 428 396 q 547 304 518 344 q 575 201 575 263 q 540 81 575 128 q 448 10 504 33 q 329 -14 392 -14 q 234 3 278 -14 q 154 51 190 20 l 87 -14 l 55 -14 m 217 -495 l 217 -465 q 316 -440 272 -465 q 385 -370 360 -416 q 406 -259 410 -324 l 415 -259 q 403 -293 416 -276 q 368 -322 390 -310 q 320 -334 346 -334 q 245 -305 272 -334 q 219 -235 219 -275 q 234 -186 219 -208 q 273 -150 249 -163 q 327 -136 298 -136 q 405 -173 372 -136 q 438 -275 438 -210 q 411 -386 438 -336 q 335 -466 385 -436 q 217 -495 285 -495 z "},"ß":{"ha":1070,"x_min":20,"x_max":1015,"o":"m 146 0 l 146 682 q 182 848 146 778 q 279 964 217 918 q 419 1033 340 1010 q 584 1056 498 1056 q 732 1037 661 1056 q 857 985 802 1019 q 943 906 911 951 q 974 807 974 861 q 929 675 974 731 q 791 589 883 619 q 560 558 699 558 l 560 581 q 654 601 617 581 q 712 654 691 622 q 742 723 733 686 q 750 794 750 760 q 742 871 750 831 q 714 945 733 911 q 661 1001 694 980 q 577 1022 628 1022 q 467 995 510 1022 q 399 919 424 967 q 365 806 374 870 q 355 668 355 742 l 355 0 l 146 0 m 20 0 l 20 37 l 458 37 l 458 0 l 20 0 m 706 -14 q 533 49 596 -14 q 469 219 469 111 q 503 307 469 273 q 587 342 538 342 q 664 311 632 342 q 697 233 697 281 q 680 177 697 201 q 638 139 664 153 q 583 125 613 125 q 533 138 559 125 q 490 172 508 150 q 471 219 472 193 l 507 219 q 531 114 507 156 q 590 49 554 71 q 665 27 626 27 q 731 45 706 27 q 769 91 756 63 q 787 155 783 120 q 792 222 792 189 q 784 327 792 272 q 754 433 777 383 q 684 514 731 482 q 560 545 638 545 l 560 568 q 773 542 685 568 q 913 472 860 517 q 991 367 967 426 q 1015 240 1015 308 q 989 131 1015 178 q 919 52 963 84 q 819 3 874 19 q 706 -14 765 -14 z "},"ſ":{"ha":576,"x_min":30,"x_max":681,"o":"m 489 1056 q 593 1031 551 1056 q 658 970 636 1006 q 681 897 681 933 q 646 813 681 842 q 569 783 612 783 q 520 794 545 783 q 478 828 495 805 q 461 887 461 851 q 478 946 461 922 q 522 982 495 970 q 575 991 548 994 q 592 983 584 990 q 603 965 601 976 q 580 993 595 981 q 544 1012 565 1005 q 499 1019 524 1019 q 407 988 442 1019 q 356 898 372 958 q 340 750 340 838 l 340 37 l 505 37 l 505 0 l 30 0 l 30 37 l 153 37 l 153 710 q 194 886 153 808 q 311 1010 236 965 q 489 1056 387 1056 z "},"t":{"ha":512,"x_min":22,"x_max":502,"o":"m 285 -10 q 181 13 217 -10 q 131 74 145 35 q 117 162 117 113 l 117 778 q 220 789 165 778 q 312 819 275 799 l 312 149 q 324 76 312 97 q 366 55 336 55 q 423 78 395 55 q 469 141 451 101 l 502 124 q 423 27 475 65 q 285 -10 371 -10 m 22 603 l 22 639 l 460 639 l 460 603 l 22 603 z "},"ŧ":{"ha":512,"x_min":22,"x_max":502,"o":"m 22 386 l 22 422 l 463 422 l 463 386 l 22 386 m 285 -10 q 181 13 217 -10 q 131 74 145 35 q 117 162 117 113 l 117 778 q 220 789 165 778 q 312 819 275 799 l 312 149 q 324 76 312 97 q 366 55 336 55 q 423 78 395 55 q 469 141 451 101 l 502 124 q 423 27 475 65 q 285 -10 371 -10 m 22 603 l 22 639 l 460 639 l 460 603 l 22 603 z "},"ť":{"ha":512,"x_min":22,"x_max":613,"o":"m 285 -10 q 181 13 217 -10 q 131 74 145 35 q 117 162 117 113 l 117 778 q 220 789 165 778 q 312 819 275 799 l 312 149 q 324 76 312 97 q 366 55 336 55 q 423 78 395 55 q 469 141 451 101 l 502 124 q 423 27 475 65 q 285 -10 371 -10 m 22 603 l 22 639 l 460 639 l 460 603 l 22 603 m 388 747 l 388 778 q 466 793 430 778 q 528 835 502 808 q 568 903 555 863 q 578 992 582 942 l 588 992 q 576 959 589 976 q 541 931 563 942 q 493 919 519 919 q 417 948 444 919 q 391 1018 391 978 q 423 1089 391 1059 q 500 1118 455 1118 q 580 1081 546 1118 q 613 976 613 1043 q 586 861 613 913 q 509 778 559 809 q 388 747 458 747 z "},"ţ":{"ha":512,"x_min":22,"x_max":502,"o":"m 285 -10 q 181 13 217 -10 q 131 74 145 35 q 117 162 117 113 l 117 778 q 220 789 165 778 q 312 819 275 799 l 312 149 q 324 76 312 97 q 366 55 336 55 q 423 78 395 55 q 469 141 451 101 l 502 124 q 423 27 475 65 q 285 -10 371 -10 m 22 603 l 22 639 l 460 639 l 460 603 l 22 603 m 153 -351 l 153 -315 q 245 -295 215 -315 q 275 -240 275 -276 q 256 -189 275 -206 q 208 -165 238 -172 q 143 -159 178 -159 l 265 6 l 311 6 l 230 -103 q 337 -117 292 -106 q 406 -153 382 -129 q 429 -216 429 -177 q 404 -282 429 -251 q 318 -332 378 -312 q 153 -351 258 -351 z "},"ț":{"ha":512,"x_min":22,"x_max":502,"o":"m 285 -10 q 181 13 217 -10 q 131 74 145 35 q 117 162 117 113 l 117 778 q 220 789 165 778 q 312 819 275 799 l 312 149 q 324 76 312 97 q 366 55 336 55 q 423 78 395 55 q 469 141 451 101 l 502 124 q 423 27 475 65 q 285 -10 371 -10 m 22 603 l 22 639 l 460 639 l 460 603 l 22 603 m 176 -492 l 176 -461 q 275 -437 231 -461 q 344 -367 319 -412 q 365 -256 369 -321 l 374 -256 q 362 -290 375 -272 q 327 -319 349 -307 q 279 -331 305 -331 q 205 -301 231 -331 q 178 -232 178 -272 q 193 -182 178 -205 q 232 -146 208 -160 q 286 -133 257 -133 q 364 -169 331 -133 q 397 -272 397 -206 q 370 -383 397 -333 q 294 -462 344 -433 q 176 -492 244 -492 z "},"u":{"ha":880,"x_min":35,"x_max":844,"o":"m 328 -14 q 207 14 249 -14 q 148 88 164 41 q 131 196 131 135 l 131 603 l 35 603 l 35 639 l 326 639 l 326 218 q 331 125 326 160 q 351 74 336 90 q 393 58 365 58 q 457 82 428 58 q 509 145 487 106 q 543 233 531 185 q 555 328 555 281 l 581 329 q 569 221 581 281 q 528 108 557 162 q 450 20 499 55 q 328 -14 401 -14 m 555 0 l 555 603 l 465 603 l 465 639 l 749 639 l 749 36 l 844 36 l 844 0 l 555 0 z "},"ú":{"ha":880,"x_min":35,"x_max":844,"o":"m 328 -14 q 207 14 249 -14 q 148 88 164 41 q 131 196 131 135 l 131 603 l 35 603 l 35 639 l 326 639 l 326 218 q 331 125 326 160 q 351 74 336 90 q 393 58 365 58 q 457 82 428 58 q 509 145 487 106 q 543 233 531 185 q 555 328 555 281 l 581 329 q 569 221 581 281 q 528 108 557 162 q 450 20 499 55 q 328 -14 401 -14 m 555 0 l 555 603 l 465 603 l 465 639 l 749 639 l 749 36 l 844 36 l 844 0 l 555 0 m 352 758 l 333 783 l 455 945 q 506 986 476 978 q 561 985 535 994 q 600 957 588 976 q 612 907 615 935 q 590 856 609 879 q 538 825 572 833 l 352 758 z "},"ŭ":{"ha":880,"x_min":35,"x_max":844,"o":"m 328 -14 q 207 14 249 -14 q 148 88 164 41 q 131 196 131 135 l 131 603 l 35 603 l 35 639 l 326 639 l 326 218 q 331 125 326 160 q 351 74 336 90 q 393 58 365 58 q 457 82 428 58 q 509 145 487 106 q 543 233 531 185 q 555 328 555 281 l 581 329 q 569 221 581 281 q 528 108 557 162 q 450 20 499 55 q 328 -14 401 -14 m 555 0 l 555 603 l 465 603 l 465 639 l 749 639 l 749 36 l 844 36 l 844 0 l 555 0 m 410 764 q 315 791 351 764 q 261 868 278 819 q 244 985 244 918 l 272 985 q 291 933 272 953 q 342 905 310 913 q 410 896 373 896 q 480 905 448 896 q 530 933 511 913 q 549 985 549 953 l 577 985 q 560 868 577 918 q 506 791 543 819 q 410 764 469 764 z "},"û":{"ha":880,"x_min":35,"x_max":844,"o":"m 328 -14 q 207 14 249 -14 q 148 88 164 41 q 131 196 131 135 l 131 603 l 35 603 l 35 639 l 326 639 l 326 218 q 331 125 326 160 q 351 74 336 90 q 393 58 365 58 q 457 82 428 58 q 509 145 487 106 q 543 233 531 185 q 555 328 555 281 l 581 329 q 569 221 581 281 q 528 108 557 162 q 450 20 499 55 q 328 -14 401 -14 m 555 0 l 555 603 l 465 603 l 465 639 l 749 639 l 749 36 l 844 36 l 844 0 l 555 0 m 203 771 l 185 790 l 351 977 l 469 977 l 636 790 l 617 771 l 410 880 l 203 771 z "},"ü":{"ha":880,"x_min":35,"x_max":844,"o":"m 328 -14 q 207 14 249 -14 q 148 88 164 41 q 131 196 131 135 l 131 603 l 35 603 l 35 639 l 326 639 l 326 218 q 331 125 326 160 q 351 74 336 90 q 393 58 365 58 q 457 82 428 58 q 509 145 487 106 q 543 233 531 185 q 555 328 555 281 l 581 329 q 569 221 581 281 q 528 108 557 162 q 450 20 499 55 q 328 -14 401 -14 m 555 0 l 555 603 l 465 603 l 465 639 l 749 639 l 749 36 l 844 36 l 844 0 l 555 0 m 540 767 q 483 791 507 767 q 460 847 460 815 q 483 904 460 881 q 540 928 507 928 q 597 904 573 928 q 620 847 620 881 q 597 791 620 815 q 540 767 573 767 m 280 767 q 224 791 247 767 q 200 847 200 815 q 224 904 200 881 q 280 928 247 928 q 337 904 313 928 q 360 847 360 881 q 337 791 360 815 q 280 767 313 767 z "},"ù":{"ha":880,"x_min":35,"x_max":844,"o":"m 328 -14 q 207 14 249 -14 q 148 88 164 41 q 131 196 131 135 l 131 603 l 35 603 l 35 639 l 326 639 l 326 218 q 331 125 326 160 q 351 74 336 90 q 393 58 365 58 q 457 82 428 58 q 509 145 487 106 q 543 233 531 185 q 555 328 555 281 l 581 329 q 569 221 581 281 q 528 108 557 162 q 450 20 499 55 q 328 -14 401 -14 m 555 0 l 555 603 l 465 603 l 465 639 l 749 639 l 749 36 l 844 36 l 844 0 l 555 0 m 466 758 l 280 825 q 228 856 247 833 q 207 907 209 879 q 219 957 204 935 q 257 985 231 976 q 313 986 283 994 q 363 945 342 978 l 485 783 l 466 758 z "},"ű":{"ha":880,"x_min":35,"x_max":844,"o":"m 328 -14 q 207 14 249 -14 q 148 88 164 41 q 131 196 131 135 l 131 603 l 35 603 l 35 639 l 326 639 l 326 218 q 331 125 326 160 q 351 74 336 90 q 393 58 365 58 q 457 82 428 58 q 509 145 487 106 q 543 233 531 185 q 555 328 555 281 l 581 329 q 569 221 581 281 q 528 108 557 162 q 450 20 499 55 q 328 -14 401 -14 m 555 0 l 555 603 l 465 603 l 465 639 l 749 639 l 749 36 l 844 36 l 844 0 l 555 0 m 192 757 l 172 782 l 294 944 q 345 985 317 977 q 401 984 374 993 q 440 956 427 976 q 451 906 454 934 q 430 856 449 878 q 378 824 412 833 l 192 757 m 511 757 l 492 782 l 614 944 q 665 985 636 977 q 720 984 694 993 q 759 956 747 976 q 771 906 774 934 q 750 856 768 878 q 697 824 731 833 l 511 757 z "},"ū":{"ha":880,"x_min":35,"x_max":844,"o":"m 328 -14 q 207 14 249 -14 q 148 88 164 41 q 131 196 131 135 l 131 603 l 35 603 l 35 639 l 326 639 l 326 218 q 331 125 326 160 q 351 74 336 90 q 393 58 365 58 q 457 82 428 58 q 509 145 487 106 q 543 233 531 185 q 555 328 555 281 l 581 329 q 569 221 581 281 q 528 108 557 162 q 450 20 499 55 q 328 -14 401 -14 m 555 0 l 555 603 l 465 603 l 465 639 l 749 639 l 749 36 l 844 36 l 844 0 l 555 0 m 243 778 l 243 814 l 576 814 l 576 778 l 243 778 z "},"ų":{"ha":880,"x_min":35,"x_max":844,"o":"m 328 -14 q 207 14 249 -14 q 148 88 164 41 q 131 196 131 135 l 131 603 l 35 603 l 35 639 l 326 639 l 326 218 q 331 125 326 160 q 351 74 336 90 q 393 58 365 58 q 457 82 428 58 q 509 145 487 106 q 543 233 531 185 q 555 328 555 281 l 581 329 q 569 221 581 281 q 528 108 557 162 q 450 20 499 55 q 328 -14 401 -14 m 555 0 l 555 603 l 465 603 l 465 639 l 749 639 l 749 36 l 844 36 l 844 0 l 555 0 m 653 -310 q 568 -297 607 -310 q 506 -258 529 -285 q 482 -190 482 -232 q 504 -114 482 -149 q 562 -51 526 -79 q 640 -3 598 -23 q 722 29 682 17 l 732 6 q 702 -24 717 -2 q 677 -79 688 -47 q 667 -152 667 -112 q 683 -224 667 -199 q 728 -249 699 -249 q 770 -233 754 -249 q 799 -194 786 -217 l 826 -209 q 798 -252 816 -228 q 747 -293 781 -276 q 653 -310 713 -310 z "},"ů":{"ha":880,"x_min":35,"x_max":844,"o":"m 328 -14 q 207 14 249 -14 q 148 88 164 41 q 131 196 131 135 l 131 603 l 35 603 l 35 639 l 326 639 l 326 218 q 331 125 326 160 q 351 74 336 90 q 393 58 365 58 q 457 82 428 58 q 509 145 487 106 q 543 233 531 185 q 555 328 555 281 l 581 329 q 569 221 581 281 q 528 108 557 162 q 450 20 499 55 q 328 -14 401 -14 m 555 0 l 555 603 l 465 603 l 465 639 l 749 639 l 749 36 l 844 36 l 844 0 l 555 0 m 410 764 q 309 800 346 764 q 272 889 272 836 q 309 978 272 942 q 410 1014 346 1014 q 511 978 474 1014 q 549 889 549 942 q 511 800 549 836 q 410 764 474 764 m 410 801 q 439 811 427 801 q 457 840 451 821 q 463 889 463 860 q 457 937 463 917 q 439 967 451 957 q 410 978 427 978 q 381 967 392 978 q 363 937 369 957 q 356 889 356 917 q 363 840 356 860 q 381 811 369 821 q 410 801 392 801 z "},"ũ":{"ha":880,"x_min":35,"x_max":844,"o":"m 328 -14 q 207 14 249 -14 q 148 88 164 41 q 131 196 131 135 l 131 603 l 35 603 l 35 639 l 326 639 l 326 218 q 331 125 326 160 q 351 74 336 90 q 393 58 365 58 q 457 82 428 58 q 509 145 487 106 q 543 233 531 185 q 555 328 555 281 l 581 329 q 569 221 581 281 q 528 108 557 162 q 450 20 499 55 q 328 -14 401 -14 m 555 0 l 555 603 l 465 603 l 465 639 l 749 639 l 749 36 l 844 36 l 844 0 l 555 0 m 522 750 q 447 767 478 750 q 389 805 415 783 q 337 843 363 826 q 277 859 310 859 q 225 838 245 859 q 205 778 205 817 l 167 778 q 185 883 167 837 q 234 956 202 929 q 310 982 266 982 q 386 965 356 982 q 441 927 417 949 q 488 889 465 906 q 541 872 511 872 q 595 894 575 872 q 615 954 615 916 l 651 954 q 640 843 651 889 q 601 774 628 797 q 522 750 573 750 z "},"v":{"ha":789,"x_min":9,"x_max":778,"o":"m 778 639 l 778 603 l 690 603 l 442 -14 l 353 -14 l 101 603 l 9 603 l 9 639 l 412 639 l 412 603 l 314 603 l 472 166 l 647 603 l 525 603 l 525 639 l 778 639 z "},"w":{"ha":1148,"x_min":9,"x_max":1137,"o":"m 1137 639 l 1137 603 l 1035 603 l 830 -14 l 743 -14 l 576 470 l 383 -14 l 294 -14 l 99 603 l 9 603 l 9 639 l 408 639 l 408 603 l 298 603 l 418 179 l 606 653 l 728 653 l 863 208 l 995 603 l 865 603 l 865 639 l 1137 639 z "},"ẃ":{"ha":1148,"x_min":9,"x_max":1137,"o":"m 1137 639 l 1137 603 l 1035 603 l 830 -14 l 743 -14 l 576 470 l 383 -14 l 294 -14 l 99 603 l 9 603 l 9 639 l 408 639 l 408 603 l 298 603 l 418 179 l 606 653 l 728 653 l 863 208 l 995 603 l 865 603 l 865 639 l 1137 639 m 536 758 l 517 783 l 639 945 q 690 986 660 978 q 745 985 719 994 q 784 957 772 976 q 796 907 799 935 q 774 856 793 879 q 722 825 756 833 l 536 758 z "},"ŵ":{"ha":1148,"x_min":9,"x_max":1137,"o":"m 1137 639 l 1137 603 l 1035 603 l 830 -14 l 743 -14 l 576 470 l 383 -14 l 294 -14 l 99 603 l 9 603 l 9 639 l 408 639 l 408 603 l 298 603 l 418 179 l 606 653 l 728 653 l 863 208 l 995 603 l 865 603 l 865 639 l 1137 639 m 387 771 l 369 790 l 535 977 l 653 977 l 820 790 l 801 771 l 594 880 l 387 771 z "},"ẅ":{"ha":1148,"x_min":9,"x_max":1137,"o":"m 1137 639 l 1137 603 l 1035 603 l 830 -14 l 743 -14 l 576 470 l 383 -14 l 294 -14 l 99 603 l 9 603 l 9 639 l 408 639 l 408 603 l 298 603 l 418 179 l 606 653 l 728 653 l 863 208 l 995 603 l 865 603 l 865 639 l 1137 639 m 724 767 q 667 791 691 767 q 644 847 644 815 q 667 904 644 881 q 724 928 691 928 q 781 904 757 928 q 804 847 804 881 q 781 791 804 815 q 724 767 757 767 m 464 767 q 408 791 431 767 q 384 847 384 815 q 408 904 384 881 q 464 928 431 928 q 521 904 497 928 q 544 847 544 881 q 521 791 544 815 q 464 767 497 767 z "},"ẇ":{"ha":1148,"x_min":9,"x_max":1137,"o":"m 1137 639 l 1137 603 l 1035 603 l 830 -14 l 743 -14 l 576 470 l 383 -14 l 294 -14 l 99 603 l 9 603 l 9 639 l 408 639 l 408 603 l 298 603 l 418 179 l 606 653 l 728 653 l 863 208 l 995 603 l 865 603 l 865 639 l 1137 639 m 594 817 q 510 851 544 817 q 476 935 476 885 q 510 1019 476 985 q 594 1053 544 1053 q 678 1019 644 1053 q 713 935 713 985 q 678 851 713 885 q 594 817 644 817 z "},"ẉ":{"ha":1148,"x_min":9,"x_max":1137,"o":"m 1137 639 l 1137 603 l 1035 603 l 830 -14 l 743 -14 l 576 470 l 383 -14 l 294 -14 l 99 603 l 9 603 l 9 639 l 408 639 l 408 603 l 298 603 l 418 179 l 606 653 l 728 653 l 863 208 l 995 603 l 865 603 l 865 639 l 1137 639 m 578 -337 q 495 -303 529 -337 q 461 -219 461 -269 q 495 -135 461 -169 q 578 -101 529 -101 q 663 -135 629 -101 q 697 -219 697 -169 q 663 -303 697 -269 q 578 -337 629 -337 z "},"ẁ":{"ha":1148,"x_min":9,"x_max":1137,"o":"m 1137 639 l 1137 603 l 1035 603 l 830 -14 l 743 -14 l 576 470 l 383 -14 l 294 -14 l 99 603 l 9 603 l 9 639 l 408 639 l 408 603 l 298 603 l 418 179 l 606 653 l 728 653 l 863 208 l 995 603 l 865 603 l 865 639 l 1137 639 m 650 758 l 464 825 q 412 856 431 833 q 391 907 393 879 q 403 957 388 935 q 441 985 415 976 q 497 986 467 994 q 547 945 526 978 l 669 783 l 650 758 z "},"x":{"ha":817,"x_min":23,"x_max":796,"o":"m 404 0 l 404 36 l 485 36 l 127 603 l 30 603 l 30 639 l 431 639 l 431 603 l 347 603 l 711 36 l 796 36 l 796 0 l 404 0 m 23 0 l 23 36 l 116 36 l 625 603 l 529 603 l 529 639 l 778 639 l 778 603 l 672 603 l 163 36 l 287 36 l 287 0 l 23 0 z "},"y":{"ha":833,"x_min":3,"x_max":838,"o":"m 326 603 l 534 188 l 422 -31 l 94 603 l 3 603 l 3 639 l 452 639 l 452 603 l 326 603 m 838 639 l 838 603 l 746 603 l 344 -249 q 286 -332 319 -299 q 204 -365 253 -365 q 152 -353 178 -365 q 108 -317 126 -341 q 91 -259 91 -294 q 106 -202 91 -227 q 146 -162 121 -177 q 203 -148 172 -148 q 249 -160 227 -148 q 287 -192 272 -172 q 304 -240 302 -212 l 702 603 l 580 603 l 580 639 l 838 639 z "},"ý":{"ha":833,"x_min":3,"x_max":838,"o":"m 326 603 l 534 188 l 422 -31 l 94 603 l 3 603 l 3 639 l 452 639 l 452 603 l 326 603 m 838 639 l 838 603 l 746 603 l 344 -249 q 286 -332 319 -299 q 204 -365 253 -365 q 152 -353 178 -365 q 108 -317 126 -341 q 91 -259 91 -294 q 106 -202 91 -227 q 146 -162 121 -177 q 203 -148 172 -148 q 249 -160 227 -148 q 287 -192 272 -172 q 304 -240 302 -212 l 702 603 l 580 603 l 580 639 l 838 639 m 401 758 l 381 783 l 503 945 q 554 986 525 978 q 610 985 583 994 q 649 957 636 976 q 660 907 663 935 q 639 856 658 879 q 587 825 620 833 l 401 758 z "},"ŷ":{"ha":833,"x_min":3,"x_max":838,"o":"m 326 603 l 534 188 l 422 -31 l 94 603 l 3 603 l 3 639 l 452 639 l 452 603 l 326 603 m 838 639 l 838 603 l 746 603 l 344 -249 q 286 -332 319 -299 q 204 -365 253 -365 q 152 -353 178 -365 q 108 -317 126 -341 q 91 -259 91 -294 q 106 -202 91 -227 q 146 -162 121 -177 q 203 -148 172 -148 q 249 -160 227 -148 q 287 -192 272 -172 q 304 -240 302 -212 l 702 603 l 580 603 l 580 639 l 838 639 m 251 771 l 233 790 l 400 977 l 518 977 l 685 790 l 666 771 l 458 880 l 251 771 z "},"ÿ":{"ha":833,"x_min":3,"x_max":838,"o":"m 326 603 l 534 188 l 422 -31 l 94 603 l 3 603 l 3 639 l 452 639 l 452 603 l 326 603 m 838 639 l 838 603 l 746 603 l 344 -249 q 286 -332 319 -299 q 204 -365 253 -365 q 152 -353 178 -365 q 108 -317 126 -341 q 91 -259 91 -294 q 106 -202 91 -227 q 146 -162 121 -177 q 203 -148 172 -148 q 249 -160 227 -148 q 287 -192 272 -172 q 304 -240 302 -212 l 702 603 l 580 603 l 580 639 l 838 639 m 588 767 q 532 791 556 767 q 508 847 508 815 q 532 904 508 881 q 588 928 556 928 q 645 904 622 928 q 669 847 669 881 q 645 791 669 815 q 588 767 622 767 m 328 767 q 272 791 296 767 q 249 847 249 815 q 272 904 249 881 q 328 928 296 928 q 385 904 362 928 q 409 847 409 881 q 385 791 409 815 q 328 767 362 767 z "},"ỳ":{"ha":833,"x_min":3,"x_max":838,"o":"m 326 603 l 534 188 l 422 -31 l 94 603 l 3 603 l 3 639 l 452 639 l 452 603 l 326 603 m 838 639 l 838 603 l 746 603 l 344 -249 q 286 -332 319 -299 q 204 -365 253 -365 q 152 -353 178 -365 q 108 -317 126 -341 q 91 -259 91 -294 q 106 -202 91 -227 q 146 -162 121 -177 q 203 -148 172 -148 q 249 -160 227 -148 q 287 -192 272 -172 q 304 -240 302 -212 l 702 603 l 580 603 l 580 639 l 838 639 m 515 758 l 328 825 q 277 856 296 833 q 255 907 258 879 q 267 957 253 935 q 306 985 280 976 q 361 986 332 994 q 412 945 391 978 l 534 783 l 515 758 z "},"z":{"ha":676,"x_min":29,"x_max":641,"o":"m 29 0 l 29 36 l 401 603 l 310 603 q 203 581 245 603 q 138 515 162 560 q 104 400 115 470 l 68 400 l 68 639 l 619 639 l 619 603 l 245 36 l 367 36 q 469 47 427 36 q 539 81 512 57 q 581 148 565 106 q 604 256 597 191 l 641 256 l 641 0 l 29 0 z "},"ź":{"ha":676,"x_min":29,"x_max":641,"o":"m 29 0 l 29 36 l 401 603 l 310 603 q 203 581 245 603 q 138 515 162 560 q 104 400 115 470 l 68 400 l 68 639 l 619 639 l 619 603 l 245 36 l 367 36 q 469 47 427 36 q 539 81 512 57 q 581 148 565 106 q 604 256 597 191 l 641 256 l 641 0 l 29 0 m 287 758 l 267 783 l 390 945 q 440 986 411 978 q 496 985 469 994 q 535 957 522 976 q 547 907 549 935 q 525 856 544 879 q 473 825 506 833 l 287 758 z "},"ž":{"ha":676,"x_min":29,"x_max":641,"o":"m 29 0 l 29 36 l 401 603 l 310 603 q 203 581 245 603 q 138 515 162 560 q 104 400 115 470 l 68 400 l 68 639 l 619 639 l 619 603 l 245 36 l 367 36 q 469 47 427 36 q 539 81 512 57 q 581 148 565 106 q 604 256 597 191 l 641 256 l 641 0 l 29 0 m 286 778 l 119 966 l 138 983 l 345 875 l 552 983 l 571 966 l 404 778 l 286 778 z "},"ż":{"ha":676,"x_min":29,"x_max":641,"o":"m 29 0 l 29 36 l 401 603 l 310 603 q 203 581 245 603 q 138 515 162 560 q 104 400 115 470 l 68 400 l 68 639 l 619 639 l 619 603 l 245 36 l 367 36 q 469 47 427 36 q 539 81 512 57 q 581 148 565 106 q 604 256 597 191 l 641 256 l 641 0 l 29 0 m 344 817 q 261 851 295 817 q 227 935 227 885 q 261 1019 227 985 q 344 1053 295 1053 q 429 1019 395 1053 q 463 935 463 985 q 429 851 463 885 q 344 817 395 817 z "},"ﬁ":{"ha":901,"x_min":31,"x_max":868,"o":"m 154 0 l 154 710 q 184 856 154 792 q 265 964 213 919 q 386 1032 317 1009 q 535 1056 456 1056 q 653 1035 599 1056 q 742 979 708 1014 q 776 901 776 944 q 742 814 776 845 q 665 783 709 783 q 591 810 626 783 q 556 890 556 836 q 573 948 556 924 q 614 985 589 972 q 665 999 638 999 q 740 972 706 999 q 774 901 774 945 l 738 901 q 707 962 738 935 q 630 1003 676 988 q 535 1019 583 1019 q 430 990 473 1019 q 364 901 386 961 q 342 750 342 842 l 342 0 l 154 0 m 31 0 l 31 37 l 868 37 l 868 0 l 31 0 m 576 0 l 576 602 l 31 602 l 31 639 l 771 639 l 771 0 l 576 0 z "},"ﬂ":{"ha":974,"x_min":31,"x_max":938,"o":"m 154 0 l 154 710 q 197 888 154 810 q 315 1011 240 966 q 490 1056 391 1056 q 596 1033 552 1056 q 663 974 640 1010 q 687 901 687 939 q 653 814 687 845 q 576 783 620 783 q 502 810 537 783 q 467 890 467 836 q 502 968 467 940 q 576 995 537 995 q 651 970 617 995 q 685 901 685 945 l 649 901 q 628 959 649 932 q 570 1002 606 985 q 490 1019 534 1019 q 408 988 442 1019 q 358 898 375 958 q 342 750 342 838 l 342 0 l 154 0 m 31 0 l 31 37 l 938 37 l 938 0 l 31 0 m 31 602 l 31 639 l 534 639 l 534 602 l 31 602 m 623 0 l 623 1014 l 817 1069 l 817 0 l 623 0 z "},"ª":{"ha":494,"x_min":27,"x_max":471,"o":"m 367 661 q 300 680 326 661 q 274 735 274 698 l 274 923 q 268 980 274 953 q 245 1023 263 1006 q 195 1039 228 1039 q 148 1032 174 1039 q 103 1010 122 1026 q 84 970 84 995 l 57 970 q 77 1013 57 997 q 123 1028 97 1028 q 170 1014 150 1028 q 191 972 191 999 q 170 927 191 942 q 123 912 149 912 q 75 927 94 912 q 56 970 56 943 q 80 1021 56 1001 q 140 1050 103 1041 q 215 1060 177 1060 q 317 1042 278 1060 q 372 993 355 1024 q 389 923 389 963 l 389 729 q 394 706 389 715 q 415 696 399 696 q 437 703 424 696 q 458 723 450 710 l 471 708 q 432 674 459 686 q 367 661 404 661 m 146 661 q 59 689 92 661 q 27 764 27 717 q 76 852 27 819 q 213 885 125 885 l 313 885 l 313 867 l 240 867 q 189 853 208 867 q 161 819 169 840 q 152 778 152 799 q 164 730 152 749 q 201 710 176 710 q 250 737 226 710 q 274 822 274 764 l 288 822 q 249 705 288 749 q 146 661 210 661 z "},"º":{"ha":791,"x_min":193,"x_max":599,"o":"m 397 660 q 288 687 333 660 q 218 760 242 715 q 193 860 193 806 q 218 959 193 914 q 288 1032 242 1005 q 397 1060 333 1060 q 505 1032 459 1060 q 575 959 551 1005 q 599 860 599 914 q 575 760 599 806 q 505 687 551 715 q 397 660 459 660 m 397 682 q 444 706 427 682 q 469 770 462 729 q 476 860 476 810 q 469 950 476 910 q 444 1014 462 990 q 397 1038 427 1038 q 348 1014 366 1038 q 324 950 331 990 q 317 860 317 910 q 324 770 317 810 q 348 706 331 729 q 397 682 366 682 z "},"Δ":{"ha":928,"x_min":44,"x_max":887,"o":"m 44 0 l 421 1062 l 519 1062 l 887 0 l 638 0 l 372 815 l 87 0 l 44 0 m 70 0 l 70 37 l 792 37 l 792 0 l 70 0 z "},"Ω":{"ha":1078,"x_min":78,"x_max":1001,"o":"m 435 246 q 306 291 369 259 q 191 372 242 322 q 109 490 140 422 q 78 642 78 558 q 133 866 78 773 q 293 1007 189 958 q 539 1056 397 1056 q 786 1007 683 1056 q 945 866 889 958 q 1001 642 1001 773 q 970 491 1001 558 q 888 376 939 424 q 773 296 836 327 q 644 252 710 265 l 644 286 q 726 358 694 308 q 774 479 758 407 q 790 642 790 551 q 779 793 790 724 q 741 914 768 863 q 664 994 713 965 q 539 1022 615 1022 q 414 994 463 1022 q 338 914 365 965 q 300 793 310 863 q 289 642 289 724 q 305 477 289 551 q 353 353 321 403 q 435 280 385 302 l 435 246 m 113 0 l 113 278 l 149 278 q 180 206 149 229 q 264 183 210 183 l 399 183 l 399 266 l 435 266 l 435 0 l 113 0 m 644 0 l 644 272 l 679 272 l 679 183 l 815 183 q 899 206 868 183 q 929 278 929 229 l 966 278 l 966 0 l 644 0 z "},"μ":{"ha":880,"x_min":35,"x_max":844,"o":"m 749 639 l 749 36 l 844 36 l 844 0 l 555 0 l 555 185 q 512 89 540 135 q 439 15 484 43 q 328 -14 394 -14 q 224 8 263 -14 q 167 66 186 29 l 167 -168 q 185 -244 167 -212 q 233 -295 203 -276 q 298 -322 263 -315 q 276 -286 284 -309 q 267 -241 267 -264 q 298 -167 267 -199 q 374 -136 329 -136 q 449 -167 419 -136 q 480 -247 480 -199 q 446 -328 480 -294 q 343 -361 412 -361 q 241 -339 290 -361 q 162 -274 192 -317 q 131 -168 131 -231 l 131 603 l 35 603 l 35 639 l 326 639 l 326 218 q 331 125 326 160 q 351 74 336 90 q 393 58 365 58 q 457 82 428 58 q 509 145 487 106 q 543 233 531 185 q 555 328 555 281 l 555 603 l 465 603 l 465 639 l 749 639 z "},"π":{"ha":876,"x_min":56,"x_max":828,"o":"m 57 341 l 57 639 l 800 639 l 800 444 l 94 444 l 94 341 l 57 341 m 172 -14 q 88 13 119 -14 q 56 81 56 40 q 72 132 56 113 q 112 165 88 151 q 165 194 137 179 q 218 231 193 208 q 259 291 243 253 q 274 388 274 328 l 274 545 l 351 545 l 351 338 q 305 80 351 173 q 172 -14 259 -14 m 643 -14 q 527 17 574 -14 q 481 115 481 49 l 481 518 l 675 518 l 675 138 q 688 101 675 117 q 727 86 701 86 q 765 102 749 86 q 801 158 781 117 l 828 143 q 760 28 804 70 q 643 -14 716 -14 z "},"⁄":{"ha":744,"x_min":56,"x_max":683,"o":"m 56 -208 l 647 1084 l 683 1084 l 92 -208 l 56 -208 z "},"½":{"ha":972,"x_min":31,"x_max":944,"o":"m 52 -139 l 716 903 l 752 903 l 90 -139 l 52 -139 m 31 494 l 31 517 l 360 517 l 360 494 l 31 494 m 507 -140 l 507 -57 l 685 86 q 766 181 738 128 q 794 301 794 233 q 760 416 794 373 q 674 458 727 458 q 606 441 638 458 q 555 391 574 424 q 538 310 536 358 l 517 310 q 542 351 517 332 q 598 369 567 369 q 648 350 625 369 q 672 298 672 330 q 649 243 672 264 q 594 222 626 222 q 540 245 564 222 q 516 310 517 269 q 570 441 514 389 q 724 493 626 493 q 873 447 819 493 q 927 335 927 401 q 916 273 927 301 q 887 223 906 245 q 845 181 868 200 q 800 145 823 163 l 604 -15 l 922 -15 l 922 47 l 944 47 l 944 -140 l 507 -140 m 139 501 l 139 1097 l 44 1097 l 44 1119 l 268 1119 l 268 501 l 139 501 z "},"¼":{"ha":931,"x_min":31,"x_max":900,"o":"m 60 -139 l 723 903 l 760 903 l 97 -139 l 60 -139 m 31 494 l 31 517 l 360 517 l 360 494 l 31 494 m 600 -143 l 600 -121 l 679 -121 l 679 394 l 443 47 l 900 47 l 900 25 l 403 25 l 713 482 l 808 482 l 808 -121 l 871 -121 l 871 -143 l 600 -143 m 139 501 l 139 1097 l 44 1097 l 44 1119 l 268 1119 l 268 501 l 139 501 z "},"¾":{"ha":1015,"x_min":28,"x_max":983,"o":"m 136 -139 l 799 903 l 835 903 l 174 -139 l 136 -139 m 220 483 q 114 504 156 483 q 49 558 71 525 q 28 624 28 590 q 49 678 28 658 q 99 699 69 699 q 145 680 126 699 q 164 631 164 662 q 143 585 164 603 q 96 567 122 567 q 49 584 70 567 q 28 624 28 601 l 50 624 q 70 567 50 594 q 122 523 90 540 q 195 507 155 507 q 287 550 259 507 q 315 663 315 593 q 305 731 315 694 q 263 793 294 767 q 172 819 232 819 l 172 833 q 334 808 273 833 q 422 744 394 783 q 449 658 449 705 q 416 565 449 604 q 331 505 383 526 q 220 483 279 483 m 683 -143 l 683 -121 l 763 -121 l 763 394 l 526 47 l 983 47 l 983 25 l 486 25 l 796 482 l 892 482 l 892 -121 l 954 -121 l 954 -143 l 683 -143 m 172 827 l 172 840 q 253 864 228 840 q 284 921 278 888 q 290 982 290 954 q 281 1041 290 1015 q 253 1084 272 1068 q 205 1101 235 1101 q 162 1094 185 1101 q 120 1074 140 1087 q 88 1042 100 1060 q 75 1000 75 1023 l 53 1000 q 76 1043 53 1027 q 122 1060 98 1060 q 169 1042 148 1060 q 190 994 190 1024 q 167 945 190 962 q 122 928 145 928 q 73 947 94 928 q 52 1000 52 967 q 78 1063 52 1035 q 145 1108 105 1091 q 228 1124 186 1124 q 320 1108 275 1124 q 395 1061 365 1092 q 424 984 424 1031 q 401 907 424 942 q 324 849 378 871 q 172 827 269 827 z "},"¹":{"ha":735,"x_min":181,"x_max":510,"o":"m 290 640 l 290 1236 l 195 1236 l 195 1258 l 419 1258 l 419 640 l 290 640 m 181 633 l 181 656 l 510 656 l 510 633 l 181 633 z "},"²":{"ha":652,"x_min":119,"x_max":556,"o":"m 119 636 l 119 719 l 297 863 q 377 957 349 904 q 406 1078 406 1010 q 372 1192 406 1149 q 285 1235 339 1235 q 218 1217 249 1235 q 167 1167 186 1200 q 149 1086 148 1134 l 128 1086 q 154 1127 128 1108 q 210 1146 179 1146 q 260 1126 237 1146 q 283 1074 283 1106 q 261 1019 283 1040 q 206 998 238 998 q 152 1022 176 998 q 128 1086 128 1046 q 182 1217 126 1165 q 335 1269 238 1269 q 485 1223 431 1269 q 539 1112 539 1177 q 528 1049 539 1077 q 499 999 517 1022 q 457 958 480 976 q 412 922 435 939 l 216 761 l 534 761 l 534 824 l 556 824 l 556 636 l 119 636 z "},"³":{"ha":624,"x_min":96,"x_max":517,"o":"m 288 626 q 182 647 224 626 q 117 701 139 668 q 96 767 96 733 q 117 821 96 801 q 167 842 138 842 q 213 823 194 842 q 232 774 232 805 q 211 728 232 747 q 164 710 190 710 q 117 727 138 710 q 97 767 97 744 l 118 767 q 138 710 118 737 q 190 666 157 683 q 263 650 223 650 q 355 693 327 650 q 383 806 383 736 q 373 874 383 838 q 331 936 362 910 q 240 962 300 962 l 240 976 q 402 951 341 976 q 490 887 463 926 q 517 801 517 848 q 484 708 517 747 q 399 648 451 669 q 288 626 347 626 m 240 970 l 240 983 q 321 1007 296 983 q 352 1064 346 1031 q 358 1125 358 1097 q 349 1184 358 1158 q 322 1227 340 1211 q 273 1244 303 1244 q 230 1237 253 1244 q 188 1217 208 1230 q 156 1185 168 1203 q 143 1143 143 1166 l 122 1143 q 144 1186 122 1170 q 190 1203 166 1203 q 237 1185 216 1203 q 258 1138 258 1167 q 235 1088 258 1105 q 190 1071 213 1071 q 141 1090 163 1071 q 120 1143 120 1110 q 147 1206 120 1178 q 214 1251 173 1234 q 297 1267 254 1267 q 388 1251 343 1267 q 463 1205 433 1235 q 492 1127 492 1174 q 469 1050 492 1085 q 392 992 447 1014 q 240 970 337 970 z "},"⁴":{"ha":570,"x_min":31,"x_max":528,"o":"m 228 638 l 228 660 l 308 660 l 308 1175 l 72 828 l 528 828 l 528 806 l 31 806 l 341 1263 l 437 1263 l 437 660 l 499 660 l 499 638 l 228 638 z "}," ":{"ha":347,"x_min":0,"x_max":0,"o":""}," ":{"ha":347,"x_min":0,"x_max":0,"o":""}," ":{"ha":694,"x_min":0,"x_max":0,"o":""}," ":{"ha":1389,"x_min":0,"x_max":0,"o":""}," ":{"ha":694,"x_min":0,"x_max":0,"o":""}," ":{"ha":1389,"x_min":0,"x_max":0,"o":""}," ":{"ha":463,"x_min":0,"x_max":0,"o":""}," ":{"ha":347,"x_min":0,"x_max":0,"o":""}," ":{"ha":231,"x_min":0,"x_max":0,"o":""}," ":{"ha":806,"x_min":0,"x_max":0,"o":""}," ":{"ha":277,"x_min":0,"x_max":0,"o":""}," ":{"ha":231,"x_min":0,"x_max":0,"o":""}," ":{"ha":139,"x_min":0,"x_max":0,"o":""},"​":{"ha":0,"x_min":0,"x_max":0,"o":""},"\r":{"ha":347,"x_min":0,"x_max":0,"o":""},".":{"ha":360,"x_min":56,"x_max":306,"o":"m 181 -14 q 118 3 146 -14 q 73 49 90 20 q 56 111 56 77 q 73 174 56 145 q 118 220 90 203 q 181 237 146 237 q 243 220 215 237 q 289 174 272 203 q 306 111 306 145 q 289 49 306 77 q 243 3 272 20 q 181 -14 215 -14 z "},",":{"ha":384,"x_min":53,"x_max":329,"o":"m 53 -215 l 53 -178 q 148 -160 103 -178 q 226 -110 193 -143 q 276 -29 259 -76 q 288 80 293 19 l 300 80 q 284 38 301 59 q 241 1 268 16 q 181 -14 214 -14 q 89 23 122 -14 q 56 110 56 60 q 74 172 56 143 q 123 217 92 200 q 190 233 153 233 q 260 213 228 233 q 310 153 292 192 q 329 60 329 115 q 295 -78 329 -16 q 200 -178 262 -141 q 53 -215 138 -215 z "},":":{"ha":359,"x_min":56,"x_max":306,"o":"m 181 500 q 118 517 146 500 q 73 563 90 534 q 56 625 56 591 q 73 688 56 659 q 118 734 90 717 q 181 751 146 751 q 243 734 215 751 q 289 688 272 717 q 306 625 306 659 q 289 563 306 591 q 243 517 272 534 q 181 500 215 500 m 181 -14 q 118 3 146 -14 q 73 49 90 20 q 56 111 56 77 q 73 174 56 145 q 118 220 90 203 q 181 237 146 237 q 243 220 215 237 q 289 174 272 203 q 306 111 306 145 q 289 49 306 77 q 243 3 272 20 q 181 -14 215 -14 z "},";":{"ha":384,"x_min":54,"x_max":331,"o":"m 182 500 q 119 517 147 500 q 74 563 91 534 q 57 625 57 591 q 74 688 57 659 q 119 734 91 717 q 182 751 147 751 q 245 734 216 751 q 290 688 274 717 q 307 625 307 659 q 290 563 307 591 q 245 517 274 534 q 182 500 216 500 m 54 -215 l 54 -178 q 150 -160 105 -178 q 227 -110 194 -143 q 277 -29 260 -76 q 290 80 294 19 l 301 80 q 286 38 302 59 q 242 1 269 16 q 183 -14 215 -14 q 90 23 123 -14 q 57 110 57 60 q 75 172 57 143 q 124 217 94 200 q 192 233 155 233 q 261 213 229 233 q 312 153 293 192 q 331 60 331 115 q 297 -78 331 -16 q 201 -178 263 -141 q 54 -215 140 -215 z "},"…":{"ha":1083,"x_min":56,"x_max":1028,"o":"m 903 -14 q 840 3 868 -14 q 795 49 812 20 q 778 111 778 77 q 795 174 778 145 q 840 220 812 203 q 903 237 868 237 q 966 220 937 237 q 1011 174 994 203 q 1028 111 1028 145 q 1011 49 1028 77 q 966 3 994 20 q 903 -14 937 -14 m 542 -14 q 479 3 507 -14 q 434 49 451 20 q 417 111 417 77 q 434 174 417 145 q 479 220 451 203 q 542 237 507 237 q 605 220 576 237 q 650 174 633 203 q 667 111 667 145 q 650 49 667 77 q 605 3 633 20 q 542 -14 576 -14 m 181 -14 q 118 3 146 -14 q 73 49 90 20 q 56 111 56 77 q 73 174 56 145 q 118 220 90 203 q 181 237 146 237 q 243 220 215 237 q 289 174 272 203 q 306 111 306 145 q 289 49 306 77 q 243 3 272 20 q 181 -14 215 -14 z "},"!":{"ha":526,"x_min":138,"x_max":388,"o":"m 243 358 q 229 486 243 424 q 196 612 215 549 q 160 744 177 676 q 138 888 144 812 q 138 901 138 895 q 138 914 138 908 q 168 1013 138 972 q 262 1053 198 1053 q 357 1013 327 1053 q 387 914 387 972 q 386 901 387 907 q 385 888 386 895 q 364 744 381 812 q 327 612 347 676 q 294 486 308 549 q 281 358 281 424 l 243 358 m 263 -14 q 201 3 229 -14 q 155 49 172 20 q 138 111 138 77 q 155 174 138 145 q 201 220 172 203 q 263 237 229 237 q 326 220 298 237 q 372 174 355 203 q 388 111 388 145 q 372 49 388 77 q 326 3 355 20 q 263 -14 298 -14 z "},"¡":{"ha":526,"x_min":139,"x_max":390,"o":"m 265 -331 q 171 -290 201 -331 q 140 -191 140 -249 q 141 -178 140 -185 q 142 -165 142 -172 q 164 -21 147 -89 q 200 110 181 47 q 233 237 219 174 q 247 364 247 299 l 284 364 q 298 237 284 299 q 331 110 312 174 q 367 -21 350 47 q 389 -165 383 -89 q 389 -178 390 -172 q 389 -191 389 -185 q 360 -290 389 -249 q 265 -331 331 -331 m 264 486 q 201 503 229 486 q 156 549 173 520 q 139 611 139 577 q 156 674 139 645 q 201 719 173 703 q 264 736 229 736 q 327 719 298 736 q 372 674 356 703 q 389 611 389 645 q 372 549 389 577 q 327 503 356 520 q 264 486 298 486 z "},"?":{"ha":812,"x_min":83,"x_max":743,"o":"m 335 339 l 335 501 q 440 562 399 522 q 500 658 481 603 q 519 778 519 713 q 514 869 519 827 q 490 944 508 912 q 440 995 473 977 q 352 1013 407 1013 q 263 995 305 1013 q 189 948 221 978 q 139 881 157 918 q 121 803 121 843 l 85 803 q 101 856 85 833 q 143 892 117 879 q 197 906 169 906 q 253 892 227 906 q 295 853 278 878 q 311 795 311 828 q 294 734 311 759 q 250 696 276 709 q 197 683 224 683 q 118 716 153 683 q 83 803 83 748 q 106 891 83 847 q 169 973 128 935 q 268 1033 210 1010 q 397 1056 326 1056 q 582 1021 504 1056 q 701 924 659 986 q 743 778 743 861 q 697 634 743 698 q 568 531 651 570 q 372 485 484 491 l 372 339 l 335 339 m 374 -14 q 311 3 340 -14 q 266 49 283 20 q 249 111 249 77 q 266 174 249 146 q 311 220 283 203 q 374 237 340 237 q 437 220 408 237 q 482 174 465 203 q 499 111 499 146 q 482 49 499 77 q 437 3 465 20 q 374 -14 408 -14 z "},"¿":{"ha":812,"x_min":66,"x_max":726,"o":"m 412 -333 q 228 -299 306 -333 q 108 -201 151 -264 q 66 -56 66 -139 q 112 88 66 24 q 241 192 158 152 q 437 238 325 231 l 437 383 l 474 383 l 474 222 q 369 160 410 201 q 309 64 328 119 q 290 -56 290 9 q 295 -147 290 -104 q 319 -222 301 -190 q 369 -273 336 -255 q 457 -291 402 -291 q 546 -273 504 -291 q 620 -226 588 -256 q 670 -158 652 -196 q 688 -81 688 -121 l 724 -81 q 708 -133 724 -110 q 667 -170 692 -156 q 612 -183 641 -183 q 557 -169 583 -183 q 514 -131 531 -156 q 498 -73 498 -106 q 516 -11 498 -36 q 560 26 533 14 q 612 39 586 39 q 691 7 657 39 q 726 -81 726 -25 q 704 -168 726 -124 q 641 -250 682 -212 q 541 -310 599 -287 q 412 -333 483 -333 m 435 486 q 373 503 401 486 q 327 549 344 520 q 310 611 310 577 q 327 674 310 646 q 373 719 344 703 q 435 736 401 736 q 499 719 470 736 q 544 674 527 703 q 560 611 560 646 q 544 549 560 577 q 499 503 527 520 q 435 486 470 486 z "},"·":{"ha":359,"x_min":56,"x_max":306,"o":"m 181 472 q 118 489 146 472 q 73 535 90 506 q 56 597 56 563 q 73 660 56 631 q 118 706 90 689 q 181 723 146 723 q 243 706 215 723 q 289 660 272 689 q 306 597 306 631 q 289 535 306 563 q 243 489 272 506 q 181 472 215 472 z "},"•":{"ha":277,"x_min":56,"x_max":306,"o":"m 181 424 q 118 441 146 424 q 73 486 90 458 q 56 549 56 515 q 73 611 56 583 q 118 657 90 640 q 181 674 146 674 q 243 657 215 674 q 289 611 272 640 q 306 549 306 583 q 289 486 306 515 q 243 441 272 458 q 181 424 215 424 z "},"*":{"ha":874,"x_min":46,"x_max":829,"o":"m 438 203 q 363 234 392 203 q 333 316 333 265 q 334 328 333 322 q 335 342 334 335 q 352 404 340 377 q 378 458 364 431 q 403 516 392 484 q 417 596 415 549 q 356 543 378 569 q 318 492 333 517 q 285 443 302 467 q 239 397 267 419 q 228 389 233 392 q 218 383 224 386 q 133 367 174 358 q 69 417 92 377 q 58 497 46 457 q 114 563 69 538 q 124 569 119 567 q 136 574 129 572 q 199 591 169 588 q 258 595 228 594 q 322 602 288 596 q 397 630 356 609 q 322 657 356 650 q 258 664 288 663 q 199 668 228 665 q 136 685 169 671 q 124 691 129 688 q 114 697 119 694 q 58 762 69 722 q 69 842 46 803 q 133 892 92 883 q 218 876 174 902 q 228 870 224 874 q 239 863 233 867 q 285 816 267 840 q 318 767 302 792 q 356 716 333 742 q 417 663 378 690 q 403 743 415 710 q 378 801 392 775 q 352 855 364 828 q 335 918 340 882 q 334 931 334 926 q 333 943 333 937 q 363 1025 333 994 q 438 1056 392 1056 q 513 1025 483 1056 q 542 943 542 994 q 542 931 542 937 q 540 918 542 926 q 523 855 535 882 q 497 801 510 828 q 471 743 483 775 q 457 663 460 710 q 518 716 496 690 q 557 767 541 742 q 590 816 572 792 q 635 863 607 840 q 647 870 641 867 q 657 876 652 874 q 742 892 701 902 q 806 842 783 883 q 817 762 829 803 q 761 697 806 722 q 751 691 756 694 q 738 685 745 688 q 675 668 705 671 q 616 664 646 665 q 552 657 586 663 q 477 630 519 650 q 552 602 519 609 q 616 595 586 596 q 675 591 646 594 q 738 574 705 588 q 751 569 745 572 q 761 563 756 567 q 817 497 806 538 q 806 417 829 457 q 742 367 783 377 q 657 383 701 358 q 647 389 652 386 q 635 397 641 392 q 590 443 607 419 q 557 492 572 467 q 518 543 541 517 q 457 596 496 569 q 471 516 460 549 q 497 458 483 484 q 523 404 510 431 q 540 342 535 377 q 542 328 542 335 q 542 316 542 322 q 513 234 542 265 q 438 203 483 203 z "},"‽":{"ha":916,"x_min":91,"x_max":862,"o":"m 458 465 l 458 498 q 543 526 503 503 q 614 588 583 549 q 661 674 644 626 q 679 778 679 723 q 650 905 679 852 q 567 986 622 958 q 438 1015 513 1015 q 343 1001 388 1015 q 261 964 298 988 q 198 910 224 940 q 157 845 171 879 q 174 862 163 856 q 197 868 185 868 q 251 853 227 868 q 290 815 275 839 q 304 760 304 790 q 289 703 304 728 q 248 665 273 678 q 197 651 224 651 q 122 685 153 651 q 91 769 91 719 q 116 870 91 819 q 190 963 141 921 q 309 1030 238 1005 q 470 1056 380 1056 q 619 1037 549 1056 q 745 981 690 1018 q 831 890 799 944 q 862 764 862 836 q 837 664 862 710 q 770 581 813 617 q 676 518 728 544 q 567 479 624 492 q 458 465 511 465 m 443 -14 q 381 3 409 -14 q 335 49 352 20 q 318 111 318 77 q 335 174 318 146 q 381 220 352 203 q 443 237 409 237 q 506 220 478 237 q 551 174 535 203 q 568 111 568 146 q 551 49 568 77 q 506 3 535 20 q 443 -14 478 -14 m 426 338 q 412 451 426 387 q 382 585 398 515 q 358 721 366 655 q 357 735 358 728 q 357 747 357 741 q 369 798 357 774 q 405 836 382 822 q 461 851 428 851 q 517 836 494 851 q 553 798 540 822 q 565 747 565 774 q 565 735 565 741 q 564 721 565 728 q 543 619 558 671 q 511 516 528 567 q 482 420 494 465 q 469 338 469 374 l 426 338 z "},"#":{"ha":890,"x_min":42,"x_max":849,"o":"m 488 -8 l 626 1047 l 663 1049 l 524 -7 l 488 -8 m 42 334 l 42 371 l 808 371 l 808 334 l 42 334 m 215 -7 l 353 1049 l 390 1049 l 251 -7 l 215 -7 m 83 692 l 83 729 l 849 729 l 849 692 l 83 692 z "},"‾":{"ha":499,"x_min":-7,"x_max":507,"o":"m -7 1078 l -7 1114 l 507 1114 l 507 1078 l -7 1078 z "},"/":{"ha":738,"x_min":56,"x_max":683,"o":"m 56 -208 l 647 1084 l 683 1084 l 92 -208 l 56 -208 z "},"\\":{"ha":729,"x_min":56,"x_max":675,"o":"m 633 -208 l 56 1084 l 97 1084 l 675 -208 l 633 -208 z "},"-":{"ha":499,"x_min":83,"x_max":417,"o":"m 83 364 l 83 400 l 417 400 l 417 364 l 83 364 z "},"–":{"ha":751,"x_min":83,"x_max":667,"o":"m 83 364 l 83 400 l 667 400 l 667 364 l 83 364 z "},"—":{"ha":1090,"x_min":83,"x_max":1006,"o":"m 83 364 l 83 400 l 1006 400 l 1006 364 l 83 364 z "},"‒":{"ha":649,"x_min":83,"x_max":566,"o":"m 83 364 l 83 400 l 566 400 l 566 364 l 83 364 z "},"―":{"ha":1191,"x_min":83,"x_max":1108,"o":"m 83 364 l 83 400 l 1108 400 l 1108 364 l 83 364 z "},"‐":{"ha":499,"x_min":83,"x_max":417,"o":"m 83 364 l 83 400 l 417 400 l 417 364 l 83 364 z "},"‑":{"ha":499,"x_min":83,"x_max":417,"o":"m 83 364 l 83 400 l 417 400 l 417 364 l 83 364 z "},"_":{"ha":777,"x_min":-8,"x_max":784,"o":"m -8 -226 l -8 -190 l 784 -190 l 784 -226 l -8 -226 z "},"(":{"ha":520,"x_min":90,"x_max":507,"o":"m 491 -236 q 333 -133 406 -199 q 206 23 260 -67 q 121 222 151 113 q 90 451 90 330 q 143 744 90 613 q 287 969 197 876 q 491 1111 378 1063 l 507 1085 q 418 985 456 1051 q 355 834 380 920 q 318 650 330 748 q 306 451 306 551 q 318 249 306 351 q 355 55 330 147 q 418 -106 380 -37 q 507 -209 456 -175 l 491 -236 z "},")":{"ha":522,"x_min":15,"x_max":433,"o":"m 32 -236 l 15 -210 q 105 -110 67 -176 q 168 41 143 -45 q 205 225 192 127 q 217 424 217 324 q 205 626 217 524 q 168 820 192 728 q 105 981 143 912 q 15 1084 67 1051 l 32 1111 q 190 1009 117 1075 q 317 852 263 942 q 402 654 372 763 q 433 424 433 545 q 380 131 433 262 q 236 -93 326 0 q 32 -236 145 -187 z "},"{":{"ha":460,"x_min":76,"x_max":419,"o":"m 419 1084 l 419 1046 q 347 1027 376 1046 q 303 976 318 1009 q 289 899 289 942 q 301 813 289 853 q 324 727 313 773 q 336 619 336 682 q 313 530 336 565 q 239 474 290 495 q 107 438 189 452 q 239 403 189 424 q 313 346 290 381 q 336 257 336 311 q 324 149 336 194 q 301 64 313 103 q 289 -22 289 24 q 303 -100 289 -66 q 347 -153 318 -133 q 419 -172 376 -172 l 419 -208 q 213 -185 288 -208 q 107 -115 138 -161 q 76 0 76 -69 q 89 114 76 66 q 118 197 101 161 q 147 264 134 233 q 160 327 160 294 q 133 390 160 370 q 76 419 107 409 l 76 456 q 133 487 107 466 q 160 550 160 508 q 147 614 160 583 q 118 680 134 644 q 89 763 101 716 q 76 876 76 810 q 107 991 76 945 q 213 1061 138 1038 q 419 1084 288 1084 z "},"}":{"ha":460,"x_min":42,"x_max":385,"o":"m 385 432 q 235 467 292 446 q 152 525 178 489 q 126 618 126 560 q 138 726 126 681 q 161 811 149 772 q 172 897 172 851 q 158 975 172 941 q 114 1028 143 1008 q 42 1047 85 1047 l 42 1083 q 249 1060 174 1083 q 355 990 324 1037 q 385 875 385 944 q 373 761 385 809 q 343 678 360 714 q 314 611 327 642 q 301 548 301 581 q 328 486 301 506 q 385 456 354 466 l 385 432 m 42 -208 l 42 -171 q 114 -152 85 -171 q 158 -100 143 -133 q 172 -24 172 -67 q 161 63 172 22 q 138 148 149 103 q 126 256 126 194 q 152 350 126 314 q 235 407 178 386 q 385 442 292 428 l 385 419 q 328 389 354 409 q 301 325 301 368 q 314 261 301 292 q 343 195 327 231 q 373 112 360 160 q 385 -1 385 65 q 355 -116 385 -70 q 249 -185 324 -162 q 42 -208 174 -208 z "}}}
